<?xml version="1.0" encoding="UTF-8" standalone="no"?>
<svg width="336px" height="78px" viewBox="0 0 336 78" version="1.1" xmlns="http://www.w3.org/2000/svg" xmlns:xlink="http://www.w3.org/1999/xlink" xmlns:sketch="http://www.bohemiancoding.com/sketch/ns">
    <!-- Generator: Sketch 3.2.2 (9983) - http://www.bohemiancoding.com/sketch -->
    <title>Slice 1</title>
    <desc>Created with Sketch.</desc>
    <defs>
        <path id="path-1" d="M0.06,0.129 L140.383,0.129 L140.383,24.94 L0.06,24.94 L0.06,0.129 Z"></path>
        <path id="path-3" d="M0.06,0.129 L140.383,0.129 L140.383,24.94 L0.06,24.94"></path>
    </defs>
    <g id="Page-1" stroke="none" stroke-width="1" fill="none" fill-rule="evenodd" sketch:type="MSPage">
        <path d="M137.7,61.8 C136.4,61.8 135.4,61.35 134.75,60.9 L134.75,42.6 C135.55,42.2 136.45,41.85 138,41.85 C141,41.85 142.85,44.65 142.85,51.15 C142.85,59.15 140.6,61.8 137.7,61.8 L137.7,61.8 Z M134.65,39.95 L134.65,36.3 L133.9,36.3 L122.3,38.15 L122.3,40.6 L125.45,42.05 L125.45,73.25 L122.45,74.65 L122.45,77.25 L138.25,77.25 L138.25,74.65 L134.75,73.25 L134.75,64.85 C135.65,65.25 136.6,65.7 138.85,65.7 C146.2,65.7 152.6,61.9 152.6,50.5 C152.6,39.4 148.05,36.3 142.55,36.3 C138.95,36.3 136.5,38.1 134.95,39.95 L134.65,39.95 Z M153.85,26.7 L153.85,29.25 L157,30.7 L157,61 L154,62.4 L154,65 L169.3,65 L169.3,62.4 L166.3,61 L166.3,24.85 L165.55,24.85 L153.85,26.7 Z M185.8,59.6 C185.3,60.15 184.25,60.65 183.25,60.65 C181.45,60.65 179.75,59.65 179.75,56.55 C179.75,53.9 181.5,52.45 183.65,52.25 L185.8,52.05 L185.8,59.6 Z M178.75,40.05 C179.35,40 180.7,39.95 181.15,39.95 C184.75,39.95 185.8,41.75 185.8,45.3 L185.8,49.05 L180.45,49.95 C174.25,51 170.55,52.15 170.55,57.9 C170.55,62.55 173.65,65.75 178.6,65.75 C182.1,65.75 185.4,64.25 186.65,61.75 L186.9,61.75 C187.35,64.75 189.95,65.7 192.85,65.7 C195.1,65.7 197.2,65.05 198.1,64.55 L198.1,62.45 L195.15,61.05 L195.15,44.8 C195.15,38.5 190.65,36.3 183.15,36.3 C178.25,36.3 175.1,37.6 172.45,38.45 L172.45,45.75 L176.8,45.75 L178.75,40.05 Z M202.4,57.35 C202.4,63.3 205,65.75 210.55,65.75 C213.45,65.75 216.6,65 218.15,64.1 L218.15,60.5 C217.45,60.6 216.15,60.7 215.15,60.7 C212.45,60.7 211.7,59.3 211.7,56.55 L211.7,41.8 L217.8,41.8 L217.8,37 L211.7,37 L211.7,30.45 L202.4,31.75 L202.4,37 L198.1,37.6 L198.1,41.8 L202.4,41.8 L202.4,57.35 Z M231,61.05 L231,41.8 L235.65,41.8 L235.65,37 L231,37 L231,33.75 C231,30.5 231.9,28.95 234.25,28.95 C234.6,28.95 234.95,29 235.25,29.05 L236.35,33 L241.15,33 L241.15,25.8 C238,25 235.9,24.85 233.2,24.85 C227.3,24.85 221.7,27.95 221.7,34.85 L221.7,37.1 L218.5,38.7 L218.5,41.8 L221.7,41.8 L221.7,61.05 L218.65,62.45 L218.65,65 L234.8,65 L234.8,62.45 L231,61.05 Z M250.75,36.3 C242.25,36.3 236.4,41.5 236.4,51 C236.4,60.5 242.25,65.75 250.75,65.75 C259.25,65.75 265.1,60.5 265.1,51 C265.1,41.5 259.25,36.3 250.75,36.3 L250.75,36.3 Z M250.8,61.85 C247.7,61.85 246.15,60.25 246.15,51 C246.15,41.75 247.7,40.15 250.8,40.15 C253.9,40.15 255.35,41.75 255.35,51 C255.35,60.25 253.9,61.85 250.8,61.85 L250.8,61.85 Z M266.25,38.05 L266.25,40.6 L269.35,42.05 L269.35,61 L266.4,62.4 L266.4,65 L282.5,65 L282.5,62.4 L278.65,61 L278.65,45.45 C280.25,44.7 282.35,44.45 284.85,44.45 C285.65,44.45 286.65,44.55 287.2,44.7 L287.2,36.55 C286.9,36.45 286.3,36.4 285.8,36.4 C282.75,36.4 280.25,38.4 278.6,42.1 L278.3,42.1 L278.3,36.2 L277.5,36.2 L266.25,38.05 Z M287.75,65 L302.55,65 L302.55,62.45 L300.1,61.05 L300.1,42.65 C301.2,42.15 302.2,41.9 303.2,41.9 C305.75,41.9 306.65,42.95 306.65,45.85 L306.65,61.05 L304.2,62.45 L304.2,65 L318.4,65 L318.4,62.45 L315.95,61.05 L315.95,42.6 C317,42.15 318.1,41.9 319.05,41.9 C321.55,41.9 322.5,42.95 322.5,45.85 L322.5,61.05 L320.05,62.45 L320.05,65 L334.8,65 L334.8,62.45 L331.75,61.05 L331.75,43.8 C331.75,38.65 329.3,36.3 324.65,36.3 C320.85,36.3 318.1,37.65 315.6,39.95 L315.35,39.95 C314.35,37.45 312.25,36.3 308.95,36.3 C305.15,36.3 302.75,37.65 300.25,39.95 L299.95,39.95 L299.95,36.3 L299.2,36.3 L287.6,38.15 L287.6,40.6 L290.8,42.05 L290.8,61.05 L287.75,62.45 L287.75,65 Z" id="platform" fill="#FFFFFF" sketch:type="MSShapeGroup"></path>
        <path d="M15.1,36.3 C6.6,36.3 0.75,41.5 0.75,51 C0.75,60.5 6.6,65.75 15.1,65.75 C23.6,65.75 29.45,60.5 29.45,51 C29.45,41.5 23.6,36.3 15.1,36.3 L15.1,36.3 Z M15.15,61.85 C12.05,61.85 10.5,60.25 10.5,51 C10.5,41.75 12.05,40.15 15.15,40.15 C18.25,40.15 19.7,41.75 19.7,51 C19.7,60.25 18.25,61.85 15.15,61.85 L15.15,61.85 Z M45.9,61.8 C44.6,61.8 43.6,61.35 42.95,60.9 L42.95,42.6 C43.75,42.2 44.65,41.85 46.2,41.85 C49.2,41.85 51.05,44.65 51.05,51.15 C51.05,59.15 48.8,61.8 45.9,61.8 L45.9,61.8 Z M42.85,39.95 L42.85,36.3 L42.1,36.3 L30.5,38.15 L30.5,40.6 L33.65,42.05 L33.65,73.25 L30.65,74.65 L30.65,77.25 L46.45,77.25 L46.45,74.65 L42.95,73.25 L42.95,64.85 C43.85,65.25 44.8,65.7 47.05,65.7 C54.4,65.7 60.8,61.9 60.8,50.5 C60.8,39.4 56.25,36.3 50.75,36.3 C47.15,36.3 44.7,38.1 43.15,39.95 L42.85,39.95 Z M75.95,39.4 C78.25,39.4 79.5,40.6 79.5,48.05 L71.75,48.5 C71.85,41.05 73.4,39.4 75.95,39.4 L75.95,39.4 Z M88.55,51.85 C88.55,40.1 84.5,36.35 76.1,36.35 C67.75,36.35 62.3,41.7 62.3,50.95 C62.3,60.45 67.25,65.75 76.85,65.75 C82,65.75 86.2,63.45 87.5,61.65 L87.5,58.95 C85.55,59.55 83.55,59.9 80,59.9 C74.9,59.9 72.3,57.3 71.85,51.85 L88.55,51.85 Z M89.6,65 L104.9,65 L104.9,62.45 L101.95,61.05 L101.95,42.65 C103.1,42.2 104.35,41.9 105.75,41.9 C108.3,41.9 109.5,42.95 109.5,45.85 L109.5,61.05 L106.55,62.45 L106.55,65 L121.85,65 L121.85,62.45 L118.8,61.05 L118.8,43.75 C118.8,38.6 116.45,36.3 111.8,36.3 C108,36.3 104.6,37.65 102.1,39.95 L101.8,39.95 L101.8,36.3 L101.05,36.3 L89.45,38.15 L89.45,40.6 L92.65,42.05 L92.65,61.05 L89.6,62.45 L89.6,65 Z" id="open" fill="#FFFFFF" sketch:type="MSShapeGroup"></path>
        <g id="guardian" sketch:type="MSLayerGroup" transform="translate(1.000000, 0.000000)">
            <path d="M104.272,6.489 L104.272,7.827 L105.729,8.5 L105.729,16.907 L104.341,17.549 L104.341,19.049 L111.761,19.049 L111.761,17.549 L110.374,16.907 L110.374,5.623 L110.009,5.623 L104.272,6.489" id="Fill-1" fill="#FFFFFF" sketch:type="MSShapeGroup"></path>
            <path d="M125.063,17.696 L126.448,17.057 L126.448,8.51 L124.991,7.837 L124.991,6.5 L130.529,5.633 L130.896,5.633 L130.896,7.373 L131.038,7.373 C132.208,6.31 133.78,5.648 135.548,5.648 C137.745,5.648 138.991,6.746 138.991,9.141 L138.991,17.057 L140.383,17.696 L140.383,19.049 L133.029,19.049 L133.029,17.696 L134.347,17.057 L134.347,10.265 C134.347,8.94 133.913,8.444 132.732,8.444 C132.088,8.444 131.618,8.562 131.093,8.774 L131.093,17.057 L132.408,17.696 L132.408,19.049 L125.063,19.049 L125.063,17.696" id="Fill-2" fill="#FFFFFF" sketch:type="MSShapeGroup"></path>
            <g id="Group-6">
                <mask id="mask-2" sketch:name="Clip 4" fill="white">
                    <use xlink:href="#path-1"></use>
                </mask>
                <g id="Clip-4"></g>
                <path d="M98.048,3.148 L96.597,2.478 L96.597,1.14 L102.328,0.273 L102.694,0.273 L102.694,16.655 L104.073,17.413 L104.073,18.694 L98.761,19.279 L98.393,19.276 L98.393,17.916 L98.249,17.916 C97.703,18.61 96.584,19.333 94.96,19.333 C92.573,19.333 89.583,17.82 89.583,12.809 C89.583,7.539 92.637,5.648 96.099,5.648 C96.813,5.648 97.523,5.813 98.048,6.191 L98.048,3.148 L98.048,3.148 Z M98.047,16.591 L98.047,8.064 C97.713,7.805 97.507,7.592 96.72,7.592 C95.358,7.592 94.468,8.673 94.468,12.36 C94.468,15.59 95.358,16.844 96.858,16.844 C97.527,16.844 97.753,16.71 98.047,16.591 L98.047,16.591 Z" id="Fill-3" fill="#FFFFFF" sketch:type="MSShapeGroup" mask="url(#mask-2)"></path>
                <path d="M1.853,15.408 L1.853,8.402 L0,8.402 L0,6.2 L1.853,5.931 L1.853,3.465 L6.474,2.859 L6.474,5.931 L9.188,5.931 L9.188,8.402 L6.474,8.402 L6.474,14.881 C6.474,16.157 7.219,16.82 8.137,16.82 C8.59,16.82 9.017,16.765 9.332,16.712 L9.332,18.552 C8.625,18.962 7.15,19.309 5.79,19.309 C3.211,19.309 1.853,18.173 1.853,15.408" id="Fill-5" fill="#FFFFFF" sketch:type="MSShapeGroup" mask="url(#mask-2)"></path>
            </g>
            <path d="M30.825,7.229 C31.671,7.229 32.346,8.14 32.346,10.957 L29.06,11.09 C29.165,7.665 29.715,7.229 30.825,7.229 L30.825,7.229 Z M29.054,12.879 L36.698,12.879 C36.698,7.396 34.811,5.648 30.896,5.648 C27.005,5.648 24.302,8.153 24.302,12.455 C24.302,16.898 26.767,19.33 31.255,19.33 C33.666,19.33 35.545,18.289 36.37,17.464 L36.37,16.04 C35.462,16.323 34.53,16.488 32.859,16.488 C30.629,16.488 29.201,15.312 29.054,12.879 L29.054,12.879 Z" id="Fill-7" fill="#FFFFFF" sketch:type="MSShapeGroup"></path>
            <path d="M79.749,6.5 L79.749,7.837 L81.205,8.51 L81.205,17.057 L79.816,17.699 L79.816,19.049 L87.483,19.049 L87.483,17.699 L85.85,17.057 L85.847,10.179 C86.587,9.824 87.416,9.706 88.585,9.706 C88.968,9.706 89.421,9.753 89.684,9.824 L89.684,5.719 C89.54,5.671 89.254,5.648 89.039,5.648 C87.607,5.648 86.587,6.72 85.823,8.469 L85.68,8.469 L85.68,5.623 L85.314,5.623 L79.749,6.5" id="Fill-8" fill="#FFFFFF" sketch:type="MSShapeGroup"></path>
            <path d="M73.528,16.319 L73.528,12.938 L72.67,13.036 C71.663,13.131 71.102,13.8 71.102,15.05 C71.102,16.398 71.632,16.814 72.468,16.814 C72.949,16.814 73.29,16.578 73.528,16.319 M70.369,7.703 L69.547,10.068 L67.3,10.068 L67.3,6.641 C68.518,6.263 70.146,5.648 72.438,5.648 C75.923,5.648 78.167,6.679 78.167,9.609 L78.167,17.005 L79.551,17.648 L79.551,18.785 C79.125,19.012 78.013,19.304 76.962,19.304 C75.602,19.304 74.381,18.87 74.181,17.46 L74.061,17.46 C73.483,18.63 71.788,19.328 70.165,19.328 C67.849,19.328 66.506,17.839 66.506,15.665 C66.506,12.994 68.31,12.412 71.174,11.821 L73.528,11.395 L73.528,9.86 C73.528,8.182 73.174,7.646 71.503,7.646 C71.128,7.646 70.632,7.676 70.369,7.703" id="Fill-9" fill="#FFFFFF" sketch:type="MSShapeGroup"></path>
            <path d="M118.775,16.319 L118.775,12.938 L117.916,13.036 C116.909,13.131 116.349,13.8 116.349,15.05 C116.349,16.398 116.878,16.814 117.715,16.814 C118.195,16.814 118.537,16.578 118.775,16.319 M115.615,7.703 L114.794,10.068 L112.547,10.068 L112.547,6.641 C113.764,6.263 115.393,5.648 117.684,5.648 C121.17,5.648 123.413,6.679 123.413,9.609 L123.413,17.005 L124.798,17.648 L124.798,18.785 C124.372,19.012 123.26,19.304 122.209,19.304 C120.849,19.304 119.628,18.87 119.427,17.46 L119.308,17.46 C118.729,18.63 117.034,19.328 115.411,19.328 C113.096,19.328 111.753,17.839 111.753,15.665 C111.753,12.994 113.556,12.412 116.421,11.821 L118.775,11.395 L118.775,9.86 C118.775,8.182 118.421,7.646 116.75,7.646 C116.375,7.646 115.879,7.676 115.615,7.703" id="Fill-10" fill="#FFFFFF" sketch:type="MSShapeGroup"></path>
            <path d="M52.772,8.202 L51.461,7.529 L51.461,6.491 L57.044,5.624 L57.411,5.624 L57.411,14.684 C57.411,16.174 58.108,16.436 59.206,16.436 C59.786,16.436 60.131,16.317 60.499,16.129 L60.499,8.202 L59.041,7.529 L59.041,6.491 L64.777,5.624 L65.142,5.624 L65.142,16.796 L66.59,17.554 L66.59,18.686 L61.164,19.27 L60.795,19.268 L60.791,17.453 L60.647,17.453 C59.812,18.493 58.436,19.324 56.669,19.324 C54.043,19.324 52.772,17.454 52.772,15.185 L52.772,8.202" id="Fill-11" fill="#FFFFFF" sketch:type="MSShapeGroup"></path>
            <path d="M9.565,17.696 L10.95,17.057 L10.95,3.139 L9.493,2.466 L9.493,1.128 L15.181,0.261 L15.547,0.261 L15.547,7.373 L15.69,7.373 C16.859,6.31 18.283,5.648 20.049,5.648 C22.247,5.648 23.493,6.746 23.493,9.141 L23.493,17.057 L24.884,17.696 L24.884,19.049 L17.531,19.049 L17.531,17.696 L18.849,17.057 L18.849,10.265 C18.849,8.94 18.415,8.444 17.234,8.444 C16.589,8.444 16.12,8.562 15.594,8.774 L15.594,17.057 L16.91,17.696 L16.91,19.049 L9.565,19.049 L9.565,17.696" id="Fill-12" fill="#FFFFFF" sketch:type="MSShapeGroup"></path>
            <g id="Group-16">
                <mask id="mask-4" sketch:name="Clip 14" fill="white">
                    <use xlink:href="#path-3"></use>
                </mask>
                <g id="Clip-14"></g>
                <path d="M107.962,0.129 C109.313,0.129 110.406,1.224 110.406,2.574 C110.406,3.924 109.313,5.018 107.962,5.018 C106.612,5.018 105.517,3.924 105.517,2.574 C105.517,1.224 106.612,0.129 107.962,0.129" id="Fill-13" fill="#FFFFFF" sketch:type="MSShapeGroup" mask="url(#mask-4)"></path>
                <path d="M44.252,23.293 C42.066,23.293 41.569,22.534 41.569,21.626 C41.569,21.061 41.735,20.706 42.07,20.312 L46.401,20.312 C47.476,20.312 47.966,20.753 47.966,21.433 C47.966,22.554 46.851,23.293 44.252,23.293 L44.252,23.293 Z M44.493,7.285 C45.436,7.285 45.899,7.879 45.899,10.156 C45.899,12.432 45.427,12.884 44.493,12.884 C43.558,12.884 43.1,12.047 43.1,10.156 C43.1,8.265 43.548,7.285 44.493,7.285 L44.493,7.285 Z M47.361,16.047 L42.917,16.047 C42.263,16.047 41.917,15.812 41.917,15.363 C41.917,15.031 42.144,14.684 42.432,14.433 C43.067,14.586 43.76,14.663 44.493,14.663 C47.83,14.663 50.238,13.105 50.238,10.288 C50.238,9.207 49.86,8.282 49.017,7.606 L49.017,7.432 L50.937,8.078 L51.228,8.078 L51.228,5.465 L50.976,5.465 L47.975,6.413 L47.726,6.413 C46.867,5.931 45.863,5.649 44.493,5.649 C41.145,5.649 38.721,7.263 38.721,10.156 C38.721,11.819 39.626,13.133 40.965,13.888 L40.965,14.092 C39.819,14.529 38.773,15.59 38.773,16.832 C38.773,18.112 39.572,19.227 40.695,19.562 L40.695,19.739 C39.224,20.046 37.871,20.625 37.871,22.042 C37.871,23.791 40.146,25 44.252,25 C49.356,25 51.661,23.047 51.661,19.937 C51.661,17.385 50.245,16.047 47.361,16.047 L47.361,16.047 Z" id="Fill-15" fill="#FFFFFF" sketch:type="MSShapeGroup" mask="url(#mask-4)"></path>
            </g>
        </g>
    </g>
</svg>