<svg width="632" height="127" viewBox="0 0 632 127" xmlns="http://www.w3.org/2000/svg" xmlns:xlink="http://www.w3.org/1999/xlink" xmlns:sketch="http://www.bohemiancoding.com/sketch/ns"><title>Open Platform Logo</title><desc>Created with Sketch.</desc><defs><path id="a" d="M.022 0h197.812v35h-197.812v-35z"/><path id="c" d="M.022 0h197.812v35h-197.812v-35z"/></defs><g sketch:type="MSLayerGroup" fill="none"><g sketch:type="MSShapeGroup"><path d="M28.5 108.3c-8.4 0-14.95-2.45-19.65-7.35-4.7-4.9-7.05-11.55-7.05-19.95 0-8.6 2.517-15.383 7.55-20.35 5.033-4.967 11.383-7.45 19.05-7.45 8.4 0 14.95 2.4 19.65 7.2 4.7 4.8 7.05 11.467 7.05 20s-2.533 15.317-7.6 20.35c-5.067 5.033-11.4 7.55-19 7.55zm.1-9.3c6.8 0 10.2-5.967 10.2-17.9 0-12.467-3.5-18.7-10.5-18.7-3.2 0-5.717 1.333-7.55 4-1.833 2.667-2.75 7.3-2.75 13.9 0 12.467 3.533 18.7 10.6 18.7zm29.7 28v-7.2l6.2-1.3v-53.7l-6.4-1.6v-7.5l19.8-2.4 1.4.7v5.1h.6c4.667-4 9.867-6 15.6-6 2.6 0 4.983.417 7.15 1.25 2.167.833 4.217 2.167 6.15 4 1.933 1.833 3.45 4.483 4.55 7.95 1.1 3.467 1.65 7.567 1.65 12.3 0 10.067-2.433 17.533-7.3 22.4-4.867 4.867-11.4 7.3-19.6 7.3-2.933 0-5.633-.233-8.1-.7v10.8l7.3 1.4v7.2h-29zm29.2-27.9c3.733 0 6.55-1.35 8.45-4.05 1.9-2.7 2.85-7.483 2.85-14.35 0-5.933-.867-10.15-2.6-12.65s-4.4-3.75-8-3.75c-2.933 0-5.667.633-8.2 1.9v30.8c2.267 1.4 4.767 2.1 7.5 2.1zm58.9 9.2c-9 0-15.8-2.45-20.4-7.35-4.6-4.9-6.9-11.75-6.9-20.55 0-8.467 2.367-15.117 7.1-19.95 4.733-4.833 11-7.25 18.8-7.25 8 0 13.867 2.35 17.6 7.05 3.733 4.7 5.6 12.117 5.6 22.25h-33.1c.733 10.067 5.867 15.1 15.4 15.1 4.867 0 9.933-.833 15.2-2.5v8.1c-5.333 3.4-11.767 5.1-19.3 5.1zm-11.3-33.2l17.6-.6c0-8.2-2.7-12.3-8.1-12.3-5.8 0-8.967 4.3-9.5 12.9zm36.5 31.9v-7.3l6.3-1.5v-33.4l-6.5-1.6v-7.5l19.8-2.4 1.5.7v5.3h.6c5.667-4.067 11.467-6.1 17.4-6.1 9.4 0 14.1 4.433 14.1 13.3v31.7l6 1.5v7.3h-26.7v-7.3l5.2-1.3v-26.7c0-2.533-.6-4.3-1.8-5.3-1.2-1-3.133-1.5-5.8-1.5-2.2 0-5 .567-8.4 1.7v31.8l5.2 1.3v7.3h-26.9z" fill="#fff"/><path d="M233.2 127v-7.2l6.2-1.3v-53.7l-6.4-1.6v-7.5l19.8-2.4 1.4.7v5.1h.6c4.667-4 9.867-6 15.6-6 2.6 0 4.983.417 7.15 1.25 2.167.833 4.217 2.167 6.15 4 1.933 1.833 3.45 4.483 4.55 7.95 1.1 3.467 1.65 7.567 1.65 12.3 0 10.067-2.433 17.533-7.3 22.4-4.867 4.867-11.4 7.3-19.6 7.3-2.933 0-5.633-.233-8.1-.7v10.8l7.3 1.4v7.2h-29zm29.2-27.9c3.733 0 6.55-1.35 8.45-4.05 1.9-2.7 2.85-7.483 2.85-14.35 0-5.933-.867-10.15-2.6-12.65s-4.4-3.75-8-3.75c-2.933 0-5.667.633-8.2 1.9v30.8c2.267 1.4 4.767 2.1 7.5 2.1zm31.2 7.9v-7.3l6.4-1.5v-54.6l-7-1.6v-7.6l21-2.3 1.4.7v65.4l6.3 1.5v7.3h-28.1zm46.5 1.3c-4.733 0-8.55-1.317-11.45-3.95-2.9-2.633-4.35-6.117-4.35-10.45 0-4.667 1.5-8.117 4.5-10.35 3-2.233 7.6-3.917 13.8-5.05l10.5-2.1v-3.5c0-3.2-.7-5.4-2.1-6.6-1.4-1.2-4.2-1.8-8.4-1.8-5.133 0-9.633.333-13.5 1v-8.6c6.6-2.467 13.567-3.7 20.9-3.7 6.333 0 11.017 1.367 14.05 4.1 3.033 2.733 4.55 6.933 4.55 12.6v25.6c0 2.267 1.3 3.4 3.9 3.4h1.9v7.1c-2.6 1.467-5.9 2.2-9.9 2.2-5.2 0-8.433-2-9.7-6h-.5c-3.333 4.067-8.067 6.1-14.2 6.1zm6.3-9.2c2.6 0 4.833-.867 6.7-2.6v-12.5l-6.4.4c-2.467.2-4.25.9-5.35 2.1-1.1 1.2-1.65 2.967-1.65 5.3 0 4.867 2.233 7.3 6.7 7.3zm50.9 9c-5.267 0-9.2-1.067-11.8-3.2-2.6-2.133-3.9-5.767-3.9-10.9v-30.4h-6.2v-6.8l7.6-2.6 2-12.3h12.1v12.4h11.6v9.3h-11.6v27.7c0 2.467.517 4.217 1.55 5.25 1.033 1.033 2.817 1.55 5.35 1.55 1.733 0 3.533-.233 5.4-.7v7.7c-3.067 2-7.1 3-12.1 3zm14.7-1.1v-7.3l6.3-1.5v-34.6h-6.3v-6.8l6.3-2.4v-5c0-6 1.767-10.383 5.3-13.15 3.533-2.767 8.033-4.15 13.5-4.15 4.467 0 8.167.7 11.1 2.1v8.9c-2.067-.467-4.2-.7-6.4-.7-2.733 0-4.75.6-6.05 1.8-1.3 1.2-1.95 3.4-1.95 6.6v3.5h10.6v9.3h-10.6v34.6l7.4 1.5v7.3h-29.2zm60.7 1.3c-8.4 0-14.95-2.45-19.65-7.35-4.7-4.9-7.05-11.55-7.05-19.95 0-8.6 2.517-15.383 7.55-20.35 5.033-4.967 11.383-7.45 19.05-7.45 8.4 0 14.95 2.4 19.65 7.2 4.7 4.8 7.05 11.467 7.05 20s-2.533 15.317-7.6 20.35c-5.067 5.033-11.4 7.55-19 7.55zm.1-9.3c6.8 0 10.2-5.967 10.2-17.9 0-12.467-3.5-18.7-10.5-18.7-3.2 0-5.717 1.333-7.55 4-1.833 2.667-2.75 7.3-2.75 13.9 0 12.467 3.533 18.7 10.6 18.7zm29.8 8v-7.3l6.3-1.5v-33.4l-6.5-1.6v-7.5l19.8-2.4 1.5.7v7.5h.6c3.467-5.467 7.9-8.2 13.3-8.2 1.067 0 2 .133 2.8.4v13.6c-1.067-.267-2.567-.4-4.5-.4-4.533 0-8.4.8-11.6 2.4v28.9l7.7 1.5v7.3h-29.4zm40.1 0v-7.3l6.3-1.5v-33.4l-6.5-1.6v-7.5l19.8-2.4 1.5.7v5.1h.6c5.267-3.933 10.933-5.9 17-5.9 5.933 0 9.933 2.133 12 6.4h.6c5.333-4.267 11.233-6.4 17.7-6.4 4.267 0 7.65 1.133 10.15 3.4s3.75 5.7 3.75 10.3v31.3l5.9 1.5v7.3h-26.5v-7.3l5.1-1.3v-26.3c0-2.667-.583-4.533-1.75-5.6-1.167-1.067-3.083-1.6-5.75-1.6-2.333 0-4.967.533-7.9 1.6.2 1.2.3 2.267.3 3.2v28.7l5.1 1.3v7.3h-25.6v-7.3l5.1-1.3v-26.3c0-2.667-.583-4.533-1.75-5.6-1.167-1.067-2.983-1.6-5.45-1.6-2.133 0-4.8.533-8 1.6v31.9l5.1 1.3v7.3h-26.8z" fill="#ccc"/></g><g><path d="M146.943 8.95v1.882l2.052.947v11.832l-1.955.904v2.111h10.456v-2.111l-1.955-.904v-15.881h-.513l-8.086 1.22" fill="#fff" sketch:type="MSShapeGroup"/><path d="M176.242 24.721l1.951-.899v-12.028l-2.052-.947v-1.883l7.804-1.22h.517v2.449h.202c1.648-1.496 3.862-2.428 6.356-2.428 3.096 0 4.849 1.546 4.849 4.916v11.14l1.966.899v1.905h-10.366v-1.905l1.857-.899v-9.558c0-1.864-.611-2.563-2.273-2.563-.911 0-1.572.166-2.312.466v11.656l1.854.899v1.905h-10.352v-1.905" fill="#fff" sketch:type="MSShapeGroup"/><g><g><mask id="b" sketch:name="path-1"><use xlink:href="#a"/></mask><path d="M138.174 4.247l-2.045-.943v-1.883l8.075-1.22h.517v23.055l1.944 1.066v1.804l-7.486.822-.52-.003v-1.916h-.202c-.77.979-2.349 1.995-4.636 1.995-3.364 0-7.577-2.13-7.577-9.182 0-7.417 4.303-10.078 9.181-10.078 1.008 0 2.009.233 2.75.765v-4.283zm-.004 18.92v-12.001c-.47-.365-.759-.665-1.868-.665-1.919 0-3.176 1.522-3.176 6.71 0 4.546 1.257 6.31 3.371 6.31.939 0 1.257-.188 1.673-.354z" fill="#fff" sketch:type="MSShapeGroup" mask="url(#b)"/></g><g><mask id="d" sketch:name="path-1"><use xlink:href="#c"/></mask><path d="M2.611 21.501v-9.86h-2.611v-3.099l2.611-.378v-3.471l6.512-.853v4.323h3.826v3.477h-3.826v9.118c0 1.796 1.051 2.729 2.344 2.729.638 0 1.24-.077 1.684-.151v2.59c-.996.576-3.074 1.064-4.991 1.064-3.634 0-5.549-1.598-5.549-5.49" fill="#ccc" sketch:type="MSShapeGroup" mask="url(#d)"/></g></g><path d="M43.441 9.99c1.192 0 2.143 1.282 2.143 5.247l-4.632.188c.148-4.821.925-5.435 2.489-5.435zm-2.497 7.952h10.771c0-7.717-2.656-10.177-8.173-10.177-5.485 0-9.296 3.526-9.296 9.58 0 6.253 3.475 9.676 9.798 9.676 3.4 0 6.048-1.465 7.208-2.626v-2.005c-1.279.398-2.591.632-4.946.632-3.143 0-5.156-1.655-5.362-5.079z" fill="#ccc" sketch:type="MSShapeGroup"/><path d="M112.383 8.964v1.883l2.052.947v12.028l-1.955.904v1.9h10.803v-1.9l-2.302-.904-.004-9.68c1.044-.498 2.211-.665 3.859-.665.538 0 1.178.066 1.55.167v-5.778c-.206-.066-.607-.1-.911-.1-2.02 0-3.454 1.509-4.531 3.97h-.202v-4.006h-.517l-7.844 1.235" fill="#fff" sketch:type="MSShapeGroup"/><path d="M103.618 22.783v-4.758l-1.207.138c-1.42.134-2.211 1.075-2.211 2.835 0 1.896.744 2.482 1.926 2.482.676 0 1.156-.333 1.492-.697m-4.451-12.126l-1.156 3.329h-3.169v-4.823c1.716-.532 4.011-1.398 7.241-1.398 4.91 0 8.075 1.451 8.075 5.575v10.409l1.947.904v1.6c-.6.321-2.168.731-3.646.731-1.919 0-3.638-.61-3.92-2.595h-.17c-.813 1.646-3.205 2.629-5.492 2.629-3.263 0-5.156-2.096-5.156-5.157 0-3.758 2.544-4.577 6.58-5.408l3.317-.6v-2.16c0-2.362-.499-3.115-2.854-3.115-.528 0-1.225.042-1.597.079" fill="#fff" sketch:type="MSShapeGroup"/><path d="M167.382 22.783v-4.758l-1.21.138c-1.42.134-2.208 1.075-2.208 2.835 0 1.896.744 2.482 1.922 2.482.679 0 1.16-.333 1.496-.697m-4.451-12.126l-1.16 3.329h-3.165v-4.823c1.713-.532 4.007-1.398 7.237-1.398 4.914 0 8.075 1.451 8.075 5.575v10.409l1.951.904v1.6c-.6.321-2.168.731-3.649.731-1.915 0-3.638-.61-3.92-2.595h-.17c-.813 1.646-3.201 2.629-5.488 2.629-3.263 0-5.156-2.096-5.156-5.157 0-3.758 2.54-4.577 6.58-5.408l3.317-.6v-2.16c0-2.362-.499-3.115-2.854-3.115-.528 0-1.228.042-1.597.079" fill="#fff" sketch:type="MSShapeGroup"/><path d="M74.369 11.359l-1.85-.946v-1.461l7.869-1.22h.517v12.75c0 2.097.983 2.466 2.529 2.466.817 0 1.304-.167 1.825-.433v-11.156l-2.056-.946v-1.461l8.083-1.22h.513v15.724l2.041 1.066v1.593l-7.645.823-.52-.003-.007-2.555h-.202c-1.178 1.463-3.115 2.634-5.608 2.634-3.7 0-5.488-2.633-5.488-5.826v-9.827" fill="#fff" sketch:type="MSShapeGroup"/><path d="M13.479 24.721l1.951-.899v-19.587l-2.053-.946v-1.883l8.015-1.22h.516v10.008h.201c1.649-1.496 3.654-2.428 6.143-2.428 3.096 0 4.853 1.546 4.853 4.916v11.14l1.961.899v1.905h-10.362v-1.905l1.857-.899v-9.558c0-1.864-.612-2.563-2.276-2.563-.908 0-1.57.166-2.311.466v11.656l1.854.899v1.905h-10.351v-1.905" fill="#ccc" sketch:type="MSShapeGroup"/><path d="M152.142 0c1.904 0 3.447 1.54 3.447 3.44 0 1.899-1.543 3.439-3.447 3.439-1.901 0-3.443-1.54-3.443-3.439 0-1.9 1.543-3.44 3.443-3.44" fill="#fff" sketch:type="MSShapeGroup"/><path d="M62.363 32.598c-3.082 0-3.783-1.068-3.783-2.346 0-.796.235-1.294.708-1.849h6.103c1.514 0 2.204.621 2.204 1.577 0 1.578-1.572 2.619-5.232 2.619zm.34-22.529c1.326 0 1.98.837 1.98 4.041 0 3.203-.665 3.84-1.98 3.84-1.319 0-1.966-1.178-1.966-3.84 0-2.661.632-4.041 1.966-4.041zm4.039 12.331h-6.262c-.921 0-1.409-.331-1.409-.963 0-.467.318-.954.726-1.307.896.214 1.872.324 2.905.324 4.701 0 8.093-2.194 8.093-6.158 0-1.521-.531-2.824-1.72-3.775v-.245l2.706.909h.412v-3.678h-.358l-4.227 1.334h-.354c-1.207-.678-2.623-1.074-4.553-1.074-4.719 0-8.137 2.272-8.137 6.343 0 2.34 1.275 4.19 3.165 5.251v.288c-1.615.615-3.089 2.109-3.089 3.855 0 1.802 1.124 3.372 2.706 3.843v.249c-2.074.432-3.978 1.247-3.978 3.241 0 2.462 3.205 4.162 8.993 4.162 7.19 0 10.438-2.748 10.438-7.124 0-3.592-1.994-5.476-6.059-5.476z" fill="#fff" sketch:type="MSShapeGroup"/></g></g></svg>