<?xml version="1.0" encoding="UTF-8" standalone="no"?>
<svg width="632px" height="127px" viewBox="0 0 632 127" version="1.1" xmlns="http://www.w3.org/2000/svg" xmlns:xlink="http://www.w3.org/1999/xlink" xmlns:sketch="http://www.bohemiancoding.com/sketch/ns">
    <!-- Generator: Sketch 3.0.4 (8054) - http://www.bohemiancoding.com/sketch -->
    <title>Open Platform Logo</title>
    <desc>Created with Sketch.</desc>
    <defs>
        <path id="path-1" d="M0.0216788321,-0.000360824742 L197.833796,-0.000360824742 L197.833796,35 L0.0216788321,35 L0.0216788321,-0.000360824742 L0.0216788321,-0.000360824742 Z"></path>
        <path id="path-3" d="M0.0216788321,-0.000360824742 L197.833796,-0.000360824742 L197.833796,35 L0.0216788321,35 L0.0216788321,-0.000360824742 L0.0216788321,-0.000360824742 Z"></path>
    </defs>
    <g id="Page-1" stroke="none" stroke-width="1" fill="none" fill-rule="evenodd" sketch:type="MSPage">
        <g id="Open-Platform-Logo" sketch:type="MSArtboardGroup">
            <g id="Open-Platform-+-The-Guardian" sketch:type="MSLayerGroup">
                <g id="Open-Platform" transform="translate(2.000000, 32.000000)" sketch:type="MSShapeGroup">
                    <path d="M26.5,76.3 C18.099958,76.3 11.5500235,73.8500245 6.85,68.95 C2.1499765,64.0499755 -0.2,57.400042 -0.2,49 C-0.2,40.399957 2.3166415,33.6166915 7.35,28.65 C12.3833585,23.6833085 18.733295,21.2 26.4,21.2 C34.800042,21.2 41.3499765,23.599976 46.05,28.4 C50.7500235,33.200024 53.1,39.866624 53.1,48.4 C53.1,56.933376 50.566692,63.7166415 45.5,68.75 C40.433308,73.7833585 34.100038,76.3 26.5,76.3 Z M26.6,67 C33.400034,67 36.8,61.033393 36.8,49.1 C36.8,36.633271 33.300035,30.4 26.3,30.4 C23.099984,30.4 20.5833425,31.73332 18.75,34.4 C16.9166575,37.06668 16,41.699967 16,48.3 C16,60.766729 19.533298,67 26.6,67 Z M56.3,95 L56.3,87.8 L62.5,86.5 L62.5,32.8 L56.1,31.2 L56.1,23.7 L75.9,21.3 L77.3,22 L77.3,27.1 L77.9,27.1 C82.56669,23.09998 87.766638,21.1 93.5,21.1 C96.100013,21.1 98.4833225,21.5166625 100.65,22.35 C102.816677,23.1833375 104.866657,24.5166575 106.8,26.35 C108.733343,28.1833425 110.249994,30.833316 111.35,34.3 C112.450006,37.766684 113,41.866643 113,46.6 C113,56.666717 110.566691,64.133309 105.7,69 C100.833309,73.866691 94.300041,76.3 86.1,76.3 C83.166652,76.3 80.466679,76.066669 78,75.6 L78,86.4 L85.3,87.8 L85.3,95 L56.3,95 Z M85.5,67.1 C89.233352,67.1 92.0499905,65.7500135 93.95,63.05 C95.8500095,60.3499865 96.8,55.566701 96.8,48.7 C96.8,42.766637 95.933342,38.5500125 94.2,36.05 C92.466658,33.5499875 89.800018,32.3 86.2,32.3 C83.266652,32.3 80.533346,32.933327 78,34.2 L78,65 C80.266678,66.400007 82.766653,67.1 85.5,67.1 Z M144.4,76.3 C135.399955,76.3 128.600023,73.8500245 124,68.95 C119.399977,64.0499755 117.1,57.200044 117.1,48.4 C117.1,39.933291 119.466643,33.2833575 124.2,28.45 C128.933357,23.6166425 135.199961,21.2 143,21.2 C151.00004,21.2 156.866648,23.5499765 160.6,28.25 C164.333352,32.9500235 166.2,40.366616 166.2,50.5 L133.1,50.5 C133.833337,60.566717 138.966619,65.6 148.5,65.6 C153.366691,65.6 158.433307,64.766675 163.7,63.1 L163.7,71.2 C158.36664,74.600017 151.933371,76.3 144.4,76.3 Z M133.1,43.1 L150.7,42.5 C150.7,34.299959 148.000027,30.2 142.6,30.2 C136.799971,30.2 133.633336,34.499957 133.1,43.1 Z M169.6,75 L169.6,67.7 L175.9,66.2 L175.9,32.8 L169.4,31.2 L169.4,23.7 L189.2,21.3 L190.7,22 L190.7,27.3 L191.3,27.3 C196.966695,23.233313 202.766637,21.2 208.7,21.2 C218.100047,21.2 222.8,25.633289 222.8,34.5 L222.8,66.2 L228.8,67.7 L228.8,75 L202.1,75 L202.1,67.7 L207.3,66.4 L207.3,39.7 C207.3,37.166654 206.700006,35.400005 205.5,34.4 C204.299994,33.399995 202.36668,32.9 199.7,32.9 C197.499989,32.9 194.700017,33.466661 191.3,34.6 L191.3,66.4 L196.5,67.7 L196.5,75 L169.6,75 Z" id="open" fill="#FFFFFF"></path>
                    <path d="M231.2,95 L231.2,87.8 L237.4,86.5 L237.4,32.8 L231,31.2 L231,23.7 L250.8,21.3 L252.2,22 L252.2,27.1 L252.8,27.1 C257.46669,23.09998 262.666638,21.1 268.4,21.1 C271.000013,21.1 273.383323,21.5166625 275.55,22.35 C277.716678,23.1833375 279.766657,24.5166575 281.7,26.35 C283.633343,28.1833425 285.149994,30.833316 286.25,34.3 C287.350006,37.766684 287.9,41.866643 287.9,46.6 C287.9,56.666717 285.466691,64.133309 280.6,69 C275.733309,73.866691 269.200041,76.3 261,76.3 C258.066652,76.3 255.366679,76.066669 252.9,75.6 L252.9,86.4 L260.2,87.8 L260.2,95 L231.2,95 Z M260.4,67.1 C264.133352,67.1 266.949991,65.7500135 268.85,63.05 C270.75001,60.3499865 271.7,55.566701 271.7,48.7 C271.7,42.766637 270.833342,38.5500125 269.1,36.05 C267.366658,33.5499875 264.700018,32.3 261.1,32.3 C258.166652,32.3 255.433346,32.933327 252.9,34.2 L252.9,65 C255.166678,66.400007 257.666653,67.1 260.4,67.1 Z M291.6,75 L291.6,67.7 L298,66.2 L298,11.6 L291,10 L291,2.4 L312,0.1 L313.4,0.8 L313.4,66.2 L319.7,67.7 L319.7,75 L291.6,75 Z M338.1,76.3 C333.366643,76.3 329.550014,74.9833465 326.65,72.35 C323.749985,69.7166535 322.3,66.233355 322.3,61.9 C322.3,57.23331 323.799985,53.7833445 326.8,51.55 C329.800015,49.3166555 334.399969,47.633339 340.6,46.5 L351.1,44.4 L351.1,40.9 C351.1,37.699984 350.400007,35.500006 349,34.3 C347.599993,33.099994 344.800021,32.5 340.6,32.5 C335.466641,32.5 330.966686,32.83333 327.1,33.5 L327.1,24.9 C333.700033,22.433321 340.66663,21.2 348,21.2 C354.333365,21.2 359.016651,22.566653 362.05,25.3 C365.083348,28.033347 366.6,32.233305 366.6,37.9 L366.6,63.5 C366.6,65.766678 367.899987,66.9 370.5,66.9 L372.4,66.9 L372.4,74 C369.799987,75.466674 366.50002,76.2 362.5,76.2 C357.299974,76.2 354.066673,74.20002 352.8,70.2 L352.3,70.2 C348.96665,74.266687 344.233364,76.3 338.1,76.3 Z M344.4,67.1 C347.000013,67.1 349.233324,66.233342 351.1,64.5 L351.1,52 L344.7,52.4 C342.233321,52.600001 340.450005,53.299994 339.35,54.5 C338.249995,55.700006 337.7,57.466655 337.7,59.8 C337.7,64.666691 339.933311,67.1 344.4,67.1 Z M395.3,76.1 C390.033307,76.1 386.100013,75.033344 383.5,72.9 C380.899987,70.766656 379.6,67.133359 379.6,62 L379.6,31.6 L373.4,31.6 L373.4,24.8 L381,22.2 L383,9.9 L395.1,9.9 L395.1,22.3 L406.7,22.3 L406.7,31.6 L395.1,31.6 L395.1,59.3 C395.1,61.766679 395.616662,63.5166615 396.65,64.55 C397.683338,65.5833385 399.466654,66.1 402,66.1 C403.733342,66.1 405.533324,65.866669 407.4,65.4 L407.4,73.1 C404.333318,75.10001 400.300025,76.1 395.3,76.1 Z M410,75 L410,67.7 L416.3,66.2 L416.3,31.6 L410,31.6 L410,24.8 L416.3,22.4 L416.3,17.4 C416.3,11.39997 418.066649,7.0166805 421.6,4.25 C425.133351,1.4833195 429.633306,0.1 435.1,0.1 C439.566689,0.1 443.266652,0.799993 446.2,2.2 L446.2,11.1 C444.133323,10.633331 442.000011,10.4 439.8,10.4 C437.066653,10.4 435.050006,10.999994 433.75,12.2 C432.449994,13.400006 431.8,15.599984 431.8,18.8 L431.8,22.3 L442.4,22.3 L442.4,31.6 L431.8,31.6 L431.8,66.2 L439.2,67.7 L439.2,75 L410,75 Z M470.7,76.3 C462.299958,76.3 455.750023,73.8500245 451.05,68.95 C446.349977,64.0499755 444,57.400042 444,49 C444,40.399957 446.516641,33.6166915 451.55,28.65 C456.583358,23.6833085 462.933295,21.2 470.6,21.2 C479.000042,21.2 485.549976,23.599976 490.25,28.4 C494.950024,33.200024 497.3,39.866624 497.3,48.4 C497.3,56.933376 494.766692,63.7166415 489.7,68.75 C484.633308,73.7833585 478.300038,76.3 470.7,76.3 Z M470.8,67 C477.600034,67 481,61.033393 481,49.1 C481,36.633271 477.500035,30.4 470.5,30.4 C467.299984,30.4 464.783343,31.73332 462.95,34.4 C461.116657,37.06668 460.2,41.699967 460.2,48.3 C460.2,60.766729 463.733298,67 470.8,67 Z M500.6,75 L500.6,67.7 L506.9,66.2 L506.9,32.8 L500.4,31.2 L500.4,23.7 L520.2,21.3 L521.7,22 L521.7,29.5 L522.3,29.5 C525.766684,24.033306 530.199973,21.3 535.6,21.3 C536.666672,21.3 537.599996,21.433332 538.4,21.7 L538.4,35.3 C537.333328,35.033332 535.833343,34.9 533.9,34.9 C529.366644,34.9 525.500016,35.699992 522.3,37.3 L522.3,66.2 L530,67.7 L530,75 L500.6,75 Z M540.7,75 L540.7,67.7 L547,66.2 L547,32.8 L540.5,31.2 L540.5,23.7 L560.3,21.3 L561.8,22 L561.8,27.1 L562.4,27.1 C567.666693,23.166647 573.333303,21.2 579.4,21.2 C585.333363,21.2 589.333323,23.333312 591.4,27.6 L592,27.6 C597.33336,23.333312 603.233301,21.2 609.7,21.2 C613.966688,21.2 617.349987,22.333322 619.85,24.6 C622.350012,26.866678 623.6,30.299977 623.6,34.9 L623.6,66.2 L629.5,67.7 L629.5,75 L603,75 L603,67.7 L608.1,66.4 L608.1,40.1 C608.1,37.43332 607.516672,35.566672 606.35,34.5 C605.183327,33.433328 603.26668,32.9 600.6,32.9 C598.266655,32.9 595.633348,33.433328 592.7,34.5 C592.900001,35.700006 593,36.766662 593,37.7 L593,66.4 L598.1,67.7 L598.1,75 L572.5,75 L572.5,67.7 L577.6,66.4 L577.6,40.1 C577.6,37.43332 577.016672,35.566672 575.85,34.5 C574.683327,33.433328 572.866679,32.9 570.4,32.9 C568.266656,32.9 565.600016,33.433328 562.4,34.5 L562.4,66.4 L567.5,67.7 L567.5,75 L540.7,75 Z" id="platform" fill="#CCCCCC"></path>
                </g>
                <g id="The-Guardian">
                    <path d="M146.942737,8.94989691 L146.942737,10.8323196 L148.995,11.7791237 L148.995,23.6109278 L147.040292,24.514433 L147.040292,26.6256186 L157.496715,26.6256186 L157.496715,24.514433 L155.542007,23.6109278 L155.542007,7.72958763 L155.028942,7.72958763 L146.942737,8.94989691" id="Fill-1" fill="#FFFFFF" sketch:type="MSShapeGroup"></path>
                    <path d="M176.241679,24.7208247 L178.192774,23.8216495 L178.192774,11.7939175 L176.140511,10.8471134 L176.140511,8.9643299 L183.944891,7.74402062 L184.461569,7.74402062 L184.461569,10.1929381 L184.663905,10.1929381 C186.311496,8.69731959 188.52635,7.76530928 191.019416,7.76530928 C194.115876,7.76530928 195.868248,9.31108247 195.868248,12.6815464 L195.868248,23.8216495 L197.833796,24.7208247 L197.833796,26.6256186 L187.467701,26.6256186 L187.467701,24.7208247 L189.324854,23.8216495 L189.324854,14.2634021 C189.324854,12.3990206 188.714234,11.7001031 187.05219,11.7001031 C186.141679,11.7001031 185.480474,11.8660825 184.739781,12.1659278 L184.739781,23.8216495 L186.593321,24.7208247 L186.593321,26.6256186 L176.241679,26.6256186 L176.241679,24.7208247" id="Fill-2" fill="#FFFFFF" sketch:type="MSShapeGroup"></path>
                    <g id="Group-6">
                        <g id="Fill-3-Clipped">
                            <mask id="mask-2" sketch:name="path-1" fill="white">
                                <use xlink:href="#path-1"></use>
                            </mask>
                            <g id="path-1"></g>
                            <path d="M138.17365,4.24726804 L136.128613,3.30407216 L136.128613,1.42092784 L144.203978,0.200979381 L144.720657,0.200979381 L144.720657,23.2558763 L146.664526,24.3217526 L146.664526,26.1262371 L139.178102,26.9481959 L138.65781,26.9453093 L138.65781,25.0293299 L138.455474,25.0293299 C137.685876,26.0078866 136.106934,27.0246907 133.819818,27.0246907 C130.455985,27.0246907 126.243066,24.8947423 126.243066,17.8431443 C126.243066,10.4263918 130.546314,7.76530928 135.424051,7.76530928 C136.432117,7.76530928 137.432956,7.99840206 138.17365,8.53025773 L138.17365,4.24726804 L138.17365,4.24726804 Z M138.170036,23.1671134 L138.170036,11.1660825 C137.700328,10.8009278 137.411277,10.5014433 136.302044,10.5014433 C134.383467,10.5014433 133.126095,12.0234021 133.126095,17.211701 C133.126095,21.7573711 134.383467,23.5214433 136.497153,23.5214433 C137.436569,23.5214433 137.754526,23.3338144 138.170036,23.1671134 L138.170036,23.1671134 Z" id="Fill-3" fill="#FFFFFF" sketch:type="MSShapeGroup" mask="url(#mask-2)"></path>
                        </g>
                        <g id="Fill-5-Clipped">
                            <mask id="mask-4" sketch:name="path-1" fill="white">
                                <use xlink:href="#path-3"></use>
                            </mask>
                            <g id="path-1"></g>
                            <path d="M2.61085401,21.5011856 L2.61085401,11.6409278 L0,11.6409278 L0,8.54180412 L2.61085401,8.16402062 L2.61085401,4.69324742 L9.12245255,3.84061856 L9.12245255,8.16402062 L12.9484051,8.16402062 L12.9484051,11.6409278 L9.12245255,11.6409278 L9.12245255,20.7593299 C9.12245255,22.5555155 10.1735146,23.4882474 11.4666569,23.4882474 C12.1050985,23.4882474 12.7070474,23.4113918 13.1503796,23.3370619 L13.1503796,25.926701 C12.1545985,26.5025773 10.0759599,26.9907732 8.15955109,26.9907732 C4.5254562,26.9907732 2.61085401,25.3926804 2.61085401,21.5011856" id="Fill-5" fill="#CCCCCC" sketch:type="MSShapeGroup" mask="url(#mask-4)"></path>
                        </g>
                    </g>
                    <path d="M43.4407664,9.99015464 C44.6331022,9.99015464 45.5833577,11.2721649 45.5833577,15.2369072 L40.9513139,15.4252577 C41.0994526,10.6042784 41.8762774,9.99015464 43.4407664,9.99015464 L43.4407664,9.99015464 Z M40.9440876,17.9423711 L51.714854,17.9423711 C51.714854,10.2250515 49.0591971,7.76530928 43.5419343,7.76530928 C38.0571898,7.76530928 34.2464124,11.2916495 34.2464124,17.3448454 C34.2464124,23.5979381 37.7211679,27.0207216 44.0441606,27.0207216 C47.4441241,27.0207216 50.0925547,25.5554124 51.2523723,24.3946392 L51.2523723,22.3898969 C49.9733212,22.7882474 48.6617518,23.021701 46.3059854,23.021701 C43.1625547,23.021701 41.1500365,21.3669588 40.9440876,17.9423711 L40.9440876,17.9423711 Z" id="Fill-7" fill="#CCCCCC" sketch:type="MSShapeGroup"></path>
                    <path d="M112.383066,8.9643299 L112.383066,10.8471134 L114.435328,11.7939175 L114.435328,23.8216495 L112.48062,24.7255155 L112.48062,26.6256186 L123.283905,26.6256186 L123.283905,24.7255155 L120.982336,23.8216495 L120.978723,14.1414433 C122.02292,13.6431443 123.189964,13.4764433 124.837555,13.4764433 C125.375912,13.4764433 126.015438,13.5428351 126.387591,13.6431443 L126.387591,7.86525773 C126.181642,7.79886598 125.780584,7.76530928 125.47708,7.76530928 C123.457336,7.76530928 122.02292,9.27391753 120.946204,11.7351031 L120.743869,11.7351031 L120.743869,7.72958763 L120.22719,7.72958763 L112.383066,8.9643299" id="Fill-8" fill="#FFFFFF" sketch:type="MSShapeGroup"></path>
                    <path d="M103.617591,22.7831959 L103.617591,18.025 L102.410803,18.1628351 C100.990839,18.2970619 100.199562,19.2373711 100.199562,20.9981959 C100.199562,22.8939691 100.943869,23.4806701 102.125365,23.4806701 C102.801022,23.4806701 103.281569,23.147268 103.617591,22.7831959 M99.1662044,10.6573196 L98.01,13.9862887 L94.8412774,13.9862887 L94.8412774,9.16314433 C96.5575182,8.63128866 98.8518613,7.76530928 102.082007,7.76530928 C106.992263,7.76530928 110.157372,9.21654639 110.157372,13.3407732 L110.157372,23.7494845 L112.104854,24.6533505 L112.104854,26.2528866 C111.505073,26.5736598 109.936971,26.9839175 108.459197,26.9839175 C106.54062,26.9839175 104.820766,26.3737629 104.538942,24.3892268 L104.369124,24.3892268 C103.556168,26.0356701 101.16427,27.0178351 98.8771533,27.0178351 C95.6144891,27.0178351 93.7212044,24.9221649 93.7212044,21.8612887 C93.7212044,18.1036598 96.264854,17.2845876 100.30073,16.4532474 L103.617591,15.8535567 L103.617591,13.693299 C103.617591,11.3313402 103.118978,10.5779381 100.763212,10.5779381 C100.235693,10.5779381 99.5383577,10.6197938 99.1662044,10.6573196" id="Fill-9" fill="#FFFFFF" sketch:type="MSShapeGroup"></path>
                    <path d="M167.382263,22.7831959 L167.382263,18.025 L166.171861,18.1628351 C164.751898,18.2970619 163.964234,19.2373711 163.964234,20.9981959 C163.964234,22.8939691 164.70854,23.4806701 165.886423,23.4806701 C166.565693,23.4806701 167.046241,23.147268 167.382263,22.7831959 M162.930876,10.6573196 L161.771058,13.9862887 L158.605949,13.9862887 L158.605949,9.16314433 C160.318577,8.63128866 162.61292,7.76530928 165.843066,7.76530928 C170.756934,7.76530928 173.918431,9.21654639 173.918431,13.3407732 L173.918431,23.7494845 L175.869526,24.6533505 L175.869526,26.2528866 C175.269745,26.5736598 173.701642,26.9839175 172.220255,26.9839175 C170.305292,26.9839175 168.581825,26.3737629 168.3,24.3892268 L168.130182,24.3892268 C167.317226,26.0356701 164.928942,27.0178351 162.641825,27.0178351 C159.379161,27.0178351 157.485876,24.9221649 157.485876,21.8612887 C157.485876,18.1036598 160.025912,17.2845876 164.065401,16.4532474 L167.382263,15.8535567 L167.382263,13.693299 C167.382263,11.3313402 166.88365,10.5779381 164.527883,10.5779381 C164.000365,10.5779381 163.299416,10.6197938 162.930876,10.6573196" id="Fill-10" fill="#FFFFFF" sketch:type="MSShapeGroup"></path>
                    <path d="M74.3692336,11.3594845 L72.5193066,10.4130412 L72.5193066,8.95242268 L80.3887226,7.7321134 L80.9054015,7.7321134 L80.9054015,20.4818557 C80.9054015,22.5789691 81.8881752,22.9480928 83.4345985,22.9480928 C84.2511679,22.9480928 84.7389416,22.7810309 85.2592336,22.5154639 L85.2592336,11.3594845 L83.2033577,10.4130412 L83.2033577,8.95242268 L91.2859489,7.7321134 L91.7990146,7.7321134 L91.7990146,23.4557732 L93.840438,24.5212887 L93.840438,26.1139691 L86.1950365,26.9366495 L85.6747445,26.9334021 L85.6675182,24.3787629 L85.4651825,24.3787629 C84.2872993,25.8419072 82.3506569,27.0124227 79.8575912,27.0124227 C76.1577372,27.0124227 74.3692336,24.3794845 74.3692336,21.1869072 L74.3692336,11.3594845" id="Fill-11" fill="#FFFFFF" sketch:type="MSShapeGroup"></path>
                    <path d="M13.4791752,24.7208247 L15.4306314,23.8216495 L15.4306314,4.23463918 L13.3780073,3.28819588 L13.3780073,1.40541237 L21.3933942,0.185103093 L21.9093504,0.185103093 L21.9093504,10.1929381 L22.1106022,10.1929381 C23.7592774,8.69731959 25.7645693,7.76530928 28.2540219,7.76530928 C31.3504818,7.76530928 33.1068285,9.31108247 33.1068285,12.6815464 L33.1068285,23.8216495 L35.0680401,24.7208247 L35.0680401,26.6256186 L24.7055584,26.6256186 L24.7055584,24.7208247 L26.5623504,23.8216495 L26.5623504,14.2634021 C26.5623504,12.3990206 25.950646,11.7001031 24.2864343,11.7001031 C23.3784526,11.7001031 22.7165255,11.8660825 21.9758321,12.1659278 L21.9758321,23.8216495 L23.8300949,24.7208247 L23.8300949,26.6256186 L13.4791752,26.6256186 L13.4791752,24.7208247" id="Fill-12" fill="#CCCCCC" sketch:type="MSShapeGroup"></path>
                    <path d="M152.142044,-0.000360824742 C154.046168,-0.000360824742 155.588978,1.54 155.588978,3.44010309 C155.588978,5.33912371 154.046168,6.87912371 152.142044,6.87912371 C150.241533,6.87912371 148.698723,5.33912371 148.698723,3.44010309 C148.698723,1.54 150.241533,-0.000360824742 152.142044,-0.000360824742" id="Fill-13" fill="#FFFFFF" sketch:type="MSShapeGroup"></path>
                    <path d="M62.3627737,32.5979897 C59.2807664,32.5979897 58.5798175,31.5295876 58.5798175,30.2515464 C58.5798175,29.4552062 58.8146715,28.957268 59.2879927,28.4026804 L65.3905839,28.4026804 C66.9044891,28.4026804 67.5945985,29.023299 67.5945985,29.9794845 C67.5945985,31.5573711 66.0228832,32.5979897 62.3627737,32.5979897 L62.3627737,32.5979897 Z M62.7024088,10.0691753 C64.0284307,10.0691753 64.6824088,10.9059278 64.6824088,14.1096907 C64.6824088,17.3130928 64.0175912,17.9495876 62.7024088,17.9495876 C61.3836131,17.9495876 60.7368613,16.771134 60.7368613,14.1096907 C60.7368613,11.4482474 61.3691606,10.0691753 62.7024088,10.0691753 L62.7024088,10.0691753 Z M66.7418978,22.4003608 L60.4803285,22.4003608 C59.5589781,22.4003608 59.0712044,22.0694845 59.0712044,21.4369588 C59.0712044,20.9704124 59.3891606,20.4825773 59.7974453,20.1296907 C60.6935036,20.3436598 61.6690511,20.4533505 62.7024088,20.4533505 C67.4031022,20.4533505 70.7958394,18.2595361 70.7958394,14.2955155 C70.7958394,12.7742784 70.264708,11.471701 69.0759854,10.5209278 L69.0759854,10.2762887 L71.7822263,11.185567 L72.1941241,11.185567 L72.1941241,7.50768041 L71.8364234,7.50768041 L67.6090511,8.84128866 L67.2549635,8.84128866 C66.0481752,8.16329897 64.6318248,7.7671134 62.7024088,7.7671134 C57.9836496,7.7671134 54.5656204,10.038866 54.5656204,14.1096907 C54.5656204,16.4496392 55.8410584,18.2999485 57.7307299,19.361134 L57.7307299,19.649433 C56.1156569,20.2642784 54.6414964,21.7580928 54.6414964,23.5044845 C54.6414964,25.3064433 55.7651825,26.8760309 57.3477372,27.3476289 L57.3477372,27.5965979 C55.2737956,28.028866 53.3696715,28.8432474 53.3696715,30.8375258 C53.3696715,33.2990722 56.5745255,35 62.3627737,35 C69.5529197,35 72.8011314,32.2515979 72.8011314,27.8758763 C72.8011314,24.2835052 70.8066788,22.4003608 66.7418978,22.4003608 L66.7418978,22.4003608 Z" id="Fill-14" fill="#FFFFFF" sketch:type="MSShapeGroup"></path>
                </g>
            </g>
        </g>
    </g>
</svg>