<?xml version="1.0" encoding="utf-8"?>
<!-- Generator: Adobe Illustrator 16.0.1, SVG Export Plug-In . SVG Version: 6.00 Build 0)  -->
<!DOCTYPE svg PUBLIC "-//W3C//DTD SVG 1.1//EN" "http://www.w3.org/Graphics/SVG/1.1/DTD/svg11.dtd">
<svg version="1.1" id="Layer_1" xmlns="http://www.w3.org/2000/svg" xmlns:xlink="http://www.w3.org/1999/xlink" x="0px" y="0px"
	 width="360px" height="210px" viewBox="0 0 360 210" enable-background="new 0 0 360 210" xml:space="preserve">
<line fill="#0072BC" stroke="#FFFFFF" x1="16.37" y1="123.484" x2="147.604" y2="199.266"/>
<line fill="#0072BC" stroke="#FFFFFF" x1="3.263" y1="131.055" x2="134.497" y2="206.836"/>
<line fill="#0072BC" stroke="#FFFFFF" stroke-linecap="round" x1="3.246" y1="131.086" x2="134.48" y2="206.867"/>
<line fill="#0072BC" stroke="#FFFFFF" x1="29.493" y1="115.93" x2="160.728" y2="191.711"/>
<line fill="#0072BC" stroke="#FFFFFF" x1="42.626" y1="108.352" x2="173.86" y2="184.133"/>
<line fill="#0072BC" stroke="#FFFFFF" x1="55.74" y1="100.775" x2="186.975" y2="176.557"/>
<line fill="#0072BC" stroke="#FFFFFF" x1="68.88" y1="93.179" x2="200.114" y2="168.961"/>
<line fill="#0072BC" stroke="#FFFFFF" x1="81.987" y1="85.597" x2="213.222" y2="161.379"/>
<line fill="#0072BC" stroke="#FFFFFF" x1="95.104" y1="78.037" x2="226.339" y2="153.818"/>
<line fill="#0072BC" stroke="#FFFFFF" x1="108.233" y1="70.445" x2="239.468" y2="146.227"/>
<line fill="#0072BC" stroke="#FFFFFF" x1="121.365" y1="62.908" x2="252.6" y2="138.689"/>
<line fill="#0072BC" stroke="#FFFFFF" x1="134.48" y1="55.287" x2="265.715" y2="131.068"/>
<line fill="#0072BC" stroke="#FFFFFF" x1="147.64" y1="47.714" x2="278.874" y2="123.496"/>
<line fill="#0072BC" stroke="#FFFFFF" x1="160.764" y1="40.14" x2="291.998" y2="115.922"/>
<line fill="#0072BC" stroke="#FFFFFF" x1="173.856" y1="32.564" x2="305.091" y2="108.346"/>
<line fill="#0072BC" stroke="#FFFFFF" x1="186.974" y1="24.986" x2="318.208" y2="100.767"/>
<line fill="#0072BC" stroke="#FFFFFF" x1="200.098" y1="17.41" x2="331.332" y2="93.191"/>
<line fill="#0072BC" stroke="#FFFFFF" x1="213.221" y1="9.835" x2="344.455" y2="85.617"/>
<line fill="#0072BC" stroke="#FFFFFF" stroke-linecap="round" x1="226.354" y1="2.276" x2="357.588" y2="78.057"/>
<line fill="#0072BC" stroke="#FFFFFF" x1="108.275" y1="191.668" x2="121.429" y2="199.293"/>
<line fill="#0072BC" stroke="#FFFFFF" x1="121.357" y1="199.266" x2="344.455" y2="70.47"/>
<line fill="#0072BC" stroke="#FFFFFF" stroke-linecap="round" x1="134.48" y1="206.867" x2="357.578" y2="78.073"/>
<line fill="#0072BC" stroke="#FFFFFF" x1="108.234" y1="191.676" x2="331.332" y2="62.88"/>
<line fill="#0072BC" stroke="#FFFFFF" x1="95.11" y1="184.098" x2="318.208" y2="55.302"/>
<line fill="#0072BC" stroke="#FFFFFF" x1="81.987" y1="176.539" x2="305.085" y2="47.744"/>
<line fill="#0072BC" stroke="#FFFFFF" x1="68.863" y1="168.977" x2="291.961" y2="40.182"/>
<line fill="#0072BC" stroke="#FFFFFF" x1="55.74" y1="161.387" x2="278.838" y2="32.591"/>
<line fill="#0072BC" stroke="#FFFFFF" x1="42.617" y1="153.791" x2="265.715" y2="24.996"/>
<line fill="#0072BC" stroke="#FFFFFF" x1="29.493" y1="146.213" x2="252.591" y2="17.417"/>
<line fill="#0072BC" stroke="#FFFFFF" x1="16.37" y1="138.637" x2="239.468" y2="9.841"/>
<line fill="#0072BC" stroke="#FFFFFF" stroke-linecap="round" x1="3.247" y1="131.07" x2="226.345" y2="2.276"/>
</svg>
