<svg id="logo" xmlns="http://www.w3.org/2000/svg" width="194" height="26" viewBox="0 0 194 26"><g id="theguardian"><path class="theguardian fillColorWhite" d="M6.6 15.7V8.5h3V6.2h-3V3l-4.5.6v2.6L0 6.5v2h2.1v7.6c0 2.9 1.3 4.1 4 4.1 1.4 0 2.9-.4 3.7-.8v-1.8c-.3 0-1 .1-1.5.1-1.3 0-1.7-.7-1.7-2zM24.7 9.4c0-2.5-1.1-3.6-3.4-3.6-1.9 0-3.5.7-4.7 1.8h-.1V0h-.4l-5.7.9v1.2l1.6.7v15.1l-1.5.7v1.2H18v-1.2l-1.4-.7v-9c.6-.2 1.2-.4 1.9-.4 1.2 0 1.8.5 1.8 1.9v7.4l-1.4.7v1.2h7.5v-1.2l-1.5-.7V9.4z"></path><path class="st0" d="M32.5 5.8c-4.1 0-6.7 2.6-6.7 7.1 0 4.6 2.4 7.2 7.1 7.2 2.5 0 4.6-1.1 5.2-2v-1.3c-1 .3-1.9.5-3.7.5-2.5 0-3.8-1.3-4-3.9h8.1c.1-5.7-1.9-7.6-6-7.6zm-2.1 6c0-3.6.8-4.4 2-4.4 1.1 0 1.7.6 1.7 4.2l-3.7.2zM48.7 16.8h-4.9c-.5 0-1-.4-1-.9 0-.4.3-.8.6-1 .7.2 1.3.3 2.2.3 3.5 0 5.9-1.6 5.9-4.6 0-1.3-.6-2.1-1.4-2.9l2.3.8h.3V5.8h-.3l-3.4.7h-.2c-.9-.3-2-.7-3.1-.7-3.5 0-5.9 1.8-5.9 4.7 0 1.8.9 3.1 2.3 3.9v.1c-.8.5-2.3 1.7-2.3 3.1 0 1.1.7 2.1 2.2 2.4v.1c-1.5.3-3.3.8-3.3 2.6s2.6 3.2 6.9 3.2c5.3 0 7.7-2 7.7-5.3-.1-2.6-1.6-3.8-4.6-3.8zm-3-9.4c1 0 1.6.4 1.6 3.1s-.7 3-1.6 3c-1 0-1.6-.2-1.6-3s.6-3.1 1.6-3.1zm0 16.9c-2.5 0-3.3-.9-3.3-1.8 0-.7.2-1.1.5-1.5h4.8c1.1 0 1.6.3 1.6 1 0 1.4-.8 2.3-3.6 2.3zM67.2 5.8h-.4l-5.7.9V8l1.5.7V17c-.5.2-.9.3-1.6.3-1.1 0-1.9-.3-1.9-1.8V5.8h-.4l-5.7.9V8l1.5.7v7.1c0 2.4 1.2 4.3 3.9 4.3 1.8 0 3.3-.8 4.1-1.9h.2V20h.4l5.5-.6v-1.2l-1.5-.8V5.8zM81.2 10c0-3.1-2.2-4.1-5.8-4.1-2.4 0-3.9.6-5.2 1v3.6h2.1l1-2.8h1.2c1.8 0 2.3.9 2.3 2.6V12l-2.6.4c-3 .5-4.8 1.1-4.8 3.9 0 2.3 1.5 3.8 3.9 3.8 1.7 0 3.3-.7 3.9-1.9h.1c.2 1.5 1.5 1.9 2.9 1.9 1.1 0 2.1-.3 2.6-.6v-1l-1.4-.7V10zm-4.5 7.2c-.2.3-.8.5-1.2.5-.9 0-1.7-.5-1.7-2 0-1.3.9-2 1.9-2.1l1-.1v3.7zM88.9 8.6h-.1V5.8h-.4l-5.5.9v1.2l1.5.7v9.2l-1.4.7v1.3h7.8v-1.3l-1.9-.7v-7.6c.8-.4 1.8-.5 3-.5.4 0 .9 0 1.1.1v-4c-.1 0-.4-.1-.7-.1-1.4.2-2.6 1.1-3.4 2.9zM106.6.3h-.4l-5.7.9v1.2l1.5.7v3.3c-.6-.4-1.4-.6-2.2-.6-3.6 0-6.7 2-6.7 7.5 0 5.2 3 6.8 5.5 6.8 1.7 0 2.9-.8 3.4-1.5h.1V20h.4l5.4-.6v-1.2l-1.4-.8V.3zm-4.5 17.2c-.3.1-.7.2-1.4.2-1.8 0-2.7-1.5-2.7-4.8 0-3.8 1.1-5.1 2.5-5.1.8 0 1.2.2 1.5.5v9.2zM114.3 5.8h-.4l-5.7.9v1.2l1.6.7v9.2l-1.5.7v1.3h7.5v-1.3l-1.5-.7zM111.9 5c1.3 0 2.4-1.1 2.4-2.4 0-1.3-1.1-2.4-2.4-2.4-1.3 0-2.4 1.1-2.4 2.4 0 1.3 1.1 2.4 2.4 2.4zM128.3 10c0-3.1-2.2-4.1-5.8-4.1-2.4 0-3.9.6-5.2 1v3.6h2.1l1-2.8h1.2c1.8 0 2.3.9 2.3 2.6V12l-2.6.4c-3 .5-4.8 1.1-4.8 3.9 0 2.3 1.5 3.8 3.9 3.8 1.7 0 3.3-.7 3.9-1.9h.1c.2 1.5 1.5 1.9 2.9 1.9 1.1 0 2.1-.3 2.6-.6v-1l-1.4-.7V10zm-4.6 7.2c-.2.3-.8.5-1.2.5-.9 0-1.7-.5-1.7-2 0-1.3.9-2 1.9-2.1l1-.1v3.7zM144.2 9.4c0-2.5-1.1-3.6-3.4-3.6-1.9 0-3.5.7-4.7 1.8h-.1V5.8h-.4l-5.7.9v1.2l1.6.7v9.3l-1.5.7v1.2h7.5v-1.2l-1.4-.7v-9c.6-.2 1.2-.4 1.9-.4 1.2 0 1.8.5 1.8 1.9v7.4l-1.4.7v1.2h7.5v-1.2l-1.5-.7V9.4z"></path></g><g id="labs"><path class="labs fillColor3" d="M153.4.2h-.4l-5.7.9v1.3l1.6.7v14.7l-1.5.7v1.3h7.5v-1.3l-1.5-.7zM167 10c0-3.1-2.2-4.1-5.8-4.1-2.4 0-3.9.6-5.2 1v3.6h2.1l1-2.8h1.2c1.8 0 2.3.9 2.3 2.6V12l-2.6.4c-3 .5-4.8 1.1-4.8 3.9 0 2.3 1.5 3.8 3.9 3.8 1.7 0 3.3-.7 3.9-1.9h.1c.2 1.5 1.5 1.9 2.9 1.9 1.1 0 2.1-.3 2.6-.6v-1l-1.4-.7V10zm-4.6 7.2c-.2.3-.8.5-1.2.5-.9 0-1.7-.5-1.7-2 0-1.3.9-2 1.9-2.1l1-.1v3.7zM177.5 5.8c-1.8 0-3 .8-3.8 1.6h-.2V.3h-.4l-5.7.9v1.2l1.5.7v15.8c1.2.7 3.4 1.2 5.9 1.2 4.2 0 7.4-1.8 7.4-7.4.1-5-2.3-6.9-4.7-6.9zM175 18.5c-.8 0-1.2-.2-1.5-.5V8.8c.4-.2.9-.4 1.6-.4 1.4 0 2.4.9 2.4 4.6.1 4-.8 5.5-2.5 5.5zM190.4 11l-1.6-.3c-1.5-.3-1.9-.8-1.9-1.6s.7-1.3 1.8-1.3c.7 0 1.7.2 2 .3l.6 1.9h1.9V6.5c-1.1-.5-2.7-.7-4.3-.7-4 0-5.8 1.9-5.8 4.5 0 2 1.2 4 3.7 4.6l1.7.4c1.5.3 1.8.7 1.8 1.7 0 1.1-.9 1.4-2.2 1.4-.8 0-1.9-.1-2.2-.4l-.8-2.3h-1.9v3.6c1.3.6 3.3.9 4.8.9 4.3 0 6.1-1.9 6.1-4.8-.1-2.1-1.1-3.9-3.7-4.4z"></path></g></svg>