<?xml version="1.0" encoding="UTF-8" standalone="no"?>
<svg width="598px" height="499px" viewBox="0 0 598 499" version="1.1" xmlns="http://www.w3.org/2000/svg" xmlns:xlink="http://www.w3.org/1999/xlink">
    <!-- Generator: Sketch 39.1 (31720) - http://www.bohemiancoding.com/sketch -->
    <title>macWatch</title>
    <desc>Created with Sketch.</desc>
    <defs>
        <path d="M364.239273,383.404255 L74.2234043,383.404255 L74.2234043,19.7886067 C74.2234043,8.85858389 83.1003169,0 94.0529544,0 L364.239273,0 L619.553429,0 C630.508965,0 639.382979,8.85858389 639.382979,19.7886067 L639.382979,383.404255 L364.239273,383.404255 Z" id="path-1"></path>
        <filter x="-50%" y="-50%" width="200%" height="200%" filterUnits="objectBoundingBox" id="filter-2">
            <feOffset dx="0" dy="4" in="SourceAlpha" result="shadowOffsetOuter1"></feOffset>
            <feGaussianBlur stdDeviation="7.5" in="shadowOffsetOuter1" result="shadowBlurOuter1"></feGaussianBlur>
            <feColorMatrix values="0 0 0 0 0.580392157   0 0 0 0 0.580392157   0 0 0 0 0.580392157  0 0 0 0.5 0" type="matrix" in="shadowBlurOuter1"></feColorMatrix>
        </filter>
        <path d="M713.531915,383.404255 C713.531915,399.883383 700.476571,413.244681 684.370345,413.244681 L29.2389357,413.244681 C13.1327093,413.244681 0.0744680851,399.883383 0.0744680851,383.404255 L713.531915,383.404255 Z" id="path-3"></path>
        <filter x="-50%" y="-50%" width="200%" height="200%" filterUnits="objectBoundingBox" id="filter-4">
            <feOffset dx="2" dy="0" in="SourceAlpha" result="shadowOffsetOuter1"></feOffset>
            <feGaussianBlur stdDeviation="7.5" in="shadowOffsetOuter1" result="shadowBlurOuter1"></feGaussianBlur>
            <feColorMatrix values="0 0 0 0 0.579161352   0 0 0 0 0.579161352   0 0 0 0 0.579161352  0 0 0 0.5 0" type="matrix" in="shadowBlurOuter1"></feColorMatrix>
        </filter>
        <polygon id="path-5" points="0 344 535.5 344 535.5 0 0 0"></polygon>
        <rect id="path-7" x="0" y="0" width="170" height="100"></rect>
        <mask id="mask-8" maskContentUnits="userSpaceOnUse" maskUnits="objectBoundingBox" x="0" y="0" width="170" height="100" fill="white">
            <use xlink:href="#path-7"></use>
        </mask>
        <rect id="path-9" x="0" y="0" width="170" height="100"></rect>
        <mask id="mask-10" maskContentUnits="userSpaceOnUse" maskUnits="objectBoundingBox" x="0" y="0" width="170" height="100" fill="white">
            <use xlink:href="#path-9"></use>
        </mask>
        <ellipse id="path-11" cx="9" cy="9" rx="3" ry="3"></ellipse>
        <mask id="mask-12" maskContentUnits="userSpaceOnUse" maskUnits="objectBoundingBox" x="0" y="0" width="6" height="6" fill="white">
            <use xlink:href="#path-11"></use>
        </mask>
        <ellipse id="path-13" cx="18" cy="9" rx="3" ry="3"></ellipse>
        <mask id="mask-14" maskContentUnits="userSpaceOnUse" maskUnits="objectBoundingBox" x="0" y="0" width="6" height="6" fill="white">
            <use xlink:href="#path-13"></use>
        </mask>
        <ellipse id="path-15" cx="27" cy="9" rx="3" ry="3"></ellipse>
        <mask id="mask-16" maskContentUnits="userSpaceOnUse" maskUnits="objectBoundingBox" x="0" y="0" width="6" height="6" fill="white">
            <use xlink:href="#path-15"></use>
        </mask>
        <rect id="path-17" x="0" y="0" width="80" height="100"></rect>
        <mask id="mask-18" maskContentUnits="userSpaceOnUse" maskUnits="objectBoundingBox" x="0" y="0" width="80" height="100" fill="white">
            <use xlink:href="#path-17"></use>
        </mask>
        <rect id="path-19" x="0" y="0" width="120" height="100"></rect>
        <mask id="mask-20" maskContentUnits="userSpaceOnUse" maskUnits="objectBoundingBox" x="0" y="0" width="120" height="100" fill="white">
            <use xlink:href="#path-19"></use>
        </mask>
        <rect id="path-21" x="410" y="155" width="80" height="45"></rect>
        <mask id="mask-22" maskContentUnits="userSpaceOnUse" maskUnits="objectBoundingBox" x="0" y="0" width="80" height="45" fill="white">
            <use xlink:href="#path-21"></use>
        </mask>
        <rect id="path-23" x="410" y="210" width="80" height="45"></rect>
        <mask id="mask-24" maskContentUnits="userSpaceOnUse" maskUnits="objectBoundingBox" x="0" y="0" width="80" height="45" fill="white">
            <use xlink:href="#path-23"></use>
        </mask>
        <rect id="path-25" x="320" y="265" width="170" height="90"></rect>
        <mask id="mask-26" maskContentUnits="userSpaceOnUse" maskUnits="objectBoundingBox" x="0" y="0" width="170" height="90" fill="white">
            <use xlink:href="#path-25"></use>
        </mask>
        <rect id="path-27" x="-40" y="45" width="170" height="100"></rect>
        <mask id="mask-28" maskContentUnits="userSpaceOnUse" maskUnits="objectBoundingBox" x="0" y="0" width="170" height="100" fill="white">
            <use xlink:href="#path-27"></use>
        </mask>
        <rect id="path-29" x="140" y="265" width="170" height="21"></rect>
        <mask id="mask-30" maskContentUnits="userSpaceOnUse" maskUnits="objectBoundingBox" x="0" y="0" width="170" height="21" fill="white">
            <use xlink:href="#path-29"></use>
        </mask>
        <rect id="path-31" x="-40" y="155" width="170" height="100"></rect>
        <mask id="mask-32" maskContentUnits="userSpaceOnUse" maskUnits="objectBoundingBox" x="0" y="0" width="170" height="100" fill="white">
            <use xlink:href="#path-31"></use>
        </mask>
        <rect id="path-33" x="140" y="296" width="170" height="59"></rect>
        <mask id="mask-34" maskContentUnits="userSpaceOnUse" maskUnits="objectBoundingBox" x="0" y="0" width="170" height="59" fill="white">
            <use xlink:href="#path-33"></use>
        </mask>
        <filter x="-50%" y="-50%" width="200%" height="200%" filterUnits="objectBoundingBox" id="filter-35">
            <feOffset dx="0" dy="5" in="SourceAlpha" result="shadowOffsetOuter1"></feOffset>
            <feGaussianBlur stdDeviation="7.5" in="shadowOffsetOuter1" result="shadowBlurOuter1"></feGaussianBlur>
            <feColorMatrix values="0 0 0 0 0.598107993   0 0 0 0 0.598107993   0 0 0 0 0.598107993  0 0 0 0.5 0" type="matrix" in="shadowBlurOuter1" result="shadowMatrixOuter1"></feColorMatrix>
            <feMerge>
                <feMergeNode in="shadowMatrixOuter1"></feMergeNode>
                <feMergeNode in="SourceGraphic"></feMergeNode>
            </feMerge>
        </filter>
        <path d="M102.002526,105.285804 C102.002526,113.780541 95.1147362,120.666818 86.6181329,120.666818 L15.8184464,120.666818 C7.32184303,120.666818 0.434053302,113.780541 0.434053302,105.285804 L0.434053302,15.3812727 C0.434053302,6.8865354 7.32184303,0 15.8184464,0 L86.6181329,0 C95.1147362,0 102.002526,6.8865354 102.002526,15.3812727 L102.002526,105.285804 Z" id="path-36"></path>
    </defs>
    <g id="Page-1" stroke="none" stroke-width="1" fill="none" fill-rule="evenodd">
        <g id="1" transform="translate(0.000000, -1524.000000)">
            <g id="Group-8-Copy-2" transform="translate(0.000000, 1400.000000)">
                <g id="macWatch" transform="translate(-135.000000, 134.000000)">
                    <g id="Mac" transform="translate(0.000000, 0.977061)">
                        <g id="Fill-4">
                            <use fill="black" fill-opacity="1" filter="url(#filter-2)" xlink:href="#path-1"></use>
                            <use fill="#3D3D3D" fill-rule="evenodd" xlink:href="#path-1"></use>
                        </g>
                        <g id="Fill-6">
                            <use fill="black" fill-opacity="1" filter="url(#filter-4)" xlink:href="#path-3"></use>
                            <use fill="#E7E5E7" fill-rule="evenodd" xlink:href="#path-3"></use>
                        </g>
                        <path d="M406.989362,383.404255 C406.989362,388.898267 402.438344,393.351064 396.822999,393.351064 L317.687639,393.351064 C312.075202,393.351064 307.521277,388.898267 307.521277,383.404255 L406.989362,383.404255 Z" id="Fill-12" fill="#B3B2B2"></path>
                        <g id="Screen" transform="translate(89.599998, 19.500000)">
                            <mask id="mask-6" fill="white">
                                <use xlink:href="#path-5"></use>
                            </mask>
                            <use id="Fill-10" fill="#0D7CAD" xlink:href="#path-5"></use>
                            <g id="Group-2" mask="url(#mask-6)" stroke="#FFFFFF">
                                <g transform="translate(320.000000, 45.000000)">
                                    <use id="Rectangle-116" mask="url(#mask-8)" stroke-width="2" xlink:href="#path-7"></use>
                                    <path d="M0.497076023,0.46728972 L169.502924,99.5327103" id="Line" stroke-width="1" stroke-linecap="round"></path>
                                    <path d="M0.497076023,0.46728972 L169.502924,99.5327103" id="Line-Copy-188" stroke-width="1" stroke-linecap="round" transform="translate(85.000000, 50.000000) scale(-1, 1) translate(-85.000000, -50.000000) "></path>
                                </g>
                            </g>
                            <g id="Group-12" mask="url(#mask-6)" stroke="#FFFFFF">
                                <g transform="translate(140.000000, 45.000000)">
                                    <use id="Rectangle-116" mask="url(#mask-10)" stroke-width="2" xlink:href="#path-9"></use>
                                    <path d="M1.5,17.5 L168.5,17.5" id="Line" stroke-width="1" stroke-linecap="square"></path>
                                    <use id="Oval-53" mask="url(#mask-12)" stroke-width="2" xlink:href="#path-11"></use>
                                    <use id="Oval-53-Copy" mask="url(#mask-14)" stroke-width="2" xlink:href="#path-13"></use>
                                    <use id="Oval-53-Copy-2" mask="url(#mask-16)" stroke-width="2" xlink:href="#path-15"></use>
                                </g>
                            </g>
                            <g id="Group-9" mask="url(#mask-6)" stroke="#FFFFFF">
                                <g transform="translate(320.000000, 155.000000)">
                                    <use id="Rectangle-116" mask="url(#mask-18)" stroke-width="2" xlink:href="#path-17"></use>
                                    <path d="M0.470588235,0.5 L79.5294118,99.5" id="Line" stroke-width="1" stroke-linecap="round"></path>
                                    <path d="M0.470588235,0.5 L79.5294118,99.5" id="Line-Copy-188" stroke-width="1" stroke-linecap="round" transform="translate(40.000000, 50.000000) scale(-1, 1) translate(-40.000000, -50.000000) "></path>
                                </g>
                            </g>
                            <g id="Group-11" mask="url(#mask-6)" stroke="#FFFFFF">
                                <g transform="translate(10.000000, 265.000000)">
                                    <use id="Rectangle-116" mask="url(#mask-20)" stroke-width="2" xlink:href="#path-19"></use>
                                    <path d="M0.705882353,0.5 L119.294118,99.5" id="Line" stroke-width="1" stroke-linecap="round"></path>
                                    <path d="M0.705882353,0.5 L119.294118,99.5" id="Line-Copy-188" stroke-width="1" stroke-linecap="round" transform="translate(60.000000, 50.000000) scale(-1, 1) translate(-60.000000, -50.000000) "></path>
                                </g>
                            </g>
                            <g id="Rectangle-116" mask="url(#mask-6)" stroke-width="2" stroke="#FFFFFF">
                                <use mask="url(#mask-22)" xlink:href="#path-21"></use>
                            </g>
                            <g id="Rectangle-116" mask="url(#mask-6)" stroke-width="2" stroke="#FFFFFF">
                                <use mask="url(#mask-24)" xlink:href="#path-23"></use>
                            </g>
                            <g id="Rectangle-117-Copy" mask="url(#mask-6)" stroke-width="2" stroke="#FFFFFF">
                                <use mask="url(#mask-26)" xlink:href="#path-25"></use>
                            </g>
                            <g id="Rectangle-117-Copy-2" mask="url(#mask-6)" stroke-width="2" stroke="#FFFFFF">
                                <use mask="url(#mask-28)" xlink:href="#path-27"></use>
                            </g>
                            <g id="Group-10" mask="url(#mask-6)" stroke="#FFFFFF" stroke-linecap="square">
                                <g transform="translate(140.000000, 154.000000)">
                                    <path d="M0.5,1.5 L169.5,1.5" id="Line"></path>
                                    <path d="M0.5,9.5 L169.5,9.5" id="Line-Copy-4"></path>
                                    <path d="M0.5,17.5 L169.5,17.5" id="Line-Copy-5"></path>
                                    <path d="M0.5,25.5 L169.5,25.5" id="Line-Copy-6"></path>
                                    <path d="M0.5,33.5 L169.5,33.5" id="Line-Copy-7"></path>
                                    <path d="M0.5,41.5 L169.5,41.5" id="Line-Copy-8"></path>
                                    <path d="M0.5,49.5 L169.5,49.5" id="Line-Copy-9"></path>
                                </g>
                            </g>
                            <g id="Rectangle-124-Copy" mask="url(#mask-6)" stroke-width="2" stroke="#FFFFFF">
                                <use mask="url(#mask-30)" xlink:href="#path-29"></use>
                            </g>
                            <g id="Rectangle-124-Copy-6" mask="url(#mask-6)" stroke-width="2" stroke="#FFFFFF">
                                <use mask="url(#mask-32)" xlink:href="#path-31"></use>
                            </g>
                            <g id="Rectangle-124-Copy-2" mask="url(#mask-6)" stroke-width="2" stroke="#FFFFFF">
                                <use mask="url(#mask-34)" xlink:href="#path-33"></use>
                            </g>
                            <g id="Group-13" mask="url(#mask-6)" stroke-linecap="square" stroke="#FFFFFF" stroke-width="0.5">
                                <g transform="translate(30.000000, 21.000000)" id="Line">
                                    <path d="M0.897548616,0.25 L459.535233,0.25"></path>
                                </g>
                            </g>
                        </g>
                        <path d="M365.392209,5.42553191 C367.890105,5.42553191 369.914894,7.44813416 369.914894,9.94399152 C369.914894,12.4426659 367.890105,14.4680851 365.392209,14.4680851 C362.894313,14.4680851 360.87234,12.4426659 360.87234,9.94399152 C360.87234,7.44813416 362.894313,5.42553191 365.392209,5.42553191" id="camera" fill="#5D5D5D"></path>
                    </g>
                    <g id="iWatch" filter="url(#filter-35)" transform="translate(602.612484, 257.022939)">
                        <path d="M55.5588226,51.2182896 L98.9641528,41.9038343 C93.4372921,38.471338 91.2425211,31.8827188 90.6372996,26.640389 C90.032078,21.3980591 89.4271157,13.4061745 88.9951109,9.3670488 C88.5631061,5.32792311 86.5747432,3.69520575 83.6360216,2.75007045 C80.6973,1.80493514 67.8183196,0 55.9332613,0 C55.8082756,0 55.6838084,0.00128905524 55.5588226,0.00180467733 C55.4338368,0.00128905524 55.3093697,0 55.1843839,0 C43.2993256,0 30.4203452,1.80493514 27.4816236,2.75007045 C24.542902,3.69520575 22.5545391,5.32792311 22.1225343,9.3670488 C21.6905295,13.4061745 21.0855673,21.3980591 20.4803457,26.640389 C19.8751241,31.8827188 17.6803531,38.471338 12.1534924,41.9038343 L55.5588226,51.2182896 Z" id="Fill-3" fill="#3D3D3D"></path>
                        <path d="M55.5588226,160.599722 L12.1534924,169.914177 C17.6803531,173.346673 19.8751241,179.935292 20.4803457,185.177622 C21.0855673,190.419952 21.6905295,198.411837 22.1225343,202.450962 C22.5545391,206.490088 24.542902,208.122805 27.4816236,209.067941 C30.4203452,210.013076 43.2993256,211.818011 55.1843839,211.818011 C55.3093697,211.818011 55.4338368,211.816722 55.5588226,211.816207 C55.6838084,211.816722 55.8082756,211.818011 55.9332613,211.818011 C67.8183196,211.818011 80.6973,210.013076 83.6360216,209.067941 C86.5747432,208.122805 88.5631061,206.490088 88.9951109,202.450962 C89.4271157,198.411837 90.032078,190.419952 90.6372996,185.177622 C91.2425211,179.935292 93.4372921,173.346673 98.9641528,169.914177 L55.5588226,160.599722 Z" id="Fill-5" fill="#3D3D3D"></path>
                        <path d="M110.249539,151.350584 C110.249539,162.691529 101.110258,171.885107 89.8362914,171.885107 L20.4132473,171.885107 C9.13928111,171.885107 -5.1159077e-13,162.691529 -5.1159077e-13,151.350584 L-5.1159077e-13,61.3355337 C-5.1159077e-13,49.9945884 9.13928111,40.8010104 20.4132473,40.8010104 L89.8362914,40.8010104 C101.110258,40.8010104 110.249539,49.9945884 110.249539,61.3355337 L110.249539,151.350584 Z" id="Fill-7" fill="#E9E9E9"></path>
                        <path d="M115.458178,90.6837115 C115.458178,91.9006155 114.61419,92.8874066 113.573272,92.8874066 L110.97071,92.8874066 C109.929792,92.8874066 108.513325,89.6264354 108.513325,84.7893972 L108.513325,77.8357337 C108.513325,74.7693739 109.929792,71.1847415 110.97071,71.1847415 L113.573272,71.1847415 C114.61419,71.1847415 115.458178,72.1712734 115.458178,73.3884366 L115.458178,90.6837115 Z" id="Fill-11" fill="#E9E9E9"></path>
                        <g id="Screen" transform="translate(4.774586, 46.009650)">
                            <mask id="mask-37" fill="white">
                                <use xlink:href="#path-36"></use>
                            </mask>
                            <use id="Fill-9" fill="#333333" xlink:href="#path-36"></use>
                            <ellipse id="Oval-13-Copy-10" fill="#FFFFFF" mask="url(#mask-37)" cx="78.6416963" cy="60.2810566" rx="11.2301815" ry="11.2301815"></ellipse>
                            <ellipse id="Oval-13-Copy-11" fill="#0D7CAD" mask="url(#mask-37)" cx="64.6187975" cy="36.7940854" rx="11.2301815" ry="11.2301815"></ellipse>
                            <ellipse id="Oval-13-Copy-16" fill="#FFBD2E" mask="url(#mask-37)" cx="51.1351593" cy="13.4877263" rx="9.91973927" ry="9.91973927"></ellipse>
                            <ellipse id="Oval-13-Copy-18" fill="#0D7CAD" mask="url(#mask-37)" cx="25.7906313" cy="16.7026292" rx="8.42849922" ry="8.42849922"></ellipse>
                            <ellipse id="Oval-13-Copy-19" fill="#B5DBEF" mask="url(#mask-37)" cx="14.0911271" cy="38.5597584" rx="8.42849922" ry="8.42849922"></ellipse>
                            <ellipse id="Oval-13-Copy-20" fill="#FFFFFF" mask="url(#mask-37)" cx="14.0911271" cy="82.1039289" rx="8.42849922" ry="8.42849922"></ellipse>
                            <ellipse id="Oval-13-Copy-21" fill="#FFBD2E" mask="url(#mask-37)" cx="25.7906313" cy="104.021407" rx="8.42849922" ry="8.42849922"></ellipse>
                            <ellipse id="Oval-13-Copy-22" fill="#FFFFFF" mask="url(#mask-37)" cx="76.6459479" cy="104.021407" rx="8.42849922" ry="8.42849922"></ellipse>
                            <ellipse id="Oval-13-Copy-23" fill="#B5DBEF" mask="url(#mask-37)" cx="87.9504668" cy="82.1039289" rx="8.42849922" ry="8.42849922"></ellipse>
                            <ellipse id="Oval-13-Copy-26" fill="#0D7CAD" mask="url(#mask-37)" cx="95.5848218" cy="60.3318436" rx="2.93455548" ry="2.93455548"></ellipse>
                            <ellipse id="Oval-13-Copy-27" fill="#B5DBEF" mask="url(#mask-37)" cx="6.63882687" cy="60.3318436" rx="2.93455548" ry="2.93455548"></ellipse>
                            <ellipse id="Oval-13-Copy-24" fill="#FFBD2E" mask="url(#mask-37)" cx="88.2756651" cy="38.3330852" rx="8.42849922" ry="8.42849922"></ellipse>
                            <ellipse id="Oval-13-Copy-25" fill="#FFFFFF" mask="url(#mask-37)" cx="76.6459479" cy="16.7026292" rx="8.42849922" ry="8.42849922"></ellipse>
                            <ellipse id="Oval-13-Copy-17" fill="#B5DBEF" mask="url(#mask-37)" cx="51.1349892" cy="107.23631" rx="9.91973927" ry="9.91973927"></ellipse>
                            <ellipse id="Oval-13-Copy-12" fill="#FFFFFF" mask="url(#mask-37)" cx="37.7479947" cy="36.7940854" rx="11.2301815" ry="11.2301815"></ellipse>
                            <ellipse id="Oval-13-Copy-13" fill="#FFBD2E" mask="url(#mask-37)" cx="23.628282" cy="60.3318436" rx="11.2301815" ry="11.2301815"></ellipse>
                            <ellipse id="Oval-13-Copy-14" fill="#0D7CAD" mask="url(#mask-37)" cx="37.7479947" cy="83.9299509" rx="11.2301815" ry="11.2301815"></ellipse>
                            <ellipse id="Oval-13-Copy-15" fill="#FFBD2E" mask="url(#mask-37)" cx="64.6187975" cy="83.9299509" rx="11.2301815" ry="11.2301815"></ellipse>
                            <path d="M51.1349892,73.053187 C58.1607931,73.053187 63.8563325,67.3576476 63.8563325,60.3318436 C63.8563325,53.3060397 58.1607931,47.6105003 51.1349892,47.6105003 C44.1091852,47.6105003 38.4136458,53.3060397 38.4136458,60.3318436 C38.4136458,67.3576476 44.1091852,73.053187 51.1349892,73.053187 Z" id="centre-circle" fill="#B5DBEF" mask="url(#mask-37)"></path>
                        </g>
                    </g>
                </g>
            </g>
        </g>
    </g>
</svg>