<?xml version="1.0" encoding="UTF-8" standalone="no"?>
<svg width="192px" height="393px" viewBox="0 0 192 393" version="1.1" xmlns="http://www.w3.org/2000/svg" xmlns:xlink="http://www.w3.org/1999/xlink">
    <!-- Generator: Sketch 41.1 (35376) - http://www.bohemiancoding.com/sketch -->
    <title>PhoneTwo</title>
    <desc>Created with Sketch.</desc>
    <defs>
        <rect id="path-1" x="0.445842564" y="0.488305191" width="189.493912" height="390.205671" rx="22"></rect>
        <mask id="mask-2" maskContentUnits="userSpaceOnUse" maskUnits="objectBoundingBox" x="-1" y="-1" width="191.493912" height="392.205671">
            <rect x="-0.554157436" y="-0.511694809" width="191.493912" height="392.205671" fill="white"></rect>
            <use xlink:href="#path-1" fill="black"></use>
        </mask>
        <rect id="path-3" x="0.605541227" y="0.189074296" width="173.733834" height="303.387884"></rect>
        <mask id="mask-4" maskContentUnits="userSpaceOnUse" maskUnits="objectBoundingBox" x="0" y="0" width="173.733834" height="303.387884" fill="white">
            <use xlink:href="#path-3"></use>
        </mask>
        <mask id="mask-6" maskContentUnits="userSpaceOnUse" maskUnits="objectBoundingBox" x="0" y="0" width="173.733834" height="303.387884" fill="white">
            <use xlink:href="#path-3"></use>
        </mask>
        <rect id="path-7" x="9.45611121" y="10.4267363" width="96.8605497" height="4.70196843"></rect>
        <mask id="mask-8" maskContentUnits="userSpaceOnUse" maskUnits="objectBoundingBox" x="0" y="0" width="96.8605497" height="4.70196843" fill="white">
            <use xlink:href="#path-7"></use>
        </mask>
        <rect id="path-9" x="9.45611121" y="19.8306732" width="64.8871644" height="4.70196843"></rect>
        <mask id="mask-10" maskContentUnits="userSpaceOnUse" maskUnits="objectBoundingBox" x="0" y="0" width="64.8871644" height="4.70196843" fill="white">
            <use xlink:href="#path-9"></use>
        </mask>
        <rect id="path-11" x="9.45611121" y="38.6385469" width="48.4302749" height="4.70196843"></rect>
        <mask id="mask-12" maskContentUnits="userSpaceOnUse" maskUnits="objectBoundingBox" x="0" y="0" width="48.4302749" height="4.70196843" fill="white">
            <use xlink:href="#path-11"></use>
        </mask>
        <rect id="path-13" x="9.45611121" y="29.23461" width="79.9334634" height="4.70196843"></rect>
        <mask id="mask-14" maskContentUnits="userSpaceOnUse" maskUnits="objectBoundingBox" x="0" y="0" width="79.9334634" height="4.70196843" fill="white">
            <use xlink:href="#path-13"></use>
        </mask>
        <rect id="path-15" x="81.905617" y="20.0801701" width="36.4911856" height="4.80147179" rx="2.4007359"></rect>
        <mask id="mask-16" maskContentUnits="userSpaceOnUse" maskUnits="objectBoundingBox" x="0" y="0" width="36.4911856" height="4.80147179" fill="white">
            <use xlink:href="#path-15"></use>
        </mask>
    </defs>
    <g id="Page-1" stroke="none" stroke-width="1" fill="none" fill-rule="evenodd">
        <g id="1" transform="translate(-914.000000, -854.000000)">
            <g id="Group-15-Copy-3" transform="translate(-1.000000, 700.000000)">
                <g id="Phones" transform="translate(706.000000, 155.000000)">
                    <g id="PhoneTwo" transform="translate(210.000000, 0.000000)">
                        <use id="Rectangle-480" stroke="#FFFFFF" mask="url(#mask-2)" stroke-width="2" xlink:href="#path-1"></use>
                        <path d="M95.1951752,384.161924 C103.036554,384.161924 109.393248,377.80523 109.393248,369.963851 C109.393248,362.122472 103.036554,355.765779 95.1951752,355.765779 C87.3537963,355.765779 80.9971028,362.122472 80.9971028,369.963851 C80.9971028,377.80523 87.3537963,384.161924 95.1951752,384.161924 Z" id="Oval-213" stroke="#FFFFFF"></path>
                        <g id="Screen" transform="translate(7.692799, 43.381200)">
                            <mask id="mask-5" fill="white">
                                <use xlink:href="#path-3"></use>
                            </mask>
                            <g id="Rectangle-111-Copy-4" stroke="#FFFFFF" mask="url(#mask-4)" stroke-width="2">
                                <use mask="url(#mask-6)" xlink:href="#path-3"></use>
                            </g>
                            <path d="M15.2021407,358.625152 C117.268702,358.625152 200.009997,333.295157 200.009997,302.049024 C200.009997,287.927995 172.719086,222.576018 145.040662,222.57602 C117.362237,222.576022 111.863822,252.763128 82.5556001,252.763131 C40.4355964,252.763134 47.0770258,189.063041 9.23646863,189.063041 C-27.8508541,189.063041 -24.7027488,246.450832 -50.735267,246.293893 C-81.3857762,246.109114 -75.681288,234.412586 -104.921799,234.412585 C-134.162311,234.412585 -169.605716,283.415375 -169.605716,302.049024 C-169.605716,333.295157 -86.8644202,358.625152 15.2021407,358.625152 Z" id="Oval-5-Copy" stroke="#FFFFFF" mask="url(#mask-5)"></path>
                            <g id="Rectangle-124" mask="url(#mask-5)" stroke-width="2" stroke="#FFFFFF">
                                <use mask="url(#mask-8)" xlink:href="#path-7"></use>
                            </g>
                            <g id="Rectangle-124-Copy-3" mask="url(#mask-5)" stroke-width="2" stroke="#FFFFFF">
                                <use mask="url(#mask-10)" xlink:href="#path-9"></use>
                            </g>
                            <g id="Rectangle-124-Copy-7" mask="url(#mask-5)" stroke-width="2" stroke="#FFFFFF">
                                <use mask="url(#mask-12)" xlink:href="#path-11"></use>
                            </g>
                            <g id="Rectangle-124-Copy-4" mask="url(#mask-5)" stroke-width="2" stroke="#FFFFFF">
                                <use mask="url(#mask-14)" xlink:href="#path-13"></use>
                            </g>
                        </g>
                        <use id="Rectangle-480" stroke="#FFFFFF" mask="url(#mask-16)" stroke-width="2" xlink:href="#path-15"></use>
                        <ellipse id="Oval-212" stroke="#FFFFFF" cx="74.3895306" cy="22.480906" rx="2.4007359" ry="2.4007359"></ellipse>
                    </g>
                </g>
            </g>
        </g>
    </g>
</svg>