<?xml version="1.0" encoding="UTF-8" standalone="no"?>
<svg width="60px" height="53px" viewBox="0 0 60 53" version="1.1" xmlns="http://www.w3.org/2000/svg" xmlns:xlink="http://www.w3.org/1999/xlink">
    <!-- Generator: Sketch 39.1 (31720) - http://www.bohemiancoding.com/sketch -->
    <title></title>
    <desc>Created with Sketch.</desc>
    <defs></defs>
    <g id="Page-1" stroke="none" stroke-width="1" fill="none" fill-rule="evenodd">
        <g id="4-1" transform="translate(-1099.000000, -1912.000000)" fill="#D3D3D3">
            <g id="Group" transform="translate(0.000000, 1881.000000)">
                <path d="M1159,58.5454545 C1159,62.7045455 1158.18182,66.6590909 1156.61364,70.2727273 C1154.97727,73.9545455 1152.79545,77.1590909 1150,79.8863636 C1150.47727,78.8636364 1150.88636,77.7045455 1151.22727,76.4772727 C1151.5,75.3181818 1151.63636,74.0227273 1151.63636,72.7272727 C1151.63636,68.6363636 1150.54545,65.6363636 1148.29545,63.7954545 C1146.04545,61.9545455 1142.63636,61 1138.06818,61 L1123.27273,61 C1122.52273,61 1121.84091,60.7272727 1121.22727,60.1818182 C1120.61364,59.6363636 1120.34091,59.0227273 1120.34091,58.2727273 C1120.34091,57.7954545 1120.54545,57.25 1120.88636,56.7045455 C1121.22727,56.1590909 1121.70455,55.6818182 1122.25,55.2727273 C1123.34091,55.6136364 1124.43182,55.8863636 1125.45455,55.9545455 C1126.47727,56.0227273 1127.70455,56.0909091 1129,56.0909091 C1131.65909,56.0909091 1134.04545,55.75 1136.22727,55.1363636 C1138.40909,54.5227273 1140.25,53.5681818 1141.81818,52.3409091 C1143.38636,51.1818182 1144.54545,49.6818182 1145.43182,47.9090909 C1146.31818,46.2045455 1146.72727,44.1590909 1146.72727,41.9090909 C1146.65909,39.3863636 1146.11364,37.2045455 1145.09091,35.3636364 C1144.06818,33.5227273 1142.70455,32.0909091 1140.86364,31 C1143.52273,32.1590909 1145.90909,33.5909091 1148.15909,35.4318182 C1150.40909,37.2727273 1152.31818,39.3863636 1153.95455,41.7727273 C1155.52273,44.1590909 1156.81818,46.8181818 1157.70455,49.6136364 C1158.59091,52.4772727 1159,55.4772727 1159,58.5454545 L1159,58.5454545 Z M1116.45455,31.2045455 C1114.75,32.4318182 1113.45455,33.9318182 1112.5,35.7727273 C1111.54545,37.6136364 1111.06818,39.6590909 1111.06818,41.9772727 C1111.06818,44.7045455 1111.68182,47.0227273 1112.97727,49 C1114.20455,50.9772727 1115.84091,52.5454545 1117.88636,53.7045455 L1118.09091,53.8409091 C1117.47727,54.25 1116.79545,54.7954545 1116.04545,55.4090909 C1115.22727,56.0227273 1114.47727,56.7727273 1113.72727,57.5909091 C1112.97727,58.4772727 1112.29545,59.3636364 1111.81818,60.3181818 C1111.27273,61.3409091 1111,62.3636364 1111,63.4545455 C1111,65.0909091 1111.54545,66.5909091 1112.63636,67.9545455 C1113.65909,69.3863636 1115.29545,70.3409091 1117.54545,70.8181818 C1116.38636,71.0227273 1115.15909,71.3636364 1114,71.7045455 C1112.84091,72.1136364 1111.75,72.6590909 1110.86364,73.2727273 C1109.90909,73.9545455 1109.15909,74.7727273 1108.54545,75.6590909 C1107.93182,76.6136364 1107.65909,77.7727273 1107.65909,79.0681818 L1107.65909,79.4772727 C1105,76.75 1102.95455,73.6136364 1101.38636,70.0681818 C1099.81818,66.5227273 1099,62.7045455 1099,58.5454545 C1099,55.4772727 1099.40909,52.6136364 1100.29545,49.8181818 C1101.18182,47.0227273 1102.34091,44.5 1103.90909,42.1136364 C1105.47727,39.7272727 1107.31818,37.6136364 1109.43182,35.7727273 C1111.54545,33.9318182 1113.93182,32.4318182 1116.45455,31.2045455 L1116.45455,31.2045455 Z M1134.38636,41.9772727 C1134.38636,44.0227273 1134.25,45.6590909 1133.97727,46.8181818 C1133.63636,48.0454545 1133.29545,48.9318182 1132.81818,49.5454545 C1132.34091,50.1590909 1131.72727,50.5681818 1131.11364,50.7727273 C1130.43182,50.9772727 1129.75,51.0454545 1129,51.0454545 C1128.25,51.0454545 1127.56818,50.9772727 1126.95455,50.7727273 C1126.27273,50.6363636 1125.72727,50.2272727 1125.25,49.6136364 C1124.77273,49 1124.36364,48.1136364 1124.09091,46.8863636 C1123.75,45.7272727 1123.61364,44.0909091 1123.61364,41.9772727 C1123.61364,39.8636364 1123.75,38.2272727 1124.09091,36.9318182 C1124.36364,35.7045455 1124.77273,34.75 1125.25,34.0681818 C1125.72727,33.4545455 1126.27273,32.9772727 1126.95455,32.7727273 C1127.56818,32.5681818 1128.25,32.5 1129,32.5 C1129.75,32.5 1130.5,32.6363636 1131.18182,32.8409091 C1131.79545,33.0454545 1132.40909,33.5227273 1132.88636,34.1363636 C1133.36364,34.8181818 1133.70455,35.7727273 1133.97727,37 C1134.25,38.2954545 1134.38636,39.9318182 1134.38636,41.9772727 L1134.38636,41.9772727 Z M1134.72727,73.2727273 C1136.56818,73.2727273 1138,73.6818182 1139.02273,74.5681818 C1140.04545,75.4545455 1140.52273,76.5454545 1140.52273,77.9772727 C1140.52273,78.7954545 1140.38636,79.5454545 1140.04545,80.2272727 C1139.70455,80.9772727 1139.09091,81.5909091 1138.20455,82.0681818 C1137.31818,82.5454545 1136.22727,82.9545455 1134.79545,83.2272727 C1133.36364,83.5681818 1131.52273,83.7045455 1129.27273,83.7045455 C1127.29545,83.7045455 1125.65909,83.5681818 1124.36364,83.2272727 C1123.06818,82.8863636 1121.97727,82.4772727 1121.15909,82 C1120.34091,81.5227273 1119.72727,80.9090909 1119.38636,80.2272727 C1119.04545,79.5454545 1118.84091,78.8636364 1118.84091,78.1136364 C1118.84091,77.5681818 1118.90909,77.0227273 1119.04545,76.4090909 C1119.18182,75.8636364 1119.45455,75.3181818 1119.79545,74.8409091 C1120.13636,74.3636364 1120.68182,74.0227273 1121.29545,73.6818182 C1121.90909,73.4090909 1122.65909,73.2727273 1123.61364,73.2727273 L1134.72727,73.2727273 Z" id=""></path>
            </g>
        </g>
    </g>
</svg>