<svg xmlns="http://www.w3.org/2000/svg" width="808" height="118" viewBox="0 0 808 118">
  <g fill="none" fill-rule="evenodd">
    <path fill="#AAD8F1" d="M384.978,76.085 C384.978,94.119 373.05,102.852 360.057,102.852 C345.857,102.852 335.42,93.835 335.42,76.653 C335.42,58.477 347.49,49.957 360.412,49.957 C374.541,49.957 384.978,58.832 384.978,76.085 Z M360.199,51.235 C354.235,51.235 351.679,56.702 351.679,76.227 C351.679,96.462 353.951,101.574 360.199,101.574 C366.163,101.574 368.577,96.32 368.577,76.724 C368.577,56.134 366.163,51.235 360.199,51.235 Z M427.998,81.41 C427.998,96.675 419.62,102.923 409.893,102.923 C406.982,102.923 404.497,102.497 403.361,102.071 L403.361,114.993 L407.976,115.987 L407.976,117.194 L386.321,117.194 L386.321,115.987 L390.368,114.993 L390.368,67.565 L386.108,65.861 L386.108,64.654 L401.799,62.382 L403.29,62.524 L403.29,66.997 L403.716,66.997 C405.704,64.654 409.396,62.169 414.65,62.169 C422.105,62.169 427.998,67.281 427.998,81.41 Z M414.437,82.83 C414.437,70.973 411.881,67.565 407.479,67.565 C405.846,67.565 404.426,67.92 403.361,68.346 L403.361,99.728 C404.284,100.438 405.491,101.077 407.266,101.077 C411.739,101.077 414.437,96.462 414.437,82.83 Z M466.119,81.197 L442.831,81.197 C443.328,90.782 446.381,96.675 456.321,96.675 C459.587,96.675 462.356,96.249 464.983,95.113 L464.983,96.249 C462.782,99.586 457.386,103.065 449.647,103.065 C436.512,103.065 429.767,95.113 429.767,82.404 C429.767,69.979 437.151,62.24 449.079,62.24 C461.078,62.24 466.119,68.63 466.119,80.203 L466.119,81.197 Z M448.795,63.589 C445.103,63.589 442.831,68.559 442.831,79.777 L453.836,79.28 C453.836,67.068 452.203,63.589 448.795,63.589 Z M468.03,100.793 L472.077,99.657 L472.077,67.565 L467.817,65.861 L467.817,64.654 L483.295,62.382 L484.857,62.524 L484.857,67.494 L485.283,67.494 C488.62,64.086 493.59,62.169 498.489,62.169 C505.234,62.169 508.216,65.364 508.216,72.464 L508.216,99.657 L512.263,100.793 L512.263,102 L491.673,102 L491.673,100.793 L495.294,99.87 L495.294,73.174 C495.294,69.34 493.59,67.636 490.253,67.636 C488.194,67.636 486.561,68.133 485.07,68.914 L485.07,99.87 L488.62,100.793 L488.62,102 L468.03,102 L468.03,100.793 Z M538.442,50.809 C552.926,50.809 559.032,55.992 559.032,66.5 C559.032,77.789 551.222,82.83 539.791,82.83 C537.448,82.83 535.815,82.546 534.04,82.191 L534.04,99.799 L539.72,100.793 L539.72,102 L514.231,102 L514.231,100.793 L519.059,99.728 L519.059,53.081 L514.231,52.016 L514.231,50.809 L538.442,50.809 Z M537.235,81.055 C541.85,81.055 544.122,77.363 544.122,66.642 C544.122,55.566 541.779,52.158 537.022,52.158 L534.04,52.158 L534.04,80.771 C535.105,80.984 536.099,81.055 537.235,81.055 Z M558.898,48.182 L574.66,45.91 L576.222,46.123 L576.222,99.657 L580.269,100.793 L580.269,102 L559.182,102 L559.182,100.793 L563.229,99.657 L563.229,51.022 L558.898,49.389 L558.898,48.182 Z M593.398,80.771 L601.918,79.138 L601.918,73.955 C601.918,66.074 600.214,63.518 595.883,63.518 C595.386,63.518 594.96,63.589 594.463,63.66 L584.878,76.653 L583.671,76.653 L583.955,64.583 C587.647,63.447 592.262,62.169 598.368,62.169 C608.876,62.169 614.982,65.08 614.982,73.884 L614.982,99.16 L618.745,100.154 L618.745,101.148 C617.254,102.071 614.272,102.923 611.006,102.923 C605.823,102.923 603.338,101.219 602.202,98.379 L601.847,98.379 C599.646,101.361 596.522,103.065 591.623,103.065 C585.375,103.065 581.115,99.16 581.115,92.415 C581.115,85.883 585.162,82.333 593.398,80.771 Z M598.652,97.953 C600.285,97.953 601.208,97.456 601.918,96.604 L601.918,80.984 L599.291,81.197 C595.173,81.552 593.682,84.179 593.682,90.001 C593.682,96.32 595.741,97.953 598.652,97.953 Z M623.851,65.79 L618.313,65.79 L618.313,64.512 L623.851,63.092 L623.851,56.134 L636.773,54.075 L636.773,63.092 L645.364,63.092 L645.364,65.79 L636.773,65.79 L636.773,91.634 C636.773,95.61 637.98,97.243 642.24,97.243 C643.589,97.243 644.938,97.101 645.79,96.888 L645.79,98.095 C643.518,100.509 639.613,102.781 634.998,102.781 C627.614,102.781 623.851,99.373 623.851,90.995 L623.851,65.79 Z M663.605,99.657 L668.646,100.793 L668.646,102 L646.494,102 L646.494,100.793 L650.612,99.657 L650.612,65.79 L646.281,65.79 L646.281,64.512 L650.612,63.092 L650.612,59.116 C650.612,49.46 657.712,45.839 666.019,45.839 C669.356,45.839 671.699,45.981 675.391,46.549 L675.604,58.122 L674.397,58.122 L667.51,47.188 C664.741,47.188 663.605,49.247 663.605,56.063 L663.605,63.092 L670.776,63.092 L670.776,65.79 L663.605,65.79 L663.605,99.657 Z M691.502,103.065 C679.645,103.065 671.551,95.042 671.551,82.404 C671.551,69.908 679.503,62.169 691.431,62.169 C703.359,62.169 711.453,69.908 711.453,82.475 C711.453,95.113 703.501,103.065 691.502,103.065 Z M691.502,63.447 C687.597,63.447 685.538,67.21 685.538,82.475 C685.538,97.811 687.597,101.787 691.573,101.787 C695.478,101.787 697.466,97.74 697.466,82.404 C697.466,67.139 695.549,63.447 691.502,63.447 Z M712.441,64.654 L728.132,62.382 L729.41,62.524 L729.41,73.6 L729.765,73.6 C731.753,65.151 735.019,61.956 739.421,61.956 C740.131,61.956 740.912,62.027 741.338,62.24 L741.338,73.955 C740.628,73.742 739.35,73.671 738.143,73.671 C734.593,73.671 731.966,74.026 729.694,74.949 L729.694,99.728 L734.948,100.793 L734.948,102 L712.654,102 L712.654,100.793 L716.701,99.728 L716.701,67.565 L712.441,65.861 L712.441,64.654 Z M742.823,100.793 L746.87,99.728 L746.87,67.565 L742.61,65.861 L742.61,64.654 L758.017,62.382 L759.579,62.524 L759.579,67.636 L760.005,67.636 C763.342,64.228 767.034,62.169 772.075,62.169 C776.548,62.169 779.317,63.589 780.808,67.707 L781.092,67.707 C784.571,64.157 788.476,62.169 793.517,62.169 C799.907,62.169 803.386,65.435 803.386,72.535 L803.386,99.728 L807.504,100.793 L807.504,102 L787.482,102 L787.482,100.793 L790.677,99.728 L790.677,72.748 C790.677,69.198 789.044,67.778 785.849,67.778 C784.287,67.778 782.725,68.275 781.447,68.985 L781.447,99.728 L784.642,100.793 L784.642,102 L765.756,102 L765.756,100.793 L769.022,99.728 L769.022,72.748 C769.022,69.198 767.602,67.778 764.265,67.778 C762.49,67.778 761.07,68.346 759.792,69.056 L759.792,99.728 L762.916,100.793 L762.916,102 L742.823,102 L742.823,100.793 Z"/>
    <polygon fill="#FFF" fill-rule="nonzero" points="72.381 55.621 77.92 52.738 77.92 9.17 73.732 9.17 63.493 22.755 62.342 22.755 62.988 7.617 107.375 7.617 108.02 22.755 106.798 22.755 96.772 9.17 92.477 9.17 92.477 52.644 98.053 55.587 98.053 57.056 72.381 57.056"/>
    <path fill="#FFF" fill-rule="nonzero" d="M113.322 53.693L113.322 5.418 109.019 3.697 109.019 2.798 124.587 0 126.229 0 126.229 22.842 126.659 22.477C130.101 19.465 135.048 17.529 139.996 17.529 146.809 17.529 149.82 21.374 149.82 28.546L149.82 53.693 153.459 55.675 153.461 57.138 133.113 57.138 133.113 55.683 136.77 53.694 136.77 28.464C136.77 24.52 135.048 22.943 131.822 22.943 129.671 22.943 127.816 23.617 126.444 24.719L126.444 53.762 130.029 55.742 130.029 57.138 109.668 57.138 109.668 55.75 113.322 53.693zM165.513 38.869C165.935 46.848 169.509 53.023 177.982 53.023 182.076 53.023 184.984 51.125 187.724 49.68L187.724 51.251C185.607 54.145 180.24 58.214 172.756 58.214 159.625 58.214 152.918 50.914 152.918 38.276 152.918 25.922 160.261 18.228 172.121 18.228 183.276 18.228 189.065 23.804 189.065 38.489L189.065 38.868 165.513 38.868 165.513 38.869zM165.3 37.031L176.851 36.325C176.851 26.44 175.158 19.88 171.769 19.88 168.168 19.879 165.3 27.5 165.3 37.031zM0 76.391C0 55.379 13.907 47.898 29.401 47.898 35.976 47.898 42.174 48.956 45.65 50.392L45.953 65.055 44.475 65.055 35.379 50.867C33.821 50.198 32.344 49.936 29.623 49.936 21.384 49.936 17.176 59.451 17.308 75.054 17.465 93.723 20.709 102.196 28.267 102.196 30.232 102.196 31.744 101.893 32.802 101.44L32.802 81.454 27.814 78.596 27.814 76.92 51.925 76.92 51.925 78.705 47.01 81.454 47.01 101.182C42.93 102.77 36.052 104.281 28.796 104.281 11.186 104.28 0 96.118 0 76.391M50.87 66.585L50.87 65.373 67.089 62.514 68.866 62.662 68.866 94.613C68.866 98.465 70.718 99.648 73.828 99.648 75.827 99.648 77.638 98.887 79.086 97.166L79.086 68.51 74.642 66.585 74.642 65.326 90.861 62.467 92.491 62.614 92.491 99.238 96.86 101.073 96.86 102.238 80.863 104.205 79.234 104.057 79.234 99.245 78.789 99.245C75.827 101.984 71.68 104.354 66.644 104.354 58.868 104.354 55.313 99.762 55.313 92.801L55.313 68.51 50.87 66.585zM154.449 62.446L155.782 62.593 155.778 74.421 156.148 74.421C157.88 65.749 161.702 62.514 166.368 62.514 167.109 62.514 167.923 62.587 168.367 62.812L168.367 74.912C167.626 74.69 166.294 74.616 165.035 74.616 161.332 74.616 158.61 75.285 156.222 76.377L156.226 99.755 159.913 101.801 159.914 103.319 138.887 103.319 138.887 101.816 142.674 99.76 142.674 67.862 138.23 66.537 138.23 65.454 154.449 62.446zM196.163 63.443L196.163 50.967 191.72 49.411 191.72 48.412 208.087 45.403 209.642 45.626 209.642 99.222 214.16 100.862 214.16 102.243 198.015 104.421 196.757 104.273 196.757 99.838 196.386 99.838C194.017 102.206 190.757 104.355 185.649 104.355 176.836 104.355 170.392 97.616 170.392 83.842 170.392 69.324 177.871 62.185 189.203 62.185 192.46 62.184 194.904 62.777 196.163 63.443M196.14 97.758L196.14 65.72C195.104 65.054 194.354 64.231 191.667 64.324 187.29 64.479 184.587 71.088 184.587 82.863 184.587 93.452 186.53 99.372 192.363 99.177 193.992 99.123 195.326 98.54 196.14 97.758M232.846 62.409L234.253 62.558 234.253 99.755 237.95 101.801 237.952 103.318 216.925 103.318 216.925 101.814 220.7 99.759 220.7 68.436 216.182 66.659 216.182 65.418 232.846 62.409zM234.328 52.366C234.328 56.292 230.995 59.254 227.143 59.254 223.145 59.254 220.034 56.292 220.034 52.366 220.034 48.441 223.145 45.404 227.143 45.404 230.995 45.404 234.328 48.441 234.328 52.366zM283.532 99.759L283.532 68.092 279.089 66.537 279.089 65.001 295.234 61.993 296.863 62.14 296.863 66.88 297.307 66.88C300.788 63.77 305.973 61.77 311.081 61.77 318.118 61.77 321.227 65.102 321.227 72.508L321.227 99.696 324.998 101.799 324.998 103.316 303.972 103.316 303.972 101.813 307.748 99.758 307.748 73.25C307.748 69.176 305.972 67.548 302.639 67.548 300.491 67.548 298.72 68.092 297.084 69.315L297.084 99.748 300.787 101.801 300.787 103.318 279.752 103.318 279.752 101.815 283.532 99.759zM259.661 79.857L259.661 74.546C259.661 66.543 257.916 63.924 252.968 63.924 252.388 63.924 251.878 63.997 251.295 64.07L242.492 76.001 241.257 76.001 241.257 65.017C245.039 63.853 249.767 62.47 256.024 62.47 266.792 62.47 273.048 65.453 273.048 74.474L273.048 100.373 276.903 101.392 276.903 102.41C275.375 103.356 272.319 104.229 268.973 104.229 263.662 104.229 261.116 102.483 259.952 99.573L259.589 99.573C257.333 102.628 254.132 104.375 249.113 104.375 242.711 104.375 238.346 100.374 238.346 93.462 238.346 86.77 242.492 83.131 250.932 81.531L259.661 79.857zM259.661 97.753L259.661 81.75 256.97 81.967C252.749 82.331 251.222 85.024 251.222 90.988 251.222 97.463 253.333 99.135 256.316 99.135 257.989 99.135 258.935 98.626 259.661 97.753zM119.175 79.857L119.175 74.546C119.175 66.543 117.43 63.924 112.482 63.924 111.901 63.924 111.392 63.997 110.809 64.07L102.006 76.001 100.77 76.001 100.77 65.017C104.553 63.853 109.281 62.47 115.537 62.47 126.305 62.47 132.561 65.453 132.561 74.474L132.561 100.373 136.417 101.392 136.417 102.41C134.889 103.356 131.833 104.229 128.487 104.229 123.177 104.229 120.63 102.483 119.466 99.573L119.102 99.573C116.847 102.628 113.646 104.375 108.627 104.375 102.225 104.375 97.86 100.374 97.86 93.462 97.86 86.77 102.006 83.131 110.446 81.531L119.175 79.857zM119.175 97.753L119.175 81.75 116.484 81.967C112.263 82.331 110.736 85.024 110.736 90.988 110.736 97.463 112.847 99.135 115.829 99.135 117.501 99.135 118.448 98.626 119.175 97.753z"/>
  </g>
</svg>
