<?xml version="1.0" encoding="UTF-8" standalone="no"?>
<svg width="254px" height="23px" viewBox="0 0 254 23" version="1.1" xmlns="http://www.w3.org/2000/svg" xmlns:xlink="http://www.w3.org/1999/xlink">
    <!-- Generator: Sketch 41.1 (35376) - http://www.bohemiancoding.com/sketch -->
    <title>theguardian openplatform</title>
    <desc>Created with Sketch.</desc>
    <defs></defs>
    <g id="Page-1" stroke="none" stroke-width="1" fill="none" fill-rule="evenodd">
        <g id="1" transform="translate(-907.000000, -47.000000)">
            <g id="theguardian-openplatform" transform="translate(907.000000, 47.000000)">
                <path d="M126.04,5.52 C122.64,5.52 120.3,7.6 120.3,11.4 C120.3,15.2 122.64,17.3 126.04,17.3 C129.44,17.3 131.78,15.2 131.78,11.4 C131.78,7.6 129.44,5.52 126.04,5.52 Z M126.06,15.74 C124.82,15.74 124.2,15.1 124.2,11.4 C124.2,7.7 124.82,7.06 126.06,7.06 C127.3,7.06 127.88,7.7 127.88,11.4 C127.88,15.1 127.3,15.74 126.06,15.74 Z M138.36,15.72 C137.84,15.72 137.44,15.54 137.18,15.36 L137.18,8.04 C137.5,7.88 137.86,7.74 138.48,7.74 C139.68,7.74 140.42,8.86 140.42,11.46 C140.42,14.66 139.52,15.72 138.36,15.72 Z M137.14,6.98 L137.14,5.52 L136.84,5.52 L132.2,6.26 L132.2,7.24 L133.46,7.82 L133.46,20.3 L132.26,20.86 L132.26,21.9 L138.58,21.9 L138.58,20.86 L137.18,20.3 L137.18,16.94 C137.54,17.1 137.92,17.28 138.82,17.28 C141.76,17.28 144.32,15.76 144.32,11.2 C144.32,6.76 142.5,5.52 140.3,5.52 C138.86,5.52 137.88,6.24 137.26,6.98 L137.14,6.98 Z M150.38,6.76 C151.3,6.76 151.8,7.24 151.8,10.22 L148.7,10.4 C148.74,7.42 149.36,6.76 150.38,6.76 Z M155.42,11.74 C155.42,7.04 153.8,5.54 150.44,5.54 C147.1,5.54 144.92,7.68 144.92,11.38 C144.92,15.18 146.9,17.3 150.74,17.3 C152.8,17.3 154.48,16.38 155,15.66 L155,14.58 C154.22,14.82 153.42,14.96 152,14.96 C149.96,14.96 148.92,13.92 148.74,11.74 L155.42,11.74 Z M155.84,17 L161.96,17 L161.96,15.98 L160.78,15.42 L160.78,8.06 C161.24,7.88 161.74,7.76 162.3,7.76 C163.32,7.76 163.8,8.18 163.8,9.34 L163.8,15.42 L162.62,15.98 L162.62,17 L168.74,17 L168.74,15.98 L167.52,15.42 L167.52,8.5 C167.52,6.44 166.58,5.52 164.72,5.52 C163.2,5.52 161.84,6.06 160.84,6.98 L160.72,6.98 L160.72,5.52 L160.42,5.52 L155.78,6.26 L155.78,7.24 L157.06,7.82 L157.06,15.42 L155.84,15.98 L155.84,17 Z M175.14,15.72 C174.62,15.72 174.22,15.54 173.96,15.36 L173.96,8.04 C174.28,7.88 174.64,7.74 175.26,7.74 C176.46,7.74 177.2,8.86 177.2,11.46 C177.2,14.66 176.3,15.72 175.14,15.72 Z M173.92,6.98 L173.92,5.52 L173.62,5.52 L168.98,6.26 L168.98,7.24 L170.24,7.82 L170.24,20.3 L169.04,20.86 L169.04,21.9 L175.36,21.9 L175.36,20.86 L173.96,20.3 L173.96,16.94 C174.32,17.1 174.7,17.28 175.6,17.28 C178.54,17.28 181.1,15.76 181.1,11.2 C181.1,6.76 179.28,5.52 177.08,5.52 C175.64,5.52 174.66,6.24 174.04,6.98 L173.92,6.98 Z M181.6,1.68 L181.6,2.7 L182.86,3.28 L182.86,15.4 L181.66,15.96 L181.66,17 L187.78,17 L187.78,15.96 L186.58,15.4 L186.58,0.94 L186.28,0.94 L181.6,1.68 Z M194.38,14.84 C194.18,15.06 193.76,15.26 193.36,15.26 C192.64,15.26 191.96,14.86 191.96,13.62 C191.96,12.56 192.66,11.98 193.52,11.9 L194.38,11.82 L194.38,14.84 Z M191.56,7.02 C191.8,7 192.34,6.98 192.52,6.98 C193.96,6.98 194.38,7.7 194.38,9.12 L194.38,10.62 L192.24,10.98 C189.76,11.4 188.28,11.86 188.28,14.16 C188.28,16.02 189.52,17.3 191.5,17.3 C192.9,17.3 194.22,16.7 194.72,15.7 L194.82,15.7 C195,16.9 196.04,17.28 197.2,17.28 C198.1,17.28 198.94,17.02 199.3,16.82 L199.3,15.98 L198.12,15.42 L198.12,8.92 C198.12,6.4 196.32,5.52 193.32,5.52 C191.36,5.52 190.1,6.04 189.04,6.38 L189.04,9.3 L190.78,9.3 L191.56,7.02 Z M201.02,13.94 C201.02,16.32 202.06,17.3 204.28,17.3 C205.44,17.3 206.7,17 207.32,16.64 L207.32,15.2 C207.04,15.24 206.52,15.28 206.12,15.28 C205.04,15.28 204.74,14.72 204.74,13.62 L204.74,7.72 L207.18,7.72 L207.18,5.8 L204.74,5.8 L204.74,3.18 L201.02,3.7 L201.02,5.8 L199.3,6.04 L199.3,7.72 L201.02,7.72 L201.02,13.94 Z M212.46,15.42 L212.46,7.72 L214.32,7.72 L214.32,5.8 L212.46,5.8 L212.46,4.5 C212.46,3.2 212.82,2.58 213.76,2.58 C213.9,2.58 214.04,2.6 214.16,2.62 L214.6,4.2 L216.52,4.2 L216.52,1.32 C215.26,1 214.42,0.94 213.34,0.94 C210.98,0.94 208.74,2.18 208.74,4.94 L208.74,5.84 L207.46,6.48 L207.46,7.72 L208.74,7.72 L208.74,15.42 L207.52,15.98 L207.52,17 L213.98,17 L213.98,15.98 L212.46,15.42 Z M220.36,5.52 C216.96,5.52 214.62,7.6 214.62,11.4 C214.62,15.2 216.96,17.3 220.36,17.3 C223.76,17.3 226.1,15.2 226.1,11.4 C226.1,7.6 223.76,5.52 220.36,5.52 Z M220.38,15.74 C219.14,15.74 218.52,15.1 218.52,11.4 C218.52,7.7 219.14,7.06 220.38,7.06 C221.62,7.06 222.2,7.7 222.2,11.4 C222.2,15.1 221.62,15.74 220.38,15.74 Z M226.56,6.22 L226.56,7.24 L227.8,7.82 L227.8,15.4 L226.62,15.96 L226.62,17 L233.06,17 L233.06,15.96 L231.52,15.4 L231.52,9.18 C232.16,8.88 233,8.78 234,8.78 C234.32,8.78 234.72,8.82 234.94,8.88 L234.94,5.62 C234.82,5.58 234.58,5.56 234.38,5.56 C233.16,5.56 232.16,6.36 231.5,7.84 L231.38,7.84 L231.38,5.48 L231.06,5.48 L226.56,6.22 Z M235.16,17 L241.08,17 L241.08,15.98 L240.1,15.42 L240.1,8.06 C240.54,7.86 240.94,7.76 241.34,7.76 C242.36,7.76 242.72,8.18 242.72,9.34 L242.72,15.42 L241.74,15.98 L241.74,17 L247.42,17 L247.42,15.98 L246.44,15.42 L246.44,8.04 C246.86,7.86 247.3,7.76 247.68,7.76 C248.68,7.76 249.06,8.18 249.06,9.34 L249.06,15.42 L248.08,15.98 L248.08,17 L253.98,17 L253.98,15.98 L252.76,15.42 L252.76,8.52 C252.76,6.46 251.78,5.52 249.92,5.52 C248.4,5.52 247.3,6.06 246.3,6.98 L246.2,6.98 C245.8,5.98 244.96,5.52 243.64,5.52 C242.12,5.52 241.16,6.06 240.16,6.98 L240.04,6.98 L240.04,5.52 L239.74,5.52 L235.1,6.26 L235.1,7.24 L236.38,7.82 L236.38,15.42 L235.16,15.98 L235.16,17 Z" id="openplatform" fill="#A8D8F2"></path>
                <path d="M1.72,13.94 C1.72,16.32 2.76,17.3 4.98,17.3 C6.14,17.3 7.4,17 8.02,16.64 L8.02,15.2 C7.74,15.24 7.22,15.28 6.82,15.28 C5.74,15.28 5.44,14.72 5.44,13.62 L5.44,7.72 L7.88,7.72 L7.88,5.8 L5.44,5.8 L5.44,3.18 L1.72,3.7 L1.72,5.8 L0,6.04 L0,7.72 L1.72,7.72 L1.72,13.94 Z M8.22,17 L14.34,17 L14.34,15.98 L13.16,15.42 L13.16,8.06 C13.62,7.88 14.12,7.76 14.68,7.76 C15.7,7.76 16.18,8.18 16.18,9.34 L16.18,15.42 L15,15.98 L15,17 L21.12,17 L21.12,15.98 L19.9,15.42 L19.9,8.5 C19.9,6.44 18.96,5.52 17.1,5.52 C15.58,5.52 14.22,6.06 13.22,6.98 L13.1,6.98 L13.1,0.74 L12.8,0.74 L8.16,1.48 L8.16,2.46 L9.44,3.04 L9.44,15.42 L8.22,15.98 L8.22,17 Z M27,6.76 C27.92,6.76 28.42,7.24 28.42,10.22 L25.32,10.4 C25.36,7.42 25.98,6.76 27,6.76 Z M32.04,11.74 C32.04,7.04 30.42,5.54 27.06,5.54 C23.72,5.54 21.54,7.68 21.54,11.38 C21.54,15.18 23.52,17.3 27.36,17.3 C29.42,17.3 31.1,16.38 31.62,15.66 L31.62,14.58 C30.84,14.82 30.04,14.96 28.62,14.96 C26.58,14.96 25.54,13.92 25.36,11.74 L32.04,11.74 Z M37.68,20.7 C35.64,20.7 34.94,19.98 34.94,19.2 C34.94,18.66 35.08,18.28 35.38,17.94 L39.3,17.94 C40.22,17.94 40.64,18.22 40.64,18.8 C40.64,19.96 40,20.7 37.68,20.7 Z M37.7,6.78 C38.52,6.78 39.04,7.12 39.04,9.36 C39.04,11.6 38.5,11.84 37.7,11.84 C36.9,11.84 36.38,11.64 36.38,9.36 C36.38,7.08 36.9,6.78 37.7,6.78 Z M40.16,14.54 L36.16,14.54 C35.72,14.54 35.36,14.22 35.36,13.82 C35.36,13.52 35.58,13.2 35.86,13 C36.46,13.18 36.96,13.22 37.7,13.22 C40.58,13.22 42.56,11.92 42.56,9.48 C42.56,8.38 42.1,7.76 41.4,7.12 L41.4,7.04 L43.26,7.7 L43.52,7.7 L43.52,5.48 L43.3,5.48 L40.44,6.04 L40.28,6.04 C39.58,5.78 38.6,5.5 37.7,5.5 C34.82,5.5 32.82,6.94 32.82,9.36 C32.82,10.84 33.56,11.94 34.68,12.56 L34.68,12.68 C34.04,13.12 32.8,14.06 32.8,15.24 C32.8,16.12 33.38,16.98 34.58,17.24 L34.58,17.36 C33.32,17.62 31.9,18.04 31.9,19.5 C31.9,21 34.06,22.1 37.58,22.1 C41.96,22.1 43.86,20.42 43.86,17.76 C43.86,15.56 42.64,14.54 40.16,14.54 Z M45.04,13.74 C45.04,15.68 46,17.3 48.26,17.3 C49.76,17.3 50.94,16.64 51.66,15.76 L51.8,15.76 L51.8,17.24 L52.1,17.24 L56.64,16.74 L56.64,15.78 L55.38,15.12 L55.38,5.54 L55.08,5.54 L50.42,6.28 L50.42,7.3 L51.66,7.88 L51.66,14.68 C51.28,14.84 50.94,14.94 50.32,14.94 C49.38,14.94 48.76,14.72 48.76,13.44 L48.76,5.54 L48.44,5.54 L43.78,6.28 L43.78,7.3 L45.04,7.88 L45.04,13.74 Z M63.14,14.84 C62.94,15.06 62.52,15.26 62.12,15.26 C61.4,15.26 60.72,14.86 60.72,13.62 C60.72,12.56 61.42,11.98 62.28,11.9 L63.14,11.82 L63.14,14.84 Z M60.32,7.02 C60.56,7 61.1,6.98 61.28,6.98 C62.72,6.98 63.14,7.7 63.14,9.12 L63.14,10.62 L61,10.98 C58.52,11.4 57.04,11.86 57.04,14.16 C57.04,16.02 58.28,17.3 60.26,17.3 C61.66,17.3 62.98,16.7 63.48,15.7 L63.58,15.7 C63.76,16.9 64.8,17.28 65.96,17.28 C66.86,17.28 67.7,17.02 68.06,16.82 L68.06,15.98 L66.88,15.42 L66.88,8.92 C66.88,6.4 65.08,5.52 62.08,5.52 C60.12,5.52 58.86,6.04 57.8,6.38 L57.8,9.3 L59.54,9.3 L60.32,7.02 Z M68.22,6.22 L68.22,7.24 L69.46,7.82 L69.46,15.4 L68.28,15.96 L68.28,17 L74.72,17 L74.72,15.96 L73.18,15.4 L73.18,9.18 C73.82,8.88 74.66,8.78 75.66,8.78 C75.98,8.78 76.38,8.82 76.6,8.88 L76.6,5.62 C76.48,5.58 76.24,5.56 76.04,5.56 C74.82,5.56 73.82,6.36 73.16,7.84 L73.04,7.84 L73.04,5.48 L72.72,5.48 L68.22,6.22 Z M84.16,6.02 C83.7,5.7 82.98,5.56 82.36,5.56 C79.4,5.56 76.9,7.18 76.9,11.7 C76.9,16 79.34,17.3 81.38,17.3 C82.78,17.3 83.74,16.68 84.2,16.08 L84.32,16.08 L84.32,17.24 L84.64,17.24 L89.06,16.74 L89.06,15.78 L87.88,15.12 L87.88,0.96 L87.58,0.96 L82.92,1.7 L82.92,2.72 L84.16,3.28 L84.16,6.02 Z M84.16,15.08 C83.9,15.18 83.58,15.28 83.02,15.28 C81.54,15.28 80.84,14.08 80.84,11.32 C80.84,8.16 81.72,7.1 82.9,7.1 C83.56,7.1 83.88,7.28 84.16,7.5 L84.16,15.08 Z M89.22,6.22 L89.22,7.24 L90.48,7.82 L90.48,15.4 L89.28,15.96 L89.28,17 L95.4,17 L95.4,15.96 L94.2,15.4 L94.2,5.48 L93.9,5.48 L89.22,6.22 Z M92.28,0.88 C91.18,0.88 90.3,1.76 90.3,2.86 C90.3,3.94 91.18,4.82 92.28,4.82 C93.36,4.82 94.26,3.94 94.26,2.86 C94.26,1.76 93.36,0.88 92.28,0.88 Z M101.92,14.84 C101.72,15.06 101.3,15.26 100.9,15.26 C100.18,15.26 99.5,14.86 99.5,13.62 C99.5,12.56 100.2,11.98 101.06,11.9 L101.92,11.82 L101.92,14.84 Z M99.1,7.02 C99.34,7 99.88,6.98 100.06,6.98 C101.5,6.98 101.92,7.7 101.92,9.12 L101.92,10.62 L99.78,10.98 C97.3,11.4 95.82,11.86 95.82,14.16 C95.82,16.02 97.06,17.3 99.04,17.3 C100.44,17.3 101.76,16.7 102.26,15.7 L102.36,15.7 C102.54,16.9 103.58,17.28 104.74,17.28 C105.64,17.28 106.48,17.02 106.84,16.82 L106.84,15.98 L105.66,15.42 L105.66,8.92 C105.66,6.4 103.86,5.52 100.86,5.52 C98.9,5.52 97.64,6.04 96.58,6.38 L96.58,9.3 L98.32,9.3 L99.1,7.02 Z M107.06,17 L113.18,17 L113.18,15.98 L112,15.42 L112,8.06 C112.46,7.88 112.96,7.76 113.52,7.76 C114.54,7.76 115.02,8.18 115.02,9.34 L115.02,15.42 L113.84,15.98 L113.84,17 L119.96,17 L119.96,15.98 L118.74,15.42 L118.74,8.5 C118.74,6.44 117.8,5.52 115.94,5.52 C114.42,5.52 113.06,6.06 112.06,6.98 L111.94,6.98 L111.94,5.52 L111.64,5.52 L107,6.26 L107,7.24 L108.28,7.82 L108.28,15.42 L107.06,15.98 L107.06,17 Z" id="theguardian" fill="#FFFFFF"></path>
            </g>
        </g>
    </g>
</svg>