<?xml version="1.0" encoding="UTF-8" standalone="no"?>
<svg width="569px" height="441px" viewBox="0 0 569 441" version="1.1" xmlns="http://www.w3.org/2000/svg" xmlns:xlink="http://www.w3.org/1999/xlink">
    <!-- Generator: Sketch 41.1 (35376) - http://www.bohemiancoding.com/sketch -->
    <title>windows</title>
    <desc>Created with Sketch.</desc>
    <defs>
        <rect id="path-1" x="-2.38742359e-12" y="0.390308515" width="688.856512" height="36.3613035"></rect>
        <mask id="mask-2" maskContentUnits="userSpaceOnUse" maskUnits="objectBoundingBox" x="0" y="0" width="688.856512" height="36.3613035" fill="white">
            <use xlink:href="#path-1"></use>
        </mask>
        <rect id="path-3" x="-2.84217094e-12" y="35.751612" width="688.856512" height="284.647339"></rect>
        <mask id="mask-4" maskContentUnits="userSpaceOnUse" maskUnits="objectBoundingBox" x="0" y="0" width="688.856512" height="284.647339" fill="white">
            <use xlink:href="#path-3"></use>
        </mask>
        <rect id="path-5" x="0" y="0" width="475" height="260"></rect>
        <mask id="mask-6" maskContentUnits="userSpaceOnUse" maskUnits="objectBoundingBox" x="0" y="0" width="475" height="260" fill="white">
            <use xlink:href="#path-5"></use>
        </mask>
        <mask id="mask-8" maskContentUnits="userSpaceOnUse" maskUnits="objectBoundingBox" x="0" y="0" width="475" height="260" fill="white">
            <use xlink:href="#path-5"></use>
        </mask>
        <polyline id="path-9" points="0 36 0 0 532 0 532 36"></polyline>
        <mask id="mask-10" maskContentUnits="userSpaceOnUse" maskUnits="objectBoundingBox" x="0" y="0" width="532" height="36" fill="white">
            <use xlink:href="#path-9"></use>
        </mask>
        <polygon id="path-11" points="0 420.458196 644.354393 420.458196 644.354393 36.751612 0 36.751612"></polygon>
        <filter x="-50%" y="-50%" width="200%" height="200%" filterUnits="objectBoundingBox" id="filter-12">
            <feOffset dx="0" dy="5" in="SourceAlpha" result="shadowOffsetOuter1"></feOffset>
            <feGaussianBlur stdDeviation="7.5" in="shadowOffsetOuter1" result="shadowBlurOuter1"></feGaussianBlur>
            <feColorMatrix values="0 0 0 0 0.395089286   0 0 0 0 0.395089286   0 0 0 0 0.395089286  0 0 0 0.5 0" type="matrix" in="shadowBlurOuter1"></feColorMatrix>
        </filter>
    </defs>
    <g id="Page-1" stroke="none" stroke-width="1" fill="none" fill-rule="evenodd">
        <g id="1" transform="translate(-711.000000, -2273.000000)">
            <g id="Group-6-Copy-4" transform="translate(0.000000, 2100.000000)">
                <g id="windows" transform="translate(711.000000, 173.000000)">
                    <g id="windowThree" transform="translate(0.000000, 47.000000)" stroke="#FFFFFF">
                        <use id="Rectangle-632" mask="url(#mask-2)" stroke-width="2" fill="#0D7CAD" xlink:href="#path-1"></use>
                        <use id="Rectangle-632-Copy" mask="url(#mask-4)" stroke-width="2" xlink:href="#path-3"></use>
                        <ellipse id="Oval-2" cx="57.2793626" cy="18.4166676" rx="6.1057799" ry="6.13888919"></ellipse>
                        <ellipse id="Oval-2-Copy" cx="37.8242999" cy="18.4166676" rx="6.1057799" ry="6.13888919"></ellipse>
                        <ellipse id="Oval-2-Copy-2" cx="18.3692372" cy="18.4166676" rx="6.1057799" ry="6.13888919"></ellipse>
                    </g>
                    <g id="windowTwo" transform="translate(38.000000, 103.000000)">
                        <g id="Group-25" transform="translate(0.000000, 36.000000)">
                            <mask id="mask-7" fill="white">
                                <use xlink:href="#path-5"></use>
                            </mask>
                            <g id="Rectangle-869" stroke="#FFFFFF" mask="url(#mask-6)" stroke-width="2" fill="#0D7CAD">
                                <use mask="url(#mask-8)" xlink:href="#path-5"></use>
                            </g>
                            <g id="Group-16" mask="url(#mask-7)" stroke="#FFFFFF" stroke-linecap="square">
                                <g transform="translate(-164.000000, -183.000000)">
                                    <path d="M-67.1806872,163.056743 L393.322427,163.056743" id="Line" transform="translate(163.070870, 163.422221) rotate(-45.000000) translate(-163.070870, -163.422221) "></path>
                                    <path d="M151.970022,382.207452 L612.473136,382.207452" id="Line-Copy-111" transform="translate(382.221579, 382.572931) rotate(-45.000000) translate(-382.221579, -382.572931) "></path>
                                    <path d="M-23.2471724,206.990257 L437.255941,206.990257" id="Line-Copy-91" transform="translate(207.004385, 207.355736) rotate(-45.000000) translate(-207.004385, -207.355736) "></path>
                                    <path d="M195.903537,426.140967 L656.406651,426.140967" id="Line-Copy-112" transform="translate(426.155094, 426.506445) rotate(-45.000000) translate(-426.155094, -426.506445) "></path>
                                    <path d="M20.6863424,250.923772 L481.189456,250.923772" id="Line-Copy-96" transform="translate(250.937899, 251.289251) rotate(-45.000000) translate(-250.937899, -251.289251) "></path>
                                    <path d="M239.837052,470.074481 L700.340165,470.074481" id="Line-Copy-113" transform="translate(470.088609, 470.439960) rotate(-45.000000) translate(-470.088609, -470.439960) "></path>
                                    <path d="M64.6198573,294.857287 L525.122971,294.857287" id="Line-Copy-101" transform="translate(294.871414, 295.222766) rotate(-45.000000) translate(-294.871414, -295.222766) "></path>
                                    <path d="M283.770566,514.007996 L744.27368,514.007996" id="Line-Copy-114" transform="translate(514.022123, 514.373475) rotate(-45.000000) translate(-514.022123, -514.373475) "></path>
                                    <path d="M108.553372,338.790802 L569.056486,338.790802" id="Line-Copy-106" transform="translate(338.804929, 339.156281) rotate(-45.000000) translate(-338.804929, -339.156281) "></path>
                                    <path d="M327.704081,557.941511 L788.207195,557.941511" id="Line-Copy-115" transform="translate(557.955638, 558.306990) rotate(-45.000000) translate(-557.955638, -558.306990) "></path>
                                    <path d="M-58.3939842,171.843446 L402.10913,171.843446" id="Line-Copy-87" transform="translate(171.857573, 172.208924) rotate(-45.000000) translate(-171.857573, -172.208924) "></path>
                                    <path d="M160.756725,390.994155 L621.259839,390.994155" id="Line-Copy-116" transform="translate(391.008282, 391.359633) rotate(-45.000000) translate(-391.008282, -391.359633) "></path>
                                    <path d="M-14.4604694,215.77696 L446.042644,215.77696" id="Line-Copy-92" transform="translate(215.791087, 216.142439) rotate(-45.000000) translate(-215.791087, -216.142439) "></path>
                                    <path d="M204.69024,434.92767 L665.193354,434.92767" id="Line-Copy-117" transform="translate(434.941797, 435.293148) rotate(-45.000000) translate(-434.941797, -435.293148) "></path>
                                    <path d="M29.4730454,259.710475 L489.976159,259.710475" id="Line-Copy-97" transform="translate(259.724602, 260.075954) rotate(-45.000000) translate(-259.724602, -260.075954) "></path>
                                    <path d="M248.623755,478.861184 L709.126868,478.861184" id="Line-Copy-118" transform="translate(478.875311, 479.226663) rotate(-45.000000) translate(-478.875311, -479.226663) "></path>
                                    <path d="M73.4065602,303.64399 L533.909674,303.64399" id="Line-Copy-102" transform="translate(303.658117, 304.009469) rotate(-45.000000) translate(-303.658117, -304.009469) "></path>
                                    <path d="M292.557269,522.794699 L753.060383,522.794699" id="Line-Copy-119" transform="translate(522.808826, 523.160178) rotate(-45.000000) translate(-522.808826, -523.160178) "></path>
                                    <path d="M117.340075,347.577505 L577.843189,347.577505" id="Line-Copy-107" transform="translate(347.591632, 347.942984) rotate(-45.000000) translate(-347.591632, -347.942984) "></path>
                                    <path d="M336.490784,566.728214 L796.993898,566.728214" id="Line-Copy-120" transform="translate(566.742341, 567.093693) rotate(-45.000000) translate(-566.742341, -567.093693) "></path>
                                    <path d="M-49.6072813,180.630149 L410.895833,180.630149" id="Line-Copy-88" transform="translate(180.644276, 180.995627) rotate(-45.000000) translate(-180.644276, -180.995627) "></path>
                                    <path d="M169.543428,399.780858 L630.046542,399.780858" id="Line-Copy-121" transform="translate(399.794985, 400.146336) rotate(-45.000000) translate(-399.794985, -400.146336) "></path>
                                    <path d="M-5.67376645,224.563663 L454.829347,224.563663" id="Line-Copy-93" transform="translate(224.577790, 224.929142) rotate(-45.000000) translate(-224.577790, -224.929142) "></path>
                                    <path d="M213.476943,443.714373 L673.980057,443.714373" id="Line-Copy-122" transform="translate(443.728500, 444.079851) rotate(-45.000000) translate(-443.728500, -444.079851) "></path>
                                    <path d="M38.2597484,268.497178 L498.762862,268.497178" id="Line-Copy-98" transform="translate(268.511305, 268.862657) rotate(-45.000000) translate(-268.511305, -268.862657) "></path>
                                    <path d="M257.410458,487.647887 L717.913571,487.647887" id="Line-Copy-123" transform="translate(487.662014, 488.013366) rotate(-45.000000) translate(-487.662014, -488.013366) "></path>
                                    <path d="M82.1932632,312.430693 L542.696377,312.430693" id="Line-Copy-103" transform="translate(312.444820, 312.796172) rotate(-45.000000) translate(-312.444820, -312.796172) "></path>
                                    <path d="M301.343972,531.581402 L761.847086,531.581402" id="Line-Copy-124" transform="translate(531.595529, 531.946881) rotate(-45.000000) translate(-531.595529, -531.946881) "></path>
                                    <path d="M126.126778,356.364208 L586.629892,356.364208" id="Line-Copy-108" transform="translate(356.378335, 356.729686) rotate(-45.000000) translate(-356.378335, -356.729686) "></path>
                                    <path d="M345.277487,575.514917 L805.780601,575.514917" id="Line-Copy-125" transform="translate(575.529044, 575.880396) rotate(-45.000000) translate(-575.529044, -575.880396) "></path>
                                    <path d="M-40.8205783,189.416852 L419.682535,189.416852" id="Line-Copy-89" transform="translate(189.430979, 189.782330) rotate(-45.000000) translate(-189.430979, -189.782330) "></path>
                                    <path d="M178.330131,408.567561 L638.833245,408.567561" id="Line-Copy-126" transform="translate(408.581688, 408.933039) rotate(-45.000000) translate(-408.581688, -408.933039) "></path>
                                    <path d="M3.11293651,233.350366 L463.61605,233.350366" id="Line-Copy-94" transform="translate(233.364493, 233.715845) rotate(-45.000000) translate(-233.364493, -233.715845) "></path>
                                    <path d="M222.263646,452.501076 L682.766759,452.501076" id="Line-Copy-127" transform="translate(452.515203, 452.866554) rotate(-45.000000) translate(-452.515203, -452.866554) "></path>
                                    <path d="M47.0464513,277.283881 L507.549565,277.283881" id="Line-Copy-99" transform="translate(277.298008, 277.649360) rotate(-45.000000) translate(-277.298008, -277.649360) "></path>
                                    <path d="M266.197161,496.43459 L726.700274,496.43459" id="Line-Copy-128" transform="translate(496.448717, 496.800069) rotate(-45.000000) translate(-496.448717, -496.800069) "></path>
                                    <path d="M90.9799661,321.217396 L551.48308,321.217396" id="Line-Copy-104" transform="translate(321.231523, 321.582875) rotate(-45.000000) translate(-321.231523, -321.582875) "></path>
                                    <path d="M310.130675,540.368105 L770.633789,540.368105" id="Line-Copy-129" transform="translate(540.382232, 540.733584) rotate(-45.000000) translate(-540.382232, -540.733584) "></path>
                                    <path d="M134.913481,365.150911 L595.416595,365.150911" id="Line-Copy-109" transform="translate(365.165038, 365.516389) rotate(-45.000000) translate(-365.165038, -365.516389) "></path>
                                    <path d="M354.06419,584.30162 L814.567304,584.30162" id="Line-Copy-130" transform="translate(584.315747, 584.667099) rotate(-45.000000) translate(-584.315747, -584.667099) "></path>
                                    <path d="M-32.0338753,198.203554 L428.469238,198.203554" id="Line-Copy-90" transform="translate(198.217682, 198.569033) rotate(-45.000000) translate(-198.217682, -198.569033) "></path>
                                    <path d="M187.116834,417.354264 L647.619948,417.354264" id="Line-Copy-131" transform="translate(417.368391, 417.719742) rotate(-45.000000) translate(-417.368391, -417.719742) "></path>
                                    <path d="M11.8996395,242.137069 L472.402753,242.137069" id="Line-Copy-95" transform="translate(242.151196, 242.502548) rotate(-45.000000) translate(-242.151196, -242.502548) "></path>
                                    <path d="M231.050349,461.287779 L691.553462,461.287779" id="Line-Copy-132" transform="translate(461.301906, 461.653257) rotate(-45.000000) translate(-461.301906, -461.653257) "></path>
                                    <path d="M55.8331543,286.070584 L516.336268,286.070584" id="Line-Copy-100" transform="translate(286.084711, 286.436063) rotate(-45.000000) translate(-286.084711, -286.436063) "></path>
                                    <path d="M274.983863,505.221293 L735.486977,505.221293" id="Line-Copy-133" transform="translate(505.235420, 505.586772) rotate(-45.000000) translate(-505.235420, -505.586772) "></path>
                                    <path d="M99.7666691,330.004099 L560.269783,330.004099" id="Line-Copy-105" transform="translate(330.018226, 330.369578) rotate(-45.000000) translate(-330.018226, -330.369578) "></path>
                                    <path d="M318.917378,549.154808 L779.420492,549.154808" id="Line-Copy-134" transform="translate(549.168935, 549.520287) rotate(-45.000000) translate(-549.168935, -549.520287) "></path>
                                    <path d="M143.700184,373.937614 L604.203298,373.937614" id="Line-Copy-110" transform="translate(373.951741, 374.303092) rotate(-45.000000) translate(-373.951741, -374.303092) "></path>
                                    <path d="M362.850893,593.088323 L823.354007,593.088323" id="Line-Copy-135" transform="translate(593.102450, 593.453802) rotate(-45.000000) translate(-593.102450, -593.453802) "></path>
                                </g>
                            </g>
                        </g>
                        <use id="Rectangle-870" stroke="#FFFFFF" mask="url(#mask-10)" stroke-width="2" fill="#0D7CAD" xlink:href="#path-9"></use>
                        <ellipse id="Oval-2" stroke="#FFFFFF" cx="18.1057799" cy="18.1388892" rx="6.1057799" ry="6.13888919"></ellipse>
                        <ellipse id="Oval-2-Copy-3" stroke="#FFFFFF" cx="38.1057799" cy="18.1388892" rx="6.1057799" ry="6.13888919"></ellipse>
                        <ellipse id="Oval-2-Copy-4" stroke="#FFFFFF" cx="58.1057799" cy="18.1388892" rx="6.1057799" ry="6.13888919"></ellipse>
                    </g>
                    <g id="windowOne" transform="translate(76.000000, 0.000000)">
                        <rect id="Rectangle-632" fill="#E7E5E7" x="0" y="0.390308515" width="529.952991" height="41.3554199" rx="5"></rect>
                        <g id="Fill-10">
                            <use fill="black" fill-opacity="1" filter="url(#filter-12)" xlink:href="#path-11"></use>
                            <use fill="#5D5D5D" fill-rule="evenodd" xlink:href="#path-11"></use>
                        </g>
                        <rect id="Rectangle-40" fill="#B5DBEF" x="54.7348175" y="59.75741" width="122.175932" height="10.231482"></rect>
                        <rect id="Rectangle-40-Copy-17" fill="#B5DBEF" x="54.7348175" y="329.521868" width="175.933342" height="10.231482"></rect>
                        <rect id="Rectangle-40-Copy-11" fill="#B5DBEF" x="54.7348175" y="162.385193" width="125.108154" height="10.231482"></rect>
                        <rect id="Rectangle-40-Copy-5" fill="#FFCE4B" x="54.7348175" y="100.808523" width="125.108154" height="10.231482"></rect>
                        <rect id="Rectangle-40-Copy-18" fill="#FFCE4B" x="54.7348175" y="308.996311" width="125.108154" height="10.231482"></rect>
                        <rect id="Rectangle-40-Copy-12" fill="#FFCE4B" x="54.7348175" y="203.436306" width="103.60519" height="10.231482"></rect>
                        <rect id="Rectangle-40-Copy-23" fill="#FFCE4B" x="190.594454" y="223.961862" width="128.040377" height="10.231482"></rect>
                        <rect id="Rectangle-40-Copy-8" fill="#FFFFFF" x="54.7348175" y="121.33408" width="264.179272" height="10.231482"></rect>
                        <rect id="Rectangle-40-Copy-19" fill="#FFFFFF" x="54.7348175" y="267.945198" width="264.179272" height="10.231482"></rect>
                        <rect id="Rectangle-40-Copy-22" fill="#FFFFFF" x="54.7348175" y="350.047424" width="122.175932" height="10.231482"></rect>
                        <rect id="Rectangle-40-Copy-13" fill="#FFFFFF" x="54.7348175" y="223.961862" width="130.972599" height="10.231482"></rect>
                        <rect id="Rectangle-40-Copy-3" fill="#FFFFFF" x="54.7348175" y="80.2829666" width="175.933342" height="10.231482"></rect>
                        <rect id="Rectangle-40-Copy-20" fill="#FFFFFF" x="54.7348175" y="288.470754" width="175.933342" height="10.231482"></rect>
                        <rect id="Rectangle-40-Copy-14" fill="#FFFFFF" x="54.7348175" y="182.910749" width="173.978527" height="10.231482"></rect>
                        <rect id="Rectangle-40-Copy" fill="#FFFFFF" x="181.797787" y="59.75741" width="72.3281517" height="10.231482"></rect>
                        <rect id="Rectangle-40-Copy-15" fill="#FFFFFF" x="184.730009" y="162.385193" width="93.8311157" height="10.231482"></rect>
                        <rect id="Rectangle-40-Copy-6" fill="#B5DBEF" x="184.730009" y="100.808523" width="93.8311157" height="10.231482"></rect>
                        <rect id="Rectangle-40-Copy-24" fill="#B5DBEF" x="184.730009" y="308.996311" width="93.8311157" height="10.231482"></rect>
                        <rect id="Rectangle-40-Copy-16" fill="#B5DBEF" x="163.227045" y="203.436306" width="114.356672" height="10.231482"></rect>
                        <rect id="Rectangle-40-Copy-9" fill="#B5DBEF" x="54.7348175" y="141.859636" width="93.8311157" height="10.231482"></rect>
                        <rect id="Rectangle-40-Copy-2" fill="#FFCE4B" x="259.012976" y="59.75741" width="100.672968" height="10.231482"></rect>
                        <rect id="Rectangle-40-Copy-25" fill="#FFCE4B" x="235.555197" y="329.521868" width="125.108154" height="10.231482"></rect>
                        <rect id="Rectangle-40-Copy-7" fill="#FFFFFF" x="283.448162" y="100.808523" width="122.175932" height="10.231482"></rect>
                        <rect id="Rectangle-40-Copy-26" fill="#FFFFFF" x="283.448162" y="308.996311" width="122.175932" height="10.231482"></rect>
                        <rect id="Rectangle-40-Copy-10" fill="#FFCE4B" x="153.45297" y="141.859636" width="125.108154" height="10.231482"></rect>
                        <rect id="Rectangle-40-Copy-4" fill="#B5DBEF" x="235.555197" y="80.2829666" width="85.0344486" height="10.231482"></rect>
                        <rect id="Rectangle-40-Copy-27" fill="#B5DBEF" x="235.555197" y="288.470754" width="85.0344486" height="10.231482"></rect>
                        <rect id="Rectangle-40-Copy-21" fill="#B5DBEF" x="233.600382" y="182.910749" width="126.085562" height="10.231482"></rect>
                        <ellipse id="Oval-2" fill="#2AD043" cx="57.2793626" cy="18.4166676" rx="6.1057799" ry="6.13888919"></ellipse>
                        <ellipse id="Oval-2-Copy" fill="#FFBD2E" cx="37.8242999" cy="18.4166676" rx="6.1057799" ry="6.13888919"></ellipse>
                        <ellipse id="Oval-2-Copy-2" fill="#FF625A" cx="18.3692372" cy="18.4166676" rx="6.1057799" ry="6.13888919"></ellipse>
                        <rect id="Rectangle-62" fill="#333333" x="0" y="36.751612" width="36.862224" height="383.706584"></rect>
                    </g>
                </g>
            </g>
        </g>
    </g>
</svg>