<svg xmlns="http://www.w3.org/2000/svg" width="940.068" height="727.332" viewBox="0 0 940.068 727.332"><g><g><path fill="#0072BC" d="M287.396 299.374l131.233 75.745 223.1-128.794-131.236-75.756M287.409 466.507l-13.132 7.794 131.235 75.746 223.098-128.795-131.234-75.756M38.05 610.034l131.234 75.746 223.098-128.795-131.234-75.756M510.802 337.284l131.234 75.743 223.098-128.792-131.235-75.758M51.178 435.776l131.234 75.746 223.098-128.795-131.234-75.756M523.618 163.024l131.236 75.745 223.096-128.794-131.234-75.755"/><g stroke="#fff" fill="none"><path d="M576.177 329.692"/><path d="M602.034 329.65l26.515-15.152 26.485 15.18v30.307l-26.499 15.146-26.501-15.16zM628.585 375.131l.037-30.313-26.273-15.168M602.349 359.971l26.273-15.153 26.197-15.14"/><path d="M628.622 344.818l26.197 15.167-26.197-15.167zM628.599 314.498l.023 30.32"/></g><g stroke="#fff" stroke-width=".5" fill="none"><path d="M497.372 193.292l104.982 60.625M510.515 185.701l104.982 60.626M484.257 200.868l104.982 60.626M471.134 208.458l104.982 60.625M458.31 216.005l104.982 60.626M444.889 223.582l104.983 60.626M431.754 231.18l104.983 60.626M418.644 238.735l104.982 60.626M405.521 246.329l104.982 60.626M392.384 253.906l104.982 60.626M379.275 261.494l104.982 60.626M366.152 269.058l104.984 60.626M353.029 276.659l104.983 60.626M339.891 284.218l104.982 60.626M326.784 291.764l104.983 60.626M339.838 299.288l183.768-105.986M326.759 291.734l183.769-105.985M353.005 306.887l183.769-105.984M366.114 314.464l183.77-105.985M379.237 322.041l183.77-105.986M392.361 329.618l183.769-105.985M405.496 337.211l183.769-105.985M418.609 344.77l183.769-105.984M431.722 352.344l183.769-105.984"/></g></g></g></svg>