<?xml version="1.0" encoding="utf-8"?>
<!-- Generator: Adobe Illustrator 16.0.1, SVG Export Plug-In . SVG Version: 6.00 Build 0)  -->
<!DOCTYPE svg PUBLIC "-//W3C//DTD SVG 1.1//EN" "http://www.w3.org/Graphics/SVG/1.1/DTD/svg11.dtd">
<svg version="1.1" xmlns="http://www.w3.org/2000/svg" xmlns:xlink="http://www.w3.org/1999/xlink" x="0px" y="0px"
	 width="940.068px" height="727.332px" viewBox="0 0 940.068 727.332" enable-background="new 0 0 940.068 727.332"
	 xml:space="preserve">
<g id="Layer_2_1_">
	<g>
	</g>
</g>
<g id="Layer_1">
	<g id="Layer_2" display="none">
	</g>
	<g id="Layer_1_2_">
		<g id="Iso_Guide">
		</g>
		<g id="Layer_1_1_">
			<polyline fill="#0072BC" points="287.396,299.374 418.629,375.119 641.729,246.325 510.493,170.569 			"/>
			<polyline fill="#0072BC" points="287.409,466.507 274.277,474.301 405.512,550.047 628.61,421.252 497.376,345.496 			"/>
			<polyline fill="#0072BC" points="38.05,610.034 169.284,685.78 392.382,556.985 261.148,481.229 			"/>
			<polyline fill="#0072BC" points="510.802,337.284 642.036,413.027 865.134,284.235 733.899,208.477 			"/>
			<polyline fill="#0072BC" points="51.178,435.776 182.412,511.522 405.51,382.727 274.276,306.971 			"/>
			<polyline fill="#0072BC" points="523.618,163.024 654.854,238.769 877.95,109.975 746.716,34.22 			"/>
			<g>
				<path fill="none" stroke="#FFFFFF" d="M576.177,329.692"/>
				<polygon fill="none" stroke="#FFFFFF" points="602.034,329.65 628.549,314.498 655.034,329.678 655.034,359.985 
					628.535,375.131 602.034,359.971 				"/>
				<polyline fill="none" stroke="#FFFFFF" points="628.585,375.131 628.622,344.818 602.349,329.65 				"/>
				<polyline fill="none" stroke="#FFFFFF" points="602.349,359.971 628.622,344.818 654.819,329.678 				"/>
				<path fill="none" stroke="#FFFFFF" d="M628.622,344.818l26.197,15.167L628.622,344.818z"/>
				<line fill="none" stroke="#FFFFFF" x1="628.599" y1="314.498" x2="628.622" y2="344.818"/>
			</g>
			<g id="grid">
				<line fill="none" stroke="#FFFFFF" stroke-width="0.5" x1="497.372" y1="193.292" x2="602.354" y2="253.917"/>
				<line fill="none" stroke="#FFFFFF" stroke-width="0.5" x1="510.515" y1="185.701" x2="615.497" y2="246.327"/>
				<line fill="none" stroke="#FFFFFF" stroke-width="0.5" x1="484.257" y1="200.868" x2="589.239" y2="261.494"/>
				<line fill="none" stroke="#FFFFFF" stroke-width="0.5" x1="471.134" y1="208.458" x2="576.116" y2="269.083"/>
				<line fill="none" stroke="#FFFFFF" stroke-width="0.5" x1="458.31" y1="216.005" x2="563.292" y2="276.631"/>
				<line fill="none" stroke="#FFFFFF" stroke-width="0.5" x1="444.889" y1="223.582" x2="549.872" y2="284.208"/>
				<line fill="none" stroke="#FFFFFF" stroke-width="0.5" x1="431.754" y1="231.18" x2="536.737" y2="291.806"/>
				<line fill="none" stroke="#FFFFFF" stroke-width="0.5" x1="418.644" y1="238.735" x2="523.626" y2="299.361"/>
				<line fill="none" stroke="#FFFFFF" stroke-width="0.5" x1="405.521" y1="246.329" x2="510.503" y2="306.955"/>
				<line fill="none" stroke="#FFFFFF" stroke-width="0.5" x1="392.384" y1="253.906" x2="497.366" y2="314.532"/>
				<line fill="none" stroke="#FFFFFF" stroke-width="0.5" x1="379.275" y1="261.494" x2="484.257" y2="322.12"/>
				<line fill="none" stroke="#FFFFFF" stroke-width="0.5" x1="366.152" y1="269.058" x2="471.136" y2="329.684"/>
				<line fill="none" stroke="#FFFFFF" stroke-width="0.5" x1="353.029" y1="276.659" x2="458.012" y2="337.285"/>
				<line fill="none" stroke="#FFFFFF" stroke-width="0.5" x1="339.891" y1="284.218" x2="444.873" y2="344.844"/>
				<line fill="none" stroke="#FFFFFF" stroke-width="0.5" x1="326.784" y1="291.764" x2="431.767" y2="352.39"/>
				<line fill="none" stroke="#FFFFFF" stroke-width="0.5" x1="339.838" y1="299.288" x2="523.606" y2="193.302"/>
				<line fill="none" stroke="#FFFFFF" stroke-width="0.5" x1="326.759" y1="291.734" x2="510.528" y2="185.749"/>
				<line fill="none" stroke="#FFFFFF" stroke-width="0.5" x1="353.005" y1="306.887" x2="536.774" y2="200.903"/>
				<line fill="none" stroke="#FFFFFF" stroke-width="0.5" x1="366.114" y1="314.464" x2="549.884" y2="208.479"/>
				<line fill="none" stroke="#FFFFFF" stroke-width="0.5" x1="379.237" y1="322.041" x2="563.007" y2="216.055"/>
				<line fill="none" stroke="#FFFFFF" stroke-width="0.5" x1="392.361" y1="329.618" x2="576.13" y2="223.633"/>
				<line fill="none" stroke="#FFFFFF" stroke-width="0.5" x1="405.496" y1="337.211" x2="589.265" y2="231.226"/>
				<line fill="none" stroke="#FFFFFF" stroke-width="0.5" x1="418.609" y1="344.77" x2="602.378" y2="238.786"/>
				<line fill="none" stroke="#FFFFFF" stroke-width="0.5" x1="431.722" y1="352.344" x2="615.491" y2="246.36"/>
			</g>
		</g>
	</g>
	<g id="Layer_5" display="none">
		<rect x="188.957" y="261.93" display="inline" fill="#0072BC" stroke="#FFFFFF" width="577.653" height="424.313"/>
	</g>
	<g id="Layer_3" display="none">
		<line display="inline" fill="none" stroke="#FFFFFF" x1="287.37" y1="466.484" x2="418.604" y2="542.265"/>
		<line display="inline" fill="none" stroke="#FFFFFF" x1="274.263" y1="474.054" x2="405.497" y2="549.835"/>
		
			<line display="inline" fill="none" stroke="#FFFFFF" stroke-linecap="round" x1="274.246" y1="474.054" x2="405.48" y2="549.835"/>
		<line display="inline" fill="none" stroke="#FFFFFF" x1="300.509" y1="458.921" x2="431.743" y2="534.703"/>
		<line display="inline" fill="none" stroke="#FFFFFF" x1="313.632" y1="451.322" x2="444.866" y2="527.104"/>
		<line display="inline" fill="none" stroke="#FFFFFF" x1="326.765" y1="443.769" x2="457.999" y2="519.55"/>
		<line display="inline" fill="none" stroke="#FFFFFF" x1="338.8" y1="435.741" x2="470.034" y2="511.522"/>
		<line display="inline" fill="none" stroke="#FFFFFF" x1="352.987" y1="428.597" x2="484.222" y2="504.378"/>
		<line display="inline" fill="none" stroke="#FFFFFF" x1="366.104" y1="421.037" x2="497.339" y2="496.818"/>
		<line display="inline" fill="none" stroke="#FFFFFF" x1="379.233" y1="413.445" x2="510.468" y2="489.226"/>
		<line display="inline" fill="none" stroke="#FFFFFF" x1="392.365" y1="405.908" x2="523.6" y2="481.689"/>
		<line display="inline" fill="none" stroke="#FFFFFF" x1="405.48" y1="398.287" x2="536.715" y2="474.068"/>
		<line display="inline" fill="none" stroke="#FFFFFF" x1="418.64" y1="390.714" x2="549.874" y2="466.496"/>
		<line display="inline" fill="none" stroke="#FFFFFF" x1="431.764" y1="383.141" x2="562.998" y2="458.921"/>
		<line display="inline" fill="none" stroke="#FFFFFF" x1="444.856" y1="375.564" x2="576.091" y2="451.345"/>
		<line display="inline" fill="none" stroke="#FFFFFF" x1="457.974" y1="367.986" x2="589.208" y2="443.767"/>
		<line display="inline" fill="none" stroke="#FFFFFF" x1="471.098" y1="360.41" x2="602.332" y2="436.191"/>
		<line display="inline" fill="none" stroke="#FFFFFF" x1="484.221" y1="352.835" x2="615.455" y2="428.617"/>
		
			<line display="inline" fill="none" stroke="#FFFFFF" stroke-linecap="round" x1="497.354" y1="345.276" x2="628.588" y2="421.057"/>
		<line display="inline" fill="none" stroke="#FFFFFF" x1="379.275" y1="534.667" x2="392.429" y2="542.292"/>
		<g id="Layer_4" display="inline">
			<line fill="none" stroke="#FFFFFF" x1="392.357" y1="542.257" x2="615.455" y2="413.462"/>
			<line fill="none" stroke="#FFFFFF" stroke-linecap="round" x1="405.481" y1="549.832" x2="628.579" y2="421.037"/>
			<line fill="none" stroke="#FFFFFF" x1="379.234" y1="534.681" x2="602.332" y2="405.886"/>
			<line fill="none" stroke="#FFFFFF" x1="366.111" y1="527.134" x2="589.209" y2="398.339"/>
			<line fill="none" stroke="#FFFFFF" x1="352.993" y1="519.529" x2="576.091" y2="390.734"/>
			<line fill="none" stroke="#FFFFFF" x1="339.864" y1="511.955" x2="562.962" y2="383.16"/>
			<line fill="none" stroke="#FFFFFF" x1="326.74" y1="504.357" x2="549.838" y2="375.562"/>
			<line fill="none" stroke="#FFFFFF" x1="313.617" y1="496.828" x2="536.715" y2="368.033"/>
			<line fill="none" stroke="#FFFFFF" x1="300.494" y1="489.252" x2="523.592" y2="360.458"/>
			<line fill="none" stroke="#FFFFFF" x1="287.37" y1="481.648" x2="510.468" y2="352.853"/>
			<line fill="none" stroke="#FFFFFF" stroke-linecap="round" x1="274.247" y1="474.071" x2="497.345" y2="345.276"/>
		</g>
	</g>
</g>
<g id="Layer_5_1_" display="none">
	<polygon display="inline" fill="#FFFFFF" points="477.996,447.66 490.921,439.991 530.289,462.721 517.009,470.185 	"/>
	<polygon display="inline" fill="#FFFFFF" points="353.169,443.669 458.152,504.28 471.273,496.703 366.288,436.09 	"/>
	<polygon display="inline" fill="#FFFFFF" points="399.098,447.437 412.213,439.855 490.917,485.317 477.808,492.894 	"/>
	<polygon display="inline" fill="#FFFFFF" points="405.66,428.54 418.668,420.939 510.577,473.962 497.461,481.551 	"/>
</g>
<g id="Layer_4_1_" display="none">
</g>
<g id="Layer_3_1_" display="none">
	<polyline fill="#FFFFFF" points="340.117,481.482 353.418,489.162 471.503,420.967 458.39,413.385 	"/>
	<polyline display="inline" fill="#FFFFFF" points="359.863,492.887 373.02,500.443 451.756,455.004 438.595,447.43 	"/>
	<polyline display="inline" fill="#FFFFFF" points="379.585,504.271 392.603,511.787 510.774,443.664 497.657,436.084 	"/>
	<polygon display="inline" fill="#FFFFFF" points="340.081,481.572 353.205,489.149 589.378,352.773 576.274,345.166 	"/>
	<polygon display="inline" fill="#FFFFFF" points="399.086,515.626 412.208,523.202 582.847,424.733 569.724,417.157 	"/>
	<polygon display="inline" fill="#FFCE4B" points="320.589,470.479 333.708,478.057 373.041,455.326 359.918,447.771 	"/>
</g>
</svg>
