<?xml version="1.0" encoding="UTF-8" standalone="no"?>
<svg width="146px" height="242px" viewBox="0 0 146 242" version="1.1" xmlns="http://www.w3.org/2000/svg" xmlns:xlink="http://www.w3.org/1999/xlink">
    <!-- Generator: Sketch 41.1 (35376) - http://www.bohemiancoding.com/sketch -->
    <title>iWatch</title>
    <desc>Created with Sketch.</desc>
    <defs>
        <filter x="-50%" y="-50%" width="200%" height="200%" filterUnits="objectBoundingBox" id="filter-1">
            <feOffset dx="0" dy="5" in="SourceAlpha" result="shadowOffsetOuter1"></feOffset>
            <feGaussianBlur stdDeviation="7.5" in="shadowOffsetOuter1" result="shadowBlurOuter1"></feGaussianBlur>
            <feColorMatrix values="0 0 0 0 0.598107993   0 0 0 0 0.598107993   0 0 0 0 0.598107993  0 0 0 0.5 0" type="matrix" in="shadowBlurOuter1" result="shadowMatrixOuter1"></feColorMatrix>
            <feMerge>
                <feMergeNode in="shadowMatrixOuter1"></feMergeNode>
                <feMergeNode in="SourceGraphic"></feMergeNode>
            </feMerge>
        </filter>
        <path d="M102.002526,105.285804 C102.002526,113.780541 95.1147362,120.666818 86.6181329,120.666818 L15.8184464,120.666818 C7.32184303,120.666818 0.434053302,113.780541 0.434053302,105.285804 L0.434053302,15.3812727 C0.434053302,6.8865354 7.32184303,0 15.8184464,0 L86.6181329,0 C95.1147362,0 102.002526,6.8865354 102.002526,15.3812727 L102.002526,105.285804 Z" id="path-2"></path>
    </defs>
    <g id="Page-1" stroke="none" stroke-width="1" fill="none" fill-rule="evenodd">
        <g id="1" transform="translate(-452.000000, -1781.000000)">
            <g id="Group-8-Copy-2" transform="translate(0.000000, 1400.000000)">
                <g id="macWatch" transform="translate(-135.000000, 134.000000)">
                    <g id="iWatch" filter="url(#filter-1)" transform="translate(602.612484, 257.022939)">
                        <path d="M55.5588226,51.2182896 L98.9641528,41.9038343 C93.4372921,38.471338 91.2425211,31.8827188 90.6372996,26.640389 C90.032078,21.3980591 89.4271157,13.4061745 88.9951109,9.3670488 C88.5631061,5.32792311 86.5747432,3.69520575 83.6360216,2.75007045 C80.6973,1.80493514 67.8183196,0 55.9332613,0 C55.8082756,0 55.6838084,0.00128905524 55.5588226,0.00180467733 C55.4338368,0.00128905524 55.3093697,0 55.1843839,0 C43.2993256,0 30.4203452,1.80493514 27.4816236,2.75007045 C24.542902,3.69520575 22.5545391,5.32792311 22.1225343,9.3670488 C21.6905295,13.4061745 21.0855673,21.3980591 20.4803457,26.640389 C19.8751241,31.8827188 17.6803531,38.471338 12.1534924,41.9038343 L55.5588226,51.2182896 Z" id="Fill-3" fill="#3D3D3D"></path>
                        <path d="M55.5588226,160.599722 L12.1534924,169.914177 C17.6803531,173.346673 19.8751241,179.935292 20.4803457,185.177622 C21.0855673,190.419952 21.6905295,198.411837 22.1225343,202.450962 C22.5545391,206.490088 24.542902,208.122805 27.4816236,209.067941 C30.4203452,210.013076 43.2993256,211.818011 55.1843839,211.818011 C55.3093697,211.818011 55.4338368,211.816722 55.5588226,211.816207 C55.6838084,211.816722 55.8082756,211.818011 55.9332613,211.818011 C67.8183196,211.818011 80.6973,210.013076 83.6360216,209.067941 C86.5747432,208.122805 88.5631061,206.490088 88.9951109,202.450962 C89.4271157,198.411837 90.032078,190.419952 90.6372996,185.177622 C91.2425211,179.935292 93.4372921,173.346673 98.9641528,169.914177 L55.5588226,160.599722 Z" id="Fill-5" fill="#3D3D3D"></path>
                        <path d="M110.249539,151.350584 C110.249539,162.691529 101.110258,171.885107 89.8362914,171.885107 L20.4132473,171.885107 C9.13928111,171.885107 -5.1159077e-13,162.691529 -5.1159077e-13,151.350584 L-5.1159077e-13,61.3355337 C-5.1159077e-13,49.9945884 9.13928111,40.8010104 20.4132473,40.8010104 L89.8362914,40.8010104 C101.110258,40.8010104 110.249539,49.9945884 110.249539,61.3355337 L110.249539,151.350584 Z" id="Fill-7" fill="#E9E9E9"></path>
                        <path d="M115.458178,90.6837115 C115.458178,91.9006155 114.61419,92.8874066 113.573272,92.8874066 L110.97071,92.8874066 C109.929792,92.8874066 108.513325,89.6264354 108.513325,84.7893972 L108.513325,77.8357337 C108.513325,74.7693739 109.929792,71.1847415 110.97071,71.1847415 L113.573272,71.1847415 C114.61419,71.1847415 115.458178,72.1712734 115.458178,73.3884366 L115.458178,90.6837115 Z" id="Fill-11" fill="#E9E9E9"></path>
                        <g id="Screen" transform="translate(4.774586, 46.009650)">
                            <mask id="mask-3" fill="white">
                                <use xlink:href="#path-2"></use>
                            </mask>
                            <use id="Fill-9" fill="#333333" xlink:href="#path-2"></use>
                            <ellipse id="Oval-13-Copy-10" fill="#FFFFFF" mask="url(#mask-3)" cx="78.6416963" cy="60.2810566" rx="11.2301815" ry="11.2301815"></ellipse>
                            <ellipse id="Oval-13-Copy-11" fill="#0D7CAD" mask="url(#mask-3)" cx="64.6187975" cy="36.7940854" rx="11.2301815" ry="11.2301815"></ellipse>
                            <ellipse id="Oval-13-Copy-16" fill="#FFBD2E" mask="url(#mask-3)" cx="51.1351593" cy="13.4877263" rx="9.91973927" ry="9.91973927"></ellipse>
                            <ellipse id="Oval-13-Copy-18" fill="#0D7CAD" mask="url(#mask-3)" cx="25.7906313" cy="16.7026292" rx="8.42849922" ry="8.42849922"></ellipse>
                            <ellipse id="Oval-13-Copy-19" fill="#B5DBEF" mask="url(#mask-3)" cx="14.0911271" cy="38.5597584" rx="8.42849922" ry="8.42849922"></ellipse>
                            <ellipse id="Oval-13-Copy-20" fill="#FFFFFF" mask="url(#mask-3)" cx="14.0911271" cy="82.1039289" rx="8.42849922" ry="8.42849922"></ellipse>
                            <ellipse id="Oval-13-Copy-21" fill="#FFBD2E" mask="url(#mask-3)" cx="25.7906313" cy="104.021407" rx="8.42849922" ry="8.42849922"></ellipse>
                            <ellipse id="Oval-13-Copy-22" fill="#FFFFFF" mask="url(#mask-3)" cx="76.6459479" cy="104.021407" rx="8.42849922" ry="8.42849922"></ellipse>
                            <ellipse id="Oval-13-Copy-23" fill="#B5DBEF" mask="url(#mask-3)" cx="87.9504668" cy="82.1039289" rx="8.42849922" ry="8.42849922"></ellipse>
                            <ellipse id="Oval-13-Copy-26" fill="#0D7CAD" mask="url(#mask-3)" cx="95.5848218" cy="60.3318436" rx="2.93455548" ry="2.93455548"></ellipse>
                            <ellipse id="Oval-13-Copy-27" fill="#B5DBEF" mask="url(#mask-3)" cx="6.63882687" cy="60.3318436" rx="2.93455548" ry="2.93455548"></ellipse>
                            <ellipse id="Oval-13-Copy-24" fill="#FFBD2E" mask="url(#mask-3)" cx="88.2756651" cy="38.3330852" rx="8.42849922" ry="8.42849922"></ellipse>
                            <ellipse id="Oval-13-Copy-25" fill="#FFFFFF" mask="url(#mask-3)" cx="76.6459479" cy="16.7026292" rx="8.42849922" ry="8.42849922"></ellipse>
                            <ellipse id="Oval-13-Copy-17" fill="#B5DBEF" mask="url(#mask-3)" cx="51.1349892" cy="107.23631" rx="9.91973927" ry="9.91973927"></ellipse>
                            <ellipse id="Oval-13-Copy-12" fill="#FFFFFF" mask="url(#mask-3)" cx="37.7479947" cy="36.7940854" rx="11.2301815" ry="11.2301815"></ellipse>
                            <ellipse id="Oval-13-Copy-13" fill="#FFBD2E" mask="url(#mask-3)" cx="23.628282" cy="60.3318436" rx="11.2301815" ry="11.2301815"></ellipse>
                            <ellipse id="Oval-13-Copy-14" fill="#0D7CAD" mask="url(#mask-3)" cx="37.7479947" cy="83.9299509" rx="11.2301815" ry="11.2301815"></ellipse>
                            <ellipse id="Oval-13-Copy-15" fill="#FFBD2E" mask="url(#mask-3)" cx="64.6187975" cy="83.9299509" rx="11.2301815" ry="11.2301815"></ellipse>
                            <path d="M51.1349892,73.053187 C58.1607931,73.053187 63.8563325,67.3576476 63.8563325,60.3318436 C63.8563325,53.3060397 58.1607931,47.6105003 51.1349892,47.6105003 C44.1091852,47.6105003 38.4136458,53.3060397 38.4136458,60.3318436 C38.4136458,67.3576476 44.1091852,73.053187 51.1349892,73.053187 Z" id="centre-circle" fill="#B5DBEF" mask="url(#mask-3)"></path>
                        </g>
                    </g>
                </g>
            </g>
        </g>
    </g>
</svg>