<svg width="146" height="242" xmlns="http://www.w3.org/2000/svg" xmlns:xlink="http://www.w3.org/1999/xlink"><defs><filter x="-50%" y="-50%" width="200%" height="200%" filterUnits="objectBoundingBox" id="a"><feOffset dy="5" in="SourceAlpha" result="shadowOffsetOuter1"/><feGaussianBlur stdDeviation="7.5" in="shadowOffsetOuter1" result="shadowBlurOuter1"/><feColorMatrix values="0 0 0 0 0.598107993 0 0 0 0 0.598107993 0 0 0 0 0.598107993 0 0 0 0.5 0" in="shadowBlurOuter1" result="shadowMatrixOuter1"/><feMerge><feMergeNode in="shadowMatrixOuter1"/><feMergeNode in="SourceGraphic"/></feMerge></filter><path d="M102.003 105.286c0 8.495-6.888 15.38-15.385 15.38h-70.8c-8.496 0-15.384-6.885-15.384-15.38V15.38C.434 6.887 7.322 0 15.818 0h70.8c8.497 0 15.385 6.887 15.385 15.381v89.905Z" id="b"/></defs><g filter="url(#a)" transform="translate(15.612 10.023)" fill="none" fill-rule="evenodd"><path d="m55.559 51.218 43.405-9.314c-5.527-3.433-7.721-10.021-8.327-15.264-.605-5.242-1.21-13.234-1.642-17.273-.432-4.04-2.42-5.672-5.359-6.617C80.697 1.805 67.818 0 55.933 0l-.374.002L55.184 0C43.3 0 30.42 1.805 27.482 2.75c-2.94.945-4.927 2.578-5.36 6.617-.431 4.04-1.036 12.031-1.642 17.273-.605 5.243-2.8 11.831-8.327 15.264l43.406 9.314Zm0 109.382-43.406 9.314c5.527 3.433 7.722 10.021 8.327 15.264.606 5.242 1.21 13.234 1.643 17.273.432 4.04 2.42 5.672 5.359 6.617 2.938.945 15.817 2.75 27.702 2.75l.375-.002.374.002c11.885 0 24.764-1.805 27.703-2.75 2.939-.945 4.927-2.578 5.36-6.617.431-4.04 1.036-12.031 1.641-17.273.606-5.243 2.8-11.831 8.327-15.264L55.56 160.6Z" fill="#3D3D3D"/><path d="M110.25 151.35c0 11.342-9.14 20.535-20.414 20.535H20.413C9.14 171.885 0 162.692 0 151.351V61.336C0 49.995 9.14 40.8 20.413 40.8h69.423c11.274 0 20.414 9.194 20.414 20.535v90.015Z" fill="#E9E9E9"/><path d="M115.458 90.684c0 1.217-.844 2.203-1.885 2.203h-2.602c-1.041 0-2.458-3.26-2.458-8.098v-6.953c0-3.067 1.417-6.651 2.458-6.651h2.602c1.041 0 1.885.986 1.885 2.203v17.296Z" fill="#E9E9E9"/><g transform="translate(4.775 46.01)"><mask id="c" fill="#fff"><use xlink:href="#b"/></mask><use fill="#333" xlink:href="#b"/><circle fill="#FFF" mask="url(#c)" cx="78.642" cy="60.281" r="11.23"/><circle fill="#0D7CAD" mask="url(#c)" cx="64.619" cy="36.794" r="11.23"/><circle fill="#FFBD2E" mask="url(#c)" cx="51.135" cy="13.488" r="9.92"/><circle fill="#0D7CAD" mask="url(#c)" cx="25.791" cy="16.703" r="8.428"/><circle fill="#B5DBEF" mask="url(#c)" cx="14.091" cy="38.56" r="8.428"/><circle fill="#FFF" mask="url(#c)" cx="14.091" cy="82.104" r="8.428"/><circle fill="#FFBD2E" mask="url(#c)" cx="25.791" cy="104.021" r="8.428"/><circle fill="#FFF" mask="url(#c)" cx="76.646" cy="104.021" r="8.428"/><circle fill="#B5DBEF" mask="url(#c)" cx="87.95" cy="82.104" r="8.428"/><circle fill="#0D7CAD" mask="url(#c)" cx="95.585" cy="60.332" r="2.935"/><circle fill="#B5DBEF" mask="url(#c)" cx="6.639" cy="60.332" r="2.935"/><circle fill="#FFBD2E" mask="url(#c)" cx="88.276" cy="38.333" r="8.428"/><circle fill="#FFF" mask="url(#c)" cx="76.646" cy="16.703" r="8.428"/><circle fill="#B5DBEF" mask="url(#c)" cx="51.135" cy="107.236" r="9.92"/><circle fill="#FFF" mask="url(#c)" cx="37.748" cy="36.794" r="11.23"/><circle fill="#FFBD2E" mask="url(#c)" cx="23.628" cy="60.332" r="11.23"/><circle fill="#0D7CAD" mask="url(#c)" cx="37.748" cy="83.93" r="11.23"/><circle fill="#FFBD2E" mask="url(#c)" cx="64.619" cy="83.93" r="11.23"/><path d="M51.135 73.053c7.026 0 12.721-5.695 12.721-12.721S58.161 47.61 51.135 47.61s-12.721 5.695-12.721 12.72c0 7.027 5.695 12.722 12.721 12.722Z" fill="#B5DBEF" mask="url(#c)"/></g></g></svg>