<svg width="146" height="242" viewBox="0 0 146 242" xmlns="http://www.w3.org/2000/svg" xmlns:xlink="http://www.w3.org/1999/xlink"><title>iWatch</title><desc>Created with Sketch.</desc><defs><filter x="-50%" y="-50%" width="200%" height="200%" filterUnits="objectBoundingBox" id="a"><feOffset dy="5" in="SourceAlpha" result="shadowOffsetOuter1"/><feGaussianBlur stdDeviation="7.5" in="shadowOffsetOuter1" result="shadowBlurOuter1"/><feColorMatrix values="0 0 0 0 0.598107993 0 0 0 0 0.598107993 0 0 0 0 0.598107993 0 0 0 0.5 0" in="shadowBlurOuter1" result="shadowMatrixOuter1"/><feMerge><feMergeNode in="shadowMatrixOuter1"/><feMergeNode in="SourceGraphic"/></feMerge></filter><path d="M102.003 105.286c0 8.495-6.888 15.381-15.384 15.381h-70.8c-8.497 0-15.384-6.886-15.384-15.381v-89.905c0-8.495 6.888-15.381 15.384-15.381h70.8c8.497 0 15.384 6.887 15.384 15.381v89.905z" id="b"/></defs><g filter="url(#a)" fill="none"><path d="M71.171 61.241l43.405-9.314c-5.527-3.432-7.722-10.021-8.327-15.263-.605-5.242-1.21-13.234-1.642-17.273-.432-4.039-2.42-5.672-5.359-6.617-2.939-.945-15.818-2.75-27.703-2.75l-.374.002-.374-.002c-11.885 0-24.764 1.805-27.703 2.75-2.939.945-4.927 2.578-5.359 6.617-.432 4.039-1.037 12.031-1.642 17.273-.605 5.242-2.8 11.831-8.327 15.263l43.405 9.314z" fill="#3D3D3D"/><path d="M71.171 170.623l-43.405 9.314c5.527 3.432 7.722 10.021 8.327 15.263.605 5.242 1.21 13.234 1.642 17.273.432 4.039 2.42 5.672 5.359 6.617 2.939.945 15.818 2.75 27.703 2.75l.374-.002.374.002c11.885 0 24.764-1.805 27.703-2.75 2.939-.945 4.927-2.578 5.359-6.617.432-4.039 1.037-12.031 1.642-17.273.605-5.242 2.8-11.831 8.327-15.263l-43.405-9.314z" fill="#3D3D3D"/><path d="M125.862 161.374c0 11.341-9.139 20.535-20.413 20.535h-69.423c-11.274 0-20.413-9.194-20.413-20.535v-90.015c0-11.341 9.139-20.535 20.413-20.535h69.423c11.274 0 20.413 9.194 20.413 20.535v90.015z" fill="#E9E9E9"/><path d="M131.07 100.707c0 1.217-.844 2.204-1.885 2.204h-2.603c-1.041 0-2.457-3.261-2.457-8.098v-6.954c0-3.066 1.416-6.651 2.457-6.651h2.603c1.041 0 1.885.987 1.885 2.204v17.295z" fill="#E9E9E9"/><g transform="translate(20.387 56.033)"><mask id="c"><use xlink:href="#b"/></mask><use fill="#333" xlink:href="#b"/><ellipse fill="#fff" mask="url(#c)" cx="78.642" cy="60.281" rx="11.23" ry="11.23"/><ellipse fill="#0D7CAD" mask="url(#c)" cx="64.619" cy="36.794" rx="11.23" ry="11.23"/><ellipse fill="#FFBD2E" mask="url(#c)" cx="51.135" cy="13.488" rx="9.92" ry="9.92"/><ellipse fill="#0D7CAD" mask="url(#c)" cx="25.791" cy="16.703" rx="8.428" ry="8.428"/><ellipse fill="#B5DBEF" mask="url(#c)" cx="14.091" cy="38.56" rx="8.428" ry="8.428"/><ellipse fill="#fff" mask="url(#c)" cx="14.091" cy="82.104" rx="8.428" ry="8.428"/><ellipse fill="#FFBD2E" mask="url(#c)" cx="25.791" cy="104.021" rx="8.428" ry="8.428"/><ellipse fill="#fff" mask="url(#c)" cx="76.646" cy="104.021" rx="8.428" ry="8.428"/><ellipse fill="#B5DBEF" mask="url(#c)" cx="87.95" cy="82.104" rx="8.428" ry="8.428"/><ellipse fill="#0D7CAD" mask="url(#c)" cx="95.585" cy="60.332" rx="2.935" ry="2.935"/><ellipse fill="#B5DBEF" mask="url(#c)" cx="6.639" cy="60.332" rx="2.935" ry="2.935"/><ellipse fill="#FFBD2E" mask="url(#c)" cx="88.276" cy="38.333" rx="8.428" ry="8.428"/><ellipse fill="#fff" mask="url(#c)" cx="76.646" cy="16.703" rx="8.428" ry="8.428"/><ellipse fill="#B5DBEF" mask="url(#c)" cx="51.135" cy="107.236" rx="9.92" ry="9.92"/><ellipse fill="#fff" mask="url(#c)" cx="37.748" cy="36.794" rx="11.23" ry="11.23"/><ellipse fill="#FFBD2E" mask="url(#c)" cx="23.628" cy="60.332" rx="11.23" ry="11.23"/><ellipse fill="#0D7CAD" mask="url(#c)" cx="37.748" cy="83.93" rx="11.23" ry="11.23"/><ellipse fill="#FFBD2E" mask="url(#c)" cx="64.619" cy="83.93" rx="11.23" ry="11.23"/><path d="M51.135 73.053c7.026 0 12.721-5.696 12.721-12.721 0-7.026-5.696-12.721-12.721-12.721-7.026 0-12.721 5.696-12.721 12.721 0 7.026 5.696 12.721 12.721 12.721z" fill="#B5DBEF" mask="url(#c)"/></g></g></svg>