<svg xmlns="http://www.w3.org/2000/svg" width="360" height="210" viewBox="0 0 360 210"><path fill="#0072BC" stroke="#fff" d="M16.37 123.484l131.234 75.782M3.263 131.055l131.234 75.781"/><path fill="#0072BC" stroke="#fff" stroke-linecap="round" d="M3.246 131.086l131.234 75.781"/><path fill="#0072BC" stroke="#fff" d="M29.493 115.93l131.235 75.781M42.626 108.352l131.234 75.781M55.74 100.775l131.235 75.782M68.88 93.179l131.234 75.782M81.987 85.597l131.235 75.782M95.104 78.037l131.235 75.781M108.233 70.445l131.235 75.782M121.365 62.908l131.235 75.781M134.48 55.287l131.235 75.781M147.64 47.714l131.234 75.782M160.764 40.14l131.234 75.782M173.856 32.564l131.235 75.782M186.974 24.986l131.234 75.781M200.098 17.41l131.234 75.781M213.221 9.835l131.234 75.782"/><path fill="#0072BC" stroke="#fff" stroke-linecap="round" d="M226.354 2.276l131.234 75.781"/><path fill="#0072BC" stroke="#fff" d="M108.275 191.668l13.154 7.625M121.357 199.266l223.098-128.796"/><path fill="#0072BC" stroke="#fff" stroke-linecap="round" d="M134.48 206.867l223.098-128.794"/><path fill="#0072BC" stroke="#fff" d="M108.234 191.676l223.098-128.796M95.11 184.098l223.098-128.796M81.987 176.539l223.098-128.795M68.863 168.977l223.098-128.795M55.74 161.387l223.098-128.796M42.617 153.791l223.098-128.795M29.493 146.213l223.098-128.796M16.37 138.637l223.098-128.796"/><path fill="#0072BC" stroke="#fff" stroke-linecap="round" d="M3.247 131.07l223.098-128.794"/></svg>