<svg width="598" height="499" viewBox="0 0 598 499" xmlns="http://www.w3.org/2000/svg" xmlns:xlink="http://www.w3.org/1999/xlink"><title>macWatch</title><desc>Created with Sketch.</desc><defs><path d="M364.239 383.404h-290.016v-363.616c0-10.93 8.877-19.789 19.83-19.789h525.5c10.956 0 19.83 8.859 19.83 19.789v363.616h-275.144z" id="p"/><filter x="-50%" y="-50%" width="200%" height="200%" filterUnits="objectBoundingBox" id="o"><feOffset dy="4" in="SourceAlpha" result="shadowOffsetOuter1"/><feGaussianBlur stdDeviation="7.5" in="shadowOffsetOuter1" result="shadowBlurOuter1"/><feColorMatrix values="0 0 0 0 0.580392157 0 0 0 0 0.580392157 0 0 0 0 0.580392157 0 0 0 0.5 0" in="shadowBlurOuter1"/></filter><path d="M713.532 383.404c0 16.479-13.055 29.84-29.162 29.84h-655.131c-16.106 0-29.164-13.361-29.164-29.84h713.457z" id="r"/><filter x="-50%" y="-50%" width="200%" height="200%" filterUnits="objectBoundingBox" id="q"><feOffset dx="2" in="SourceAlpha" result="shadowOffsetOuter1"/><feGaussianBlur stdDeviation="7.5" in="shadowOffsetOuter1" result="shadowBlurOuter1"/><feColorMatrix values="0 0 0 0 0.579161352 0 0 0 0 0.579161352 0 0 0 0 0.579161352 0 0 0 0.5 0" in="shadowBlurOuter1"/></filter><path id="s" d="M0 344h535.5v-344h-535.5z"/><path id="a" d="M0 0h170v100h-170z"/><mask id="u" x="0" y="0" width="170" height="100"><use xlink:href="#a"/></mask><path id="b" d="M0 0h170v100h-170z"/><mask id="v" x="0" y="0" width="170" height="100"><use xlink:href="#b"/></mask><ellipse id="c" cx="9" cy="9" rx="3" ry="3"/><mask id="w" x="0" y="0" width="6" height="6"><use xlink:href="#c"/></mask><ellipse id="d" cx="18" cy="9" rx="3" ry="3"/><mask id="x" x="0" y="0" width="6" height="6"><use xlink:href="#d"/></mask><ellipse id="e" cx="27" cy="9" rx="3" ry="3"/><mask id="y" x="0" y="0" width="6" height="6"><use xlink:href="#e"/></mask><path id="f" d="M0 0h80v100h-80z"/><mask id="z" x="0" y="0" width="80" height="100"><use xlink:href="#f"/></mask><path id="g" d="M0 0h120v100h-120z"/><mask id="A" x="0" y="0" width="120" height="100"><use xlink:href="#g"/></mask><path id="h" d="M410 155h80v45h-80z"/><mask id="B" x="0" y="0" width="80" height="45"><use xlink:href="#h"/></mask><path id="i" d="M410 210h80v45h-80z"/><mask id="C" x="0" y="0" width="80" height="45"><use xlink:href="#i"/></mask><path id="j" d="M320 265h170v90h-170z"/><mask id="D" x="0" y="0" width="170" height="90"><use xlink:href="#j"/></mask><path id="k" d="M-40 45h170v100h-170z"/><mask id="E" x="0" y="0" width="170" height="100"><use xlink:href="#k"/></mask><path id="l" d="M140 265h170v21h-170z"/><mask id="F" x="0" y="0" width="170" height="21"><use xlink:href="#l"/></mask><path id="m" d="M-40 155h170v100h-170z"/><mask id="G" x="0" y="0" width="170" height="100"><use xlink:href="#m"/></mask><path id="n" d="M140 296h170v59h-170z"/><mask id="H" x="0" y="0" width="170" height="59"><use xlink:href="#n"/></mask><filter x="-50%" y="-50%" width="200%" height="200%" filterUnits="objectBoundingBox" id="I"><feOffset dy="5" in="SourceAlpha" result="shadowOffsetOuter1"/><feGaussianBlur stdDeviation="7.5" in="shadowOffsetOuter1" result="shadowBlurOuter1"/><feColorMatrix values="0 0 0 0 0.598107993 0 0 0 0 0.598107993 0 0 0 0 0.598107993 0 0 0 0.5 0" in="shadowBlurOuter1" result="shadowMatrixOuter1"/><feMerge><feMergeNode in="shadowMatrixOuter1"/><feMergeNode in="SourceGraphic"/></feMerge></filter><path d="M102.003 105.286c0 8.495-6.888 15.381-15.384 15.381h-70.8c-8.497 0-15.384-6.886-15.384-15.381v-89.905c0-8.495 6.888-15.381 15.384-15.381h70.8c8.497 0 15.384 6.887 15.384 15.381v89.905z" id="J"/></defs><g fill="none"><g><g transform="translate(-135 10.977)"><use fill="#000" filter="url(#o)" xlink:href="#p"/><use fill="#3D3D3D" xlink:href="#p"/></g><g transform="translate(-135 10.977)"><use fill="#000" filter="url(#q)" xlink:href="#r"/><use fill="#E7E5E7" xlink:href="#r"/></g><path d="M271.989 394.381c0 5.494-4.551 9.947-10.166 9.947h-79.135c-5.612 0-10.166-4.453-10.166-9.947h99.468z" fill="#B3B2B2"/><g id="Screen" transform="translate(-45.4 30.477)"><mask id="t"><use xlink:href="#s"/></mask><use fill="#0D7CAD" xlink:href="#s"/><g transform="translate(320 45)" mask="url(#t)" stroke="#fff"><use id="Rectangle-116" mask="url(#u)" xlink:href="#a"/><path d="M.497.467l169.006 99.065" id="Line"/><path d="M169.503.467l-169.006 99.065" id="Line-Copy-188"/></g><g transform="translate(140 45)" mask="url(#t)" stroke="#fff"><use id="Rectangle-116" mask="url(#v)" xlink:href="#b"/><path d="M1.5 17.5h167" id="Line"/><use mask="url(#w)" xlink:href="#c"/><use mask="url(#x)" xlink:href="#d"/><use mask="url(#y)" xlink:href="#e"/></g><g transform="translate(320 155)" mask="url(#t)" stroke="#fff"><use id="Rectangle-116" mask="url(#z)" xlink:href="#f"/><path d="M.471.5l79.059 99" id="Line"/><path d="M79.529.5l-79.059 99" id="Line-Copy-188"/></g><g transform="translate(10 265)" mask="url(#t)" stroke="#fff"><use id="Rectangle-116" mask="url(#A)" xlink:href="#g"/><path d="M.706.5l118.588 99" id="Line"/><path d="M119.294.5l-118.588 99"/></g><use mask="url(#B)" xlink:href="#h" id="Rectangle-116" stroke-width="2" stroke="#fff"/><use mask="url(#C)" xlink:href="#i" stroke-width="2" stroke="#fff"/><use mask="url(#D)" xlink:href="#j" stroke-width="2" stroke="#fff"/><use mask="url(#E)" xlink:href="#k" stroke-width="2" stroke="#fff"/><g mask="url(#t)" stroke="#fff" stroke-linecap="square"><path d="M140.5 155.5h169" id="Line"/><path d="M140.5 163.5h169"/><path d="M140.5 171.5h169"/><path d="M140.5 179.5h169"/><path d="M140.5 187.5h169"/><path d="M140.5 195.5h169"/><path d="M140.5 203.5h169"/></g><use mask="url(#F)" xlink:href="#l" stroke-width="2" stroke="#fff"/><use mask="url(#G)" xlink:href="#m" stroke-width="2" stroke="#fff"/><use mask="url(#H)" xlink:href="#n" stroke-width="2" stroke="#fff"/><path d="M30.898 21.25h458.638" mask="url(#t)" stroke-linecap="square" stroke="#fff" stroke-width=".5"/></g><path d="M230.392 16.403c2.498 0 4.523 2.023 4.523 4.518 0 2.499-2.025 4.524-4.523 4.524-2.498 0-4.52-2.025-4.52-4.524 0-2.496 2.022-4.518 4.52-4.518" fill="#5D5D5D"/></g><g filter="url(#I)"><path d="M523.171 318.241l43.405-9.314c-5.527-3.432-7.722-10.021-8.327-15.263-.605-5.242-1.21-13.234-1.642-17.273-.432-4.039-2.42-5.672-5.359-6.617-2.939-.945-15.818-2.75-27.703-2.75l-.374.002-.374-.002c-11.885 0-24.764 1.805-27.703 2.75-2.939.945-4.927 2.578-5.359 6.617-.432 4.039-1.037 12.031-1.642 17.273-.605 5.242-2.8 11.831-8.327 15.263l43.405 9.314z" fill="#3D3D3D"/><path d="M523.171 427.623l-43.405 9.314c5.527 3.432 7.722 10.021 8.327 15.263.605 5.242 1.21 13.234 1.642 17.273.432 4.039 2.42 5.672 5.359 6.617 2.939.945 15.818 2.75 27.703 2.75l.374-.002.374.002c11.885 0 24.764-1.805 27.703-2.75 2.939-.945 4.927-2.578 5.359-6.617.432-4.039 1.037-12.031 1.642-17.273.605-5.242 2.8-11.831 8.327-15.263l-43.405-9.314z" fill="#3D3D3D"/><path d="M577.862 418.374c0 11.341-9.139 20.535-20.413 20.535h-69.423c-11.274 0-20.413-9.194-20.413-20.535v-90.015c0-11.341 9.139-20.535 20.413-20.535h69.423c11.274 0 20.413 9.194 20.413 20.535v90.015z" fill="#E9E9E9"/><path d="M583.07 357.707c0 1.217-.844 2.204-1.885 2.204h-2.603c-1.041 0-2.457-3.261-2.457-8.098v-6.954c0-3.066 1.416-6.651 2.457-6.651h2.603c1.041 0 1.885.987 1.885 2.204v17.295z" fill="#E9E9E9"/><g transform="translate(472.387 313.033)"><mask id="K"><use xlink:href="#J"/></mask><use fill="#333" xlink:href="#J"/><ellipse fill="#fff" mask="url(#K)" cx="78.642" cy="60.281" rx="11.23" ry="11.23"/><ellipse fill="#0D7CAD" mask="url(#K)" cx="64.619" cy="36.794" rx="11.23" ry="11.23"/><ellipse fill="#FFBD2E" mask="url(#K)" cx="51.135" cy="13.488" rx="9.92" ry="9.92"/><ellipse fill="#0D7CAD" mask="url(#K)" cx="25.791" cy="16.703" rx="8.428" ry="8.428"/><ellipse fill="#B5DBEF" mask="url(#K)" cx="14.091" cy="38.56" rx="8.428" ry="8.428"/><ellipse fill="#fff" mask="url(#K)" cx="14.091" cy="82.104" rx="8.428" ry="8.428"/><ellipse fill="#FFBD2E" mask="url(#K)" cx="25.791" cy="104.021" rx="8.428" ry="8.428"/><ellipse fill="#fff" mask="url(#K)" cx="76.646" cy="104.021" rx="8.428" ry="8.428"/><ellipse fill="#B5DBEF" mask="url(#K)" cx="87.95" cy="82.104" rx="8.428" ry="8.428"/><ellipse fill="#0D7CAD" mask="url(#K)" cx="95.585" cy="60.332" rx="2.935" ry="2.935"/><ellipse fill="#B5DBEF" mask="url(#K)" cx="6.639" cy="60.332" rx="2.935" ry="2.935"/><ellipse fill="#FFBD2E" mask="url(#K)" cx="88.276" cy="38.333" rx="8.428" ry="8.428"/><ellipse fill="#fff" mask="url(#K)" cx="76.646" cy="16.703" rx="8.428" ry="8.428"/><ellipse fill="#B5DBEF" mask="url(#K)" cx="51.135" cy="107.236" rx="9.92" ry="9.92"/><ellipse fill="#fff" mask="url(#K)" cx="37.748" cy="36.794" rx="11.23" ry="11.23"/><ellipse fill="#FFBD2E" mask="url(#K)" cx="23.628" cy="60.332" rx="11.23" ry="11.23"/><ellipse fill="#0D7CAD" mask="url(#K)" cx="37.748" cy="83.93" rx="11.23" ry="11.23"/><ellipse fill="#FFBD2E" mask="url(#K)" cx="64.619" cy="83.93" rx="11.23" ry="11.23"/><path d="M51.135 73.053c7.026 0 12.721-5.696 12.721-12.721 0-7.026-5.696-12.721-12.721-12.721-7.026 0-12.721 5.696-12.721 12.721 0 7.026 5.696 12.721 12.721 12.721z" fill="#B5DBEF" mask="url(#K)"/></g></g></g></svg>