<svg width="156" height="393" xmlns="http://www.w3.org/2000/svg" xmlns:xlink="http://www.w3.org/1999/xlink"><defs><mask id="h" maskContentUnits="userSpaceOnUse" maskUnits="objectBoundingBox" x="-1" y="-1" width="191.494" height="392.206"><path fill="#fff" d="M-.554-.512H190.94v392.206H-.554z"/><use xlink:href="#a"/></mask><mask id="i" maskContentUnits="userSpaceOnUse" maskUnits="objectBoundingBox" x="0" y="0" width="173.734" height="303.388" fill="#fff"><use xlink:href="#b"/></mask><mask id="j" maskContentUnits="userSpaceOnUse" maskUnits="objectBoundingBox" x="0" y="0" width="173.734" height="303.388" fill="#fff"><use xlink:href="#b"/></mask><mask id="l" maskContentUnits="userSpaceOnUse" maskUnits="objectBoundingBox" x="0" y="0" width="139" height="4.702" fill="#fff"><use xlink:href="#c"/></mask><mask id="m" maskContentUnits="userSpaceOnUse" maskUnits="objectBoundingBox" x="0" y="0" width="64.242" height="4.702" fill="#fff"><use xlink:href="#d"/></mask><mask id="n" maskContentUnits="userSpaceOnUse" maskUnits="objectBoundingBox" x="0" y="0" width="64.242" height="4.702" fill="#fff"><use xlink:href="#e"/></mask><mask id="o" maskContentUnits="userSpaceOnUse" maskUnits="objectBoundingBox" x="0" y="0" width="98.185" height="4.702" fill="#fff"><use xlink:href="#f"/></mask><mask id="p" maskContentUnits="userSpaceOnUse" maskUnits="objectBoundingBox" x="0" y="0" width="36.491" height="4.801" fill="#fff"><use xlink:href="#g"/></mask><path d="M.446 22.48C.446 10.334 10.3.488 22.438.488h145.51c12.146 0 21.992 9.841 21.992 21.992v346.223c0 12.145-9.855 21.991-21.992 21.991H22.438c-12.146 0-21.992-9.84-21.992-21.991V22.48Z" id="a"/><path id="b" d="M.298.574h173.734v303.388H.298z"/><path id="c" d="M17.693 254.056h139v4.702h-139z"/><path id="d" d="M17.693 281.852h64.242v4.702H17.693z"/><path id="e" d="M17.693 263.719h64.242v4.702H17.693z"/><path id="f" d="M17.693 272.743h98.185v4.702H17.693z"/><rect id="g" x="81.906" y="20.08" width="36.491" height="4.801" rx="2.401"/></defs><g transform="translate(1 1)" fill="none" fill-rule="evenodd"><use stroke="#FFF" mask="url(#h)" stroke-width="2" xlink:href="#a"/><path d="M95.195 384.162c7.842 0 14.198-6.357 14.198-14.198 0-7.842-6.356-14.198-14.198-14.198-7.841 0-14.198 6.356-14.198 14.198 0 7.841 6.357 14.198 14.198 14.198Z" stroke="#FFF" stroke-width="1.5"/><g transform="translate(8.532 42.381)"><mask id="k" fill="#fff"><use xlink:href="#b"/></mask><g stroke="#FFF" mask="url(#i)" stroke-width="2"><use mask="url(#j)" xlink:href="#b"/></g><g mask="url(#k)" stroke-width="2" stroke="#FFF"><use mask="url(#l)" xlink:href="#c"/></g><g mask="url(#k)" stroke-width="2" stroke="#FFF"><use mask="url(#m)" xlink:href="#d"/></g><g mask="url(#k)" stroke-width="2" stroke="#FFF"><use mask="url(#n)" xlink:href="#e"/></g><g mask="url(#k)" stroke-width="2" stroke="#FFF"><use mask="url(#o)" xlink:href="#f"/></g><circle stroke="#FFF" mask="url(#k)" transform="rotate(-180 87.22 141.06)" cx="87.22" cy="141.059" r="69.211"/><path stroke="#FFF" mask="url(#k)" transform="rotate(-180 121.82 106.454)" d="m156.42 141.06.011-69.156-69.222-.056"/><path d="M.858 35.811h173.667M14.352 19.085l6-6m-6 6.038 6 6" stroke="#FFF" stroke-linecap="square" mask="url(#k)"/></g><use stroke="#FFF" mask="url(#p)" stroke-width="2" xlink:href="#g"/><circle stroke="#FFF" cx="74.39" cy="22.481" r="2.401"/></g></svg>