<svg width="219" height="419" xmlns="http://www.w3.org/2000/svg" xmlns:xlink="http://www.w3.org/1999/xlink"><defs><filter x="-50%" y="-50%" width="200%" height="200%" filterUnits="objectBoundingBox" id="b"><feMorphology radius="3" operator="dilate" in="SourceAlpha" result="shadowSpreadOuter1"/><feOffset dx="-2" dy="2" in="shadowSpreadOuter1" result="shadowOffsetOuter1"/><feGaussianBlur stdDeviation="6.5" in="shadowOffsetOuter1" result="shadowBlurOuter1"/><feComposite in="shadowBlurOuter1" in2="SourceAlpha" operator="out" result="shadowBlurOuter1"/><feColorMatrix values="0 0 0 0 0.396078431 0 0 0 0 0.396078431 0 0 0 0 0.396078431 0 0 0 0.5 0" in="shadowBlurOuter1"/></filter><filter x="-50%" y="-50%" width="200%" height="200%" filterUnits="objectBoundingBox" id="g"><feOffset dy="1" in="SourceAlpha" result="shadowOffsetOuter1"/><feGaussianBlur stdDeviation="2" in="shadowOffsetOuter1" result="shadowBlurOuter1"/><feColorMatrix values="0 0 0 0 0.348267432 0 0 0 0 0.348267432 0 0 0 0 0.348267432 0 0 0 0.5 0" in="shadowBlurOuter1"/></filter><filter x="-50%" y="-50%" width="200%" height="200%" filterUnits="objectBoundingBox" id="i"><feOffset dy="1" in="SourceAlpha" result="shadowOffsetOuter1"/><feGaussianBlur stdDeviation="2" in="shadowOffsetOuter1" result="shadowBlurOuter1"/><feColorMatrix values="0 0 0 0 0.348267432 0 0 0 0 0.348267432 0 0 0 0 0.348267432 0 0 0 0.5 0" in="shadowBlurOuter1"/></filter><path id="d" d="M.606.189H174.34v303.388H.606z"/><path d="M155.77 29.348a8.464 8.464 0 1 0 0-16.927 8.464 8.464 0 0 0 0 16.927Z" id="h"/><path d="M155.77 54.738a8.464 8.464 0 1 0 0-16.927 8.464 8.464 0 0 0 0 16.927Z" id="j"/><linearGradient x1="50%" y1="0%" x2="50%" y2="59.915%" id="e"><stop stop-color="#BBE1F5" offset="0%"/><stop stop-color="#FFF" offset="100%"/></linearGradient><rect id="a" x=".446" y=".488" width="189.494" height="390.206" rx="22"/><mask id="c" maskContentUnits="userSpaceOnUse" maskUnits="objectBoundingBox" x="-3" y="-3" width="195.494" height="396.206"><path fill="#fff" d="M-2.554-2.512H192.94v396.206H-2.554z"/><use xlink:href="#a"/></mask></defs><g transform="translate(16 12)" fill="none" fill-rule="evenodd"><use fill="#000" filter="url(#b)" xlink:href="#a"/><use fill="#333" xlink:href="#a"/><use stroke="#333" mask="url(#c)" stroke-width="6" xlink:href="#a"/><path d="M95.195 384.162c7.842 0 14.198-6.357 14.198-14.198 0-7.842-6.356-14.198-14.198-14.198-7.841 0-14.198 6.356-14.198 14.198 0 7.841 6.357 14.198 14.198 14.198Z" stroke="#484F53" stroke-width="1.5"/><g transform="translate(7.806 43.384)"><mask id="f" fill="#fff"><use xlink:href="#d"/></mask><use fill="url(#e)" xlink:href="#d"/><path fill="#FFF" mask="url(#f)" d="M10.01 13.361h96.86v4.702H10.01zm-.001 9.404h64.887v4.702H10.009zm0 18.808h39.497v4.702H10.009zm0-9.404h79.933v4.702H10.009z"/><rect fill="#FFCE4B" mask="url(#f)" x="120.976" y="10.54" width="45.139" height="20.689" rx="10.344"/><g mask="url(#f)"><use fill="#000" filter="url(#g)" xlink:href="#h"/><use fill="#FFF" xlink:href="#h"/></g><rect fill="#A8D8F2" mask="url(#f)" x="120.976" y="35.931" width="45.139" height="20.689" rx="10.344"/><g mask="url(#f)"><use fill="#000" filter="url(#i)" xlink:href="#j"/><use fill="#FFF" xlink:href="#j"/></g><path d="M110.182 370.85c102.066 0 184.808-25.33 184.808-56.576 0-14.12-28.837-79.515-56.515-79.515-27.679 0-31.631 30.23-60.94 30.23-42.12 0-34.516-63.235-72.357-63.235-37.087 0-34.901 56.922-60.934 56.765-30.65-.185-24.946-11.881-54.186-11.881s-64.684 49.002-64.684 67.636c0 31.246 82.741 56.576 184.808 56.576Z" fill="#A8D8F2" mask="url(#f)"/><path d="M15.202 358.625c102.067 0 184.808-25.33 184.808-56.576 0-14.121-27.29-79.473-54.97-79.473-27.678 0-33.176 30.187-62.484 30.187-42.12 0-35.479-63.7-73.32-63.7-37.087 0-33.939 57.388-59.971 57.23-30.65-.184-24.946-11.88-54.187-11.88-29.24 0-64.684 49.002-64.684 67.636 0 31.246 82.742 56.576 184.808 56.576Z" fill="#FFD155" opacity=".8" mask="url(#f)"/></g><rect fill="#484F53" x="81.906" y="20.08" width="36.491" height="4.801" rx="2.401"/><circle fill="#484F53" cx="74.39" cy="22.481" r="2.401"/></g></svg>