<svg width="192" height="393" xmlns="http://www.w3.org/2000/svg" xmlns:xlink="http://www.w3.org/1999/xlink"><defs><mask id="h" maskContentUnits="userSpaceOnUse" maskUnits="objectBoundingBox" x="-1" y="-1" width="191.494" height="392.206"><path fill="#fff" d="M-.554-.512H190.94v392.206H-.554z"/><use xlink:href="#a"/></mask><mask id="i" maskContentUnits="userSpaceOnUse" maskUnits="objectBoundingBox" x="0" y="0" width="173.734" height="303.388" fill="#fff"><use xlink:href="#b"/></mask><mask id="j" maskContentUnits="userSpaceOnUse" maskUnits="objectBoundingBox" x="0" y="0" width="173.734" height="303.388" fill="#fff"><use xlink:href="#b"/></mask><mask id="l" maskContentUnits="userSpaceOnUse" maskUnits="objectBoundingBox" x="0" y="0" width="96.861" height="4.702" fill="#fff"><use xlink:href="#c"/></mask><mask id="m" maskContentUnits="userSpaceOnUse" maskUnits="objectBoundingBox" x="0" y="0" width="64.887" height="4.702" fill="#fff"><use xlink:href="#d"/></mask><mask id="n" maskContentUnits="userSpaceOnUse" maskUnits="objectBoundingBox" x="0" y="0" width="48.43" height="4.702" fill="#fff"><use xlink:href="#e"/></mask><mask id="o" maskContentUnits="userSpaceOnUse" maskUnits="objectBoundingBox" x="0" y="0" width="79.933" height="4.702" fill="#fff"><use xlink:href="#f"/></mask><mask id="p" maskContentUnits="userSpaceOnUse" maskUnits="objectBoundingBox" x="0" y="0" width="36.491" height="4.801" fill="#fff"><use xlink:href="#g"/></mask><path id="b" d="M.606.189H174.34v303.388H.606z"/><path id="c" d="M9.456 10.427h96.861v4.702H9.456z"/><path id="d" d="M9.456 19.831h64.887v4.702H9.456z"/><path id="e" d="M9.456 38.639h48.43v4.702H9.456z"/><path id="f" d="M9.456 29.235h79.933v4.702H9.456z"/><rect id="a" x=".446" y=".488" width="189.494" height="390.206" rx="22"/><rect id="g" x="81.906" y="20.08" width="36.491" height="4.801" rx="2.401"/></defs><g transform="translate(1 1)" fill="none" fill-rule="evenodd"><use stroke="#FFF" mask="url(#h)" stroke-width="2" xlink:href="#a"/><path d="M95.195 384.162c7.842 0 14.198-6.357 14.198-14.198 0-7.842-6.356-14.198-14.198-14.198-7.841 0-14.198 6.356-14.198 14.198 0 7.841 6.357 14.198 14.198 14.198Z" stroke="#FFF"/><g transform="translate(7.693 43.381)"><mask id="k" fill="#fff"><use xlink:href="#b"/></mask><g stroke="#FFF" mask="url(#i)" stroke-width="2"><use mask="url(#j)" xlink:href="#b"/></g><path d="M15.202 358.625c102.067 0 184.808-25.33 184.808-56.576 0-14.121-27.29-79.473-54.97-79.473-27.678 0-33.176 30.187-62.484 30.187-42.12 0-35.479-63.7-73.32-63.7-37.087 0-33.939 57.388-59.971 57.23-30.65-.184-24.946-11.88-54.187-11.88-29.24 0-64.684 49.002-64.684 67.636 0 31.246 82.742 56.576 184.808 56.576Z" stroke="#FFF" mask="url(#k)"/><g mask="url(#k)" stroke-width="2" stroke="#FFF"><use mask="url(#l)" xlink:href="#c"/></g><g mask="url(#k)" stroke-width="2" stroke="#FFF"><use mask="url(#m)" xlink:href="#d"/></g><g mask="url(#k)" stroke-width="2" stroke="#FFF"><use mask="url(#n)" xlink:href="#e"/></g><g mask="url(#k)" stroke-width="2" stroke="#FFF"><use mask="url(#o)" xlink:href="#f"/></g></g><use stroke="#FFF" mask="url(#p)" stroke-width="2" xlink:href="#g"/><circle stroke="#FFF" cx="74.39" cy="22.481" r="2.401"/></g></svg>