<svg width="591" height="419" viewBox="0 0 591 419" xmlns="http://www.w3.org/2000/svg" xmlns:xlink="http://www.w3.org/1999/xlink"><title>Phones</title><desc>Created with Sketch.</desc><defs><path d="M.446 22.48c0-12.145 9.855-21.991 21.992-21.991h145.51c12.146 0 21.992 9.841 21.992 21.991v346.223c0 12.145-9.855 21.991-21.992 21.991h-145.51c-12.146 0-21.992-9.841-21.992-21.991v-346.223z" id="a"/><mask id="p" x="-1" y="-1" width="191.494" height="392.206"><path fill="#fff" d="M-.554-.512h191.494v392.206h-191.494z"/><use xlink:href="#a"/></mask><path id="b" d="M.298.574h173.734v303.388h-173.734z"/><mask x="0" y="0" width="173.734" height="303.388"><use xlink:href="#b"/></mask><mask id="q" x="0" y="0" width="173.734" height="303.388"><use xlink:href="#b"/></mask><path id="c" d="M17.693 254.056h139v4.702h-139z"/><mask id="r" x="0" y="0" width="139" height="4.702"><use xlink:href="#c"/></mask><path id="d" d="M17.693 281.852h64.242v4.702h-64.242z"/><mask id="s" x="0" y="0" width="64.242" height="4.702"><use xlink:href="#d"/></mask><path id="e" d="M17.693 263.719h64.242v4.702h-64.242z"/><mask id="t" x="0" y="0" width="64.242" height="4.702"><use xlink:href="#e"/></mask><path id="f" d="M17.693 272.743h98.185v4.702h-98.185z"/><mask id="u" x="0" y="0" width="98.185" height="4.702"><use xlink:href="#f"/></mask><rect id="g" x="81.906" y="20.08" width="36.491" height="4.801" rx="2.401"/><mask id="w" x="0" y="0" width="36.491" height="4.801"><use xlink:href="#g"/></mask><rect id="h" x=".446" y=".488" width="189.494" height="390.206" rx="22"/><mask id="x" x="-1" y="-1" width="191.494" height="392.206"><path fill="#fff" d="M-.554-.512h191.494v392.206h-191.494z"/><use xlink:href="#h"/></mask><path id="i" d="M.606.189h173.734v303.388h-173.734z"/><mask x="0" y="0" width="173.734" height="303.388"><use xlink:href="#i"/></mask><mask id="y" x="0" y="0" width="173.734" height="303.388"><use xlink:href="#i"/></mask><path id="j" d="M9.456 10.427h96.861v4.702h-96.861z"/><mask id="A" x="0" y="0" width="96.861" height="4.702"><use xlink:href="#j"/></mask><path id="k" d="M9.456 19.831h64.887v4.702h-64.887z"/><mask id="B" x="0" y="0" width="64.887" height="4.702"><use xlink:href="#k"/></mask><path id="l" d="M9.456 38.639h48.43v4.702h-48.43z"/><mask id="C" x="0" y="0" width="48.43" height="4.702"><use xlink:href="#l"/></mask><path id="m" d="M9.456 29.235h79.933v4.702h-79.933z"/><mask id="D" x="0" y="0" width="79.933" height="4.702"><use xlink:href="#m"/></mask><rect id="n" x="81.906" y="20.08" width="36.491" height="4.801" rx="2.401"/><mask id="E" x="0" y="0" width="36.491" height="4.801"><use xlink:href="#n"/></mask><rect id="o" x=".446" y=".488" width="189.494" height="390.206" rx="22"/><filter x="-50%" y="-50%" width="200%" height="200%" filterUnits="objectBoundingBox" id="F"><feMorphology radius="3" operator="dilate" in="SourceAlpha" result="shadowSpreadOuter1"/><feOffset dx="-2" dy="2" in="shadowSpreadOuter1" result="shadowOffsetOuter1"/><feGaussianBlur stdDeviation="6.5" in="shadowOffsetOuter1" result="shadowBlurOuter1"/><feComposite in="shadowBlurOuter1" in2="SourceAlpha" operator="out" result="shadowBlurOuter1"/><feColorMatrix values="0 0 0 0 0.396078431 0 0 0 0 0.396078431 0 0 0 0 0.396078431 0 0 0 0.5 0" in="shadowBlurOuter1"/></filter><mask id="G" x="-3" y="-3" width="195.494" height="396.206"><path fill="#fff" d="M-2.554-2.512h195.494v396.206h-195.494z"/><use xlink:href="#o"/></mask><linearGradient x1="50%" y1="0%" x2="50%" y2="59.915%" id="I"><stop stop-color="#BBE1F5" offset="0%"/><stop stop-color="#fff" offset="100%"/></linearGradient><path id="H" d="M.606.189h173.734v303.388h-173.734z"/><path d="M155.77 29.348c4.674 0 8.464-3.789 8.464-8.464 0-4.674-3.789-8.464-8.464-8.464-4.674 0-8.464 3.789-8.464 8.464 0 4.674 3.789 8.464 8.464 8.464z" id="L"/><filter x="-50%" y="-50%" width="200%" height="200%" filterUnits="objectBoundingBox" id="K"><feOffset dy="1" in="SourceAlpha" result="shadowOffsetOuter1"/><feGaussianBlur stdDeviation="2" in="shadowOffsetOuter1" result="shadowBlurOuter1"/><feColorMatrix values="0 0 0 0 0.348267432 0 0 0 0 0.348267432 0 0 0 0 0.348267432 0 0 0 0.5 0" in="shadowBlurOuter1"/></filter><path d="M155.77 54.738c4.674 0 8.464-3.789 8.464-8.464 0-4.674-3.789-8.464-8.464-8.464-4.674 0-8.464 3.789-8.464 8.464 0 4.674 3.789 8.464 8.464 8.464z" id="N"/><filter x="-50%" y="-50%" width="200%" height="200%" filterUnits="objectBoundingBox" id="M"><feOffset dy="1" in="SourceAlpha" result="shadowOffsetOuter1"/><feGaussianBlur stdDeviation="2" in="shadowOffsetOuter1" result="shadowBlurOuter1"/><feColorMatrix values="0 0 0 0 0.348267432 0 0 0 0 0.348267432 0 0 0 0 0.348267432 0 0 0 0.5 0" in="shadowBlurOuter1"/></filter></defs><g fill="none"><g transform="translate(436 13)"><use id="Rectangle-480" stroke="#fff" mask="url(#p)" stroke-width="2" xlink:href="#a"/><path d="M95.195 384.162c7.841 0 14.198-6.357 14.198-14.198s-6.357-14.198-14.198-14.198-14.198 6.357-14.198 14.198 6.357 14.198 14.198 14.198z" id="Oval-213" stroke="#fff" stroke-width="1.5"/><g id="Screen" transform="translate(8.532 42.381)"><mask id="v"><use xlink:href="#b"/></mask><use mask="url(#q)" xlink:href="#b" id="Rectangle-111-Copy-4" stroke="#fff" stroke-width="2"/><use mask="url(#r)" xlink:href="#c" id="Rectangle-124" stroke-width="2" stroke="#fff"/><use mask="url(#s)" xlink:href="#d" stroke-width="2" stroke="#fff"/><use mask="url(#t)" xlink:href="#e" stroke-width="2" stroke="#fff"/><use mask="url(#u)" xlink:href="#f" stroke-width="2" stroke="#fff"/><circle stroke="#fff" mask="url(#v)" transform="rotate(-540 87.22 141.059)" cx="87.22" cy="141.059" r="69.211"/><path stroke="#fff" mask="url(#v)" d="M87.22 71.849l-.011 69.156 69.223.055"/><path d="M.858 35.811h173.667M14.352 19.085l6-6" stroke="#fff" stroke-linecap="square" mask="url(#v)"/><path d="M14.352 19.123l6 6" stroke="#fff" stroke-linecap="square" mask="url(#v)"/></g><use id="Rectangle-480" stroke="#fff" mask="url(#w)" stroke-width="2" xlink:href="#g"/><ellipse id="Oval-212" stroke="#fff" cx="74.39" cy="22.481" rx="2.401" ry="2.401"/></g><g transform="translate(226 12)"><use id="Rectangle-480" stroke="#fff" mask="url(#x)" stroke-width="2" xlink:href="#h"/><path d="M95.195 384.162c7.841 0 14.198-6.357 14.198-14.198s-6.357-14.198-14.198-14.198-14.198 6.357-14.198 14.198 6.357 14.198 14.198 14.198z" id="Oval-213" stroke="#fff"/><g transform="translate(7.693 43.381)"><mask id="z"><use xlink:href="#i"/></mask><use mask="url(#y)" xlink:href="#i" id="Rectangle-111-Copy-4" stroke="#fff" stroke-width="2"/><path d="M15.202 358.625c102.067 0 184.808-25.33 184.808-56.576 0-14.121-27.291-79.473-54.969-79.473s-33.177 30.187-62.485 30.187c-42.12 0-35.479-63.7-73.319-63.7-37.087 0-33.939 57.388-59.972 57.231-30.651-.185-24.946-11.881-54.187-11.881-29.241 0-64.684 49.003-64.684 67.636 0 31.246 82.741 56.576 184.808 56.576z" id="Oval-5-Copy" stroke="#fff" mask="url(#z)"/><use mask="url(#A)" xlink:href="#j" id="Rectangle-124" stroke-width="2" stroke="#fff"/><use mask="url(#B)" xlink:href="#k" id="Rectangle-124-Copy-3" stroke-width="2" stroke="#fff"/><use mask="url(#C)" xlink:href="#l" stroke-width="2" stroke="#fff"/><use mask="url(#D)" xlink:href="#m" id="Rectangle-124-Copy-4" stroke-width="2" stroke="#fff"/></g><use id="Rectangle-480" stroke="#fff" mask="url(#E)" stroke-width="2" xlink:href="#n"/><ellipse id="Oval-212" stroke="#fff" cx="74.39" cy="22.481" rx="2.401" ry="2.401"/></g><g transform="translate(16 12)"><g id="Rectangle-480"><use fill="#000" filter="url(#F)" xlink:href="#o"/><use fill="#333" xlink:href="#o"/><use stroke="#333" mask="url(#G)" stroke-width="6" xlink:href="#o"/></g><path d="M95.195 384.162c7.841 0 14.198-6.357 14.198-14.198s-6.357-14.198-14.198-14.198-14.198 6.357-14.198 14.198 6.357 14.198 14.198 14.198z" stroke="#484F53" stroke-width="1.5"/><g transform="translate(7.806 43.384)"><mask id="J"><use xlink:href="#H"/></mask><use fill="url(#I)" xlink:href="#H"/><path fill="#fff" mask="url(#J)" d="M10.009 13.361h96.861v4.702h-96.861z"/><path fill="#fff" mask="url(#J)" d="M10.009 22.765h64.887v4.702h-64.887z"/><path fill="#fff" mask="url(#J)" d="M10.009 41.573h39.497v4.702h-39.497z"/><path fill="#fff" mask="url(#J)" d="M10.009 32.169h79.933v4.702h-79.933z"/><rect fill="#FFCE4B" mask="url(#J)" x="120.976" y="10.54" width="45.139" height="20.689" rx="10.344"/><g mask="url(#J)"><use fill="#000" filter="url(#K)" xlink:href="#L"/><use fill="#fff" xlink:href="#L"/></g><rect fill="#A8D8F2" mask="url(#J)" x="120.976" y="35.931" width="45.139" height="20.689" rx="10.344"/><g mask="url(#J)"><use fill="#000" filter="url(#M)" xlink:href="#N"/><use fill="#fff" xlink:href="#N"/></g><path d="M110.182 370.85c102.067 0 184.808-25.33 184.808-56.576 0-14.121-28.837-79.515-56.515-79.515s-31.631 30.229-60.939 30.229c-42.12 0-34.517-63.234-72.357-63.234-37.087 0-34.901 56.921-60.934 56.765-30.651-.185-24.946-11.881-54.187-11.881-29.241 0-64.684 49.003-64.684 67.636 0 31.246 82.741 56.576 184.808 56.576z" fill="#A8D8F2" mask="url(#J)"/><path d="M15.202 358.625c102.067 0 184.808-25.33 184.808-56.576 0-14.121-27.291-79.473-54.969-79.473s-33.177 30.187-62.485 30.187c-42.12 0-35.479-63.7-73.319-63.7-37.087 0-33.939 57.388-59.972 57.231-30.651-.185-24.946-11.881-54.187-11.881-29.241 0-64.684 49.003-64.684 67.636 0 31.246 82.741 56.576 184.808 56.576z" fill="#FFD155" opacity=".8" mask="url(#J)"/></g><rect fill="#484F53" x="81.906" y="20.08" width="36.491" height="4.801" rx="2.401"/><ellipse fill="#484F53" cx="74.39" cy="22.481" rx="2.401" ry="2.401"/></g></g></svg>