<svg width="591" height="419" xmlns="http://www.w3.org/2000/svg" xmlns:xlink="http://www.w3.org/1999/xlink"><defs><mask id="p" maskContentUnits="userSpaceOnUse" maskUnits="objectBoundingBox" x="-1" y="-1" width="191.494" height="392.206"><path fill="#fff" d="M-.554-.512H190.94v392.206H-.554z"/><use xlink:href="#a"/></mask><mask id="q" maskContentUnits="userSpaceOnUse" maskUnits="objectBoundingBox" x="0" y="0" width="173.734" height="303.388" fill="#fff"><use xlink:href="#b"/></mask><mask id="r" maskContentUnits="userSpaceOnUse" maskUnits="objectBoundingBox" x="0" y="0" width="173.734" height="303.388" fill="#fff"><use xlink:href="#b"/></mask><mask id="t" maskContentUnits="userSpaceOnUse" maskUnits="objectBoundingBox" x="0" y="0" width="139" height="4.702" fill="#fff"><use xlink:href="#c"/></mask><mask id="u" maskContentUnits="userSpaceOnUse" maskUnits="objectBoundingBox" x="0" y="0" width="64.242" height="4.702" fill="#fff"><use xlink:href="#d"/></mask><mask id="v" maskContentUnits="userSpaceOnUse" maskUnits="objectBoundingBox" x="0" y="0" width="64.242" height="4.702" fill="#fff"><use xlink:href="#e"/></mask><mask id="w" maskContentUnits="userSpaceOnUse" maskUnits="objectBoundingBox" x="0" y="0" width="98.185" height="4.702" fill="#fff"><use xlink:href="#f"/></mask><mask id="x" maskContentUnits="userSpaceOnUse" maskUnits="objectBoundingBox" x="0" y="0" width="36.491" height="4.801" fill="#fff"><use xlink:href="#g"/></mask><mask id="y" maskContentUnits="userSpaceOnUse" maskUnits="objectBoundingBox" x="-1" y="-1" width="191.494" height="392.206"><path fill="#fff" d="M-.554-.512H190.94v392.206H-.554z"/><use xlink:href="#h"/></mask><mask id="z" maskContentUnits="userSpaceOnUse" maskUnits="objectBoundingBox" x="0" y="0" width="173.734" height="303.388" fill="#fff"><use xlink:href="#i"/></mask><mask id="A" maskContentUnits="userSpaceOnUse" maskUnits="objectBoundingBox" x="0" y="0" width="173.734" height="303.388" fill="#fff"><use xlink:href="#i"/></mask><mask id="C" maskContentUnits="userSpaceOnUse" maskUnits="objectBoundingBox" x="0" y="0" width="96.861" height="4.702" fill="#fff"><use xlink:href="#j"/></mask><mask id="D" maskContentUnits="userSpaceOnUse" maskUnits="objectBoundingBox" x="0" y="0" width="64.887" height="4.702" fill="#fff"><use xlink:href="#k"/></mask><mask id="E" maskContentUnits="userSpaceOnUse" maskUnits="objectBoundingBox" x="0" y="0" width="48.43" height="4.702" fill="#fff"><use xlink:href="#l"/></mask><mask id="F" maskContentUnits="userSpaceOnUse" maskUnits="objectBoundingBox" x="0" y="0" width="79.933" height="4.702" fill="#fff"><use xlink:href="#m"/></mask><mask id="G" maskContentUnits="userSpaceOnUse" maskUnits="objectBoundingBox" x="0" y="0" width="36.491" height="4.801" fill="#fff"><use xlink:href="#n"/></mask><mask id="I" maskContentUnits="userSpaceOnUse" maskUnits="objectBoundingBox" x="-3" y="-3" width="195.494" height="396.206"><path fill="#fff" d="M-2.554-2.512H192.94v396.206H-2.554z"/><use xlink:href="#o"/></mask><path d="M.446 22.48C.446 10.334 10.3.488 22.438.488h145.51c12.146 0 21.992 9.841 21.992 21.992v346.223c0 12.145-9.855 21.991-21.992 21.991H22.438c-12.146 0-21.992-9.84-21.992-21.991V22.48Z" id="a"/><path id="b" d="M.298.574h173.734v303.388H.298z"/><path id="c" d="M17.693 254.056h139v4.702h-139z"/><path id="d" d="M17.693 281.852h64.242v4.702H17.693z"/><path id="e" d="M17.693 263.719h64.242v4.702H17.693z"/><path id="f" d="M17.693 272.743h98.185v4.702H17.693z"/><path id="i" d="M.606.189H174.34v303.388H.606z"/><path id="j" d="M9.456 10.427h96.861v4.702H9.456z"/><path id="k" d="M9.456 19.831h64.887v4.702H9.456z"/><path id="l" d="M9.456 38.639h48.43v4.702H9.456z"/><path id="m" d="M9.456 29.235h79.933v4.702H9.456z"/><path id="J" d="M.606.189H174.34v303.388H.606z"/><path d="M155.77 29.348a8.464 8.464 0 1 0 0-16.927 8.464 8.464 0 0 0 0 16.927Z" id="N"/><path d="M155.77 54.738a8.464 8.464 0 1 0 0-16.927 8.464 8.464 0 0 0 0 16.927Z" id="P"/><rect id="g" x="81.906" y="20.08" width="36.491" height="4.801" rx="2.401"/><rect id="h" x=".446" y=".488" width="189.494" height="390.206" rx="22"/><rect id="n" x="81.906" y="20.08" width="36.491" height="4.801" rx="2.401"/><rect id="o" x=".446" y=".488" width="189.494" height="390.206" rx="22"/><filter x="-50%" y="-50%" width="200%" height="200%" filterUnits="objectBoundingBox" id="H"><feMorphology radius="3" operator="dilate" in="SourceAlpha" result="shadowSpreadOuter1"/><feOffset dx="-2" dy="2" in="shadowSpreadOuter1" result="shadowOffsetOuter1"/><feGaussianBlur stdDeviation="6.5" in="shadowOffsetOuter1" result="shadowBlurOuter1"/><feComposite in="shadowBlurOuter1" in2="SourceAlpha" operator="out" result="shadowBlurOuter1"/><feColorMatrix values="0 0 0 0 0.396078431 0 0 0 0 0.396078431 0 0 0 0 0.396078431 0 0 0 0.5 0" in="shadowBlurOuter1"/></filter><filter x="-50%" y="-50%" width="200%" height="200%" filterUnits="objectBoundingBox" id="M"><feOffset dy="1" in="SourceAlpha" result="shadowOffsetOuter1"/><feGaussianBlur stdDeviation="2" in="shadowOffsetOuter1" result="shadowBlurOuter1"/><feColorMatrix values="0 0 0 0 0.348267432 0 0 0 0 0.348267432 0 0 0 0 0.348267432 0 0 0 0.5 0" in="shadowBlurOuter1"/></filter><filter x="-50%" y="-50%" width="200%" height="200%" filterUnits="objectBoundingBox" id="O"><feOffset dy="1" in="SourceAlpha" result="shadowOffsetOuter1"/><feGaussianBlur stdDeviation="2" in="shadowOffsetOuter1" result="shadowBlurOuter1"/><feColorMatrix values="0 0 0 0 0.348267432 0 0 0 0 0.348267432 0 0 0 0 0.348267432 0 0 0 0.5 0" in="shadowBlurOuter1"/></filter><linearGradient x1="50%" y1="0%" x2="50%" y2="59.915%" id="K"><stop stop-color="#BBE1F5" offset="0%"/><stop stop-color="#FFF" offset="100%"/></linearGradient></defs><g fill="none" fill-rule="evenodd"><g transform="translate(436 13)"><use stroke="#FFF" mask="url(#p)" stroke-width="2" xlink:href="#a"/><path d="M95.195 384.162c7.842 0 14.198-6.357 14.198-14.198 0-7.842-6.356-14.198-14.198-14.198-7.841 0-14.198 6.356-14.198 14.198 0 7.841 6.357 14.198 14.198 14.198Z" stroke="#FFF" stroke-width="1.5"/><g transform="translate(8.532 42.381)"><mask id="s" fill="#fff"><use xlink:href="#b"/></mask><g stroke="#FFF" mask="url(#q)" stroke-width="2"><use mask="url(#r)" xlink:href="#b"/></g><g mask="url(#s)" stroke-width="2" stroke="#FFF"><use mask="url(#t)" xlink:href="#c"/></g><g mask="url(#s)" stroke-width="2" stroke="#FFF"><use mask="url(#u)" xlink:href="#d"/></g><g mask="url(#s)" stroke-width="2" stroke="#FFF"><use mask="url(#v)" xlink:href="#e"/></g><g mask="url(#s)" stroke-width="2" stroke="#FFF"><use mask="url(#w)" xlink:href="#f"/></g><circle stroke="#FFF" mask="url(#s)" transform="rotate(-180 87.22 141.06)" cx="87.22" cy="141.059" r="69.211"/><path stroke="#FFF" mask="url(#s)" transform="rotate(-180 121.82 106.454)" d="m156.42 141.06.011-69.156-69.222-.056"/><path d="M.858 35.811h173.667M14.352 19.085l6-6m-6 6.038 6 6" stroke="#FFF" stroke-linecap="square" mask="url(#s)"/></g><use stroke="#FFF" mask="url(#x)" stroke-width="2" xlink:href="#g"/><circle stroke="#FFF" cx="74.39" cy="22.481" r="2.401"/></g><g transform="translate(226 12)"><use stroke="#FFF" mask="url(#y)" stroke-width="2" xlink:href="#h"/><path d="M95.195 384.162c7.842 0 14.198-6.357 14.198-14.198 0-7.842-6.356-14.198-14.198-14.198-7.841 0-14.198 6.356-14.198 14.198 0 7.841 6.357 14.198 14.198 14.198Z" stroke="#FFF"/><g transform="translate(7.693 43.381)"><mask id="B" fill="#fff"><use xlink:href="#i"/></mask><g stroke="#FFF" mask="url(#z)" stroke-width="2"><use mask="url(#A)" xlink:href="#i"/></g><path d="M15.202 358.625c102.067 0 184.808-25.33 184.808-56.576 0-14.121-27.29-79.473-54.97-79.473-27.678 0-33.176 30.187-62.484 30.187-42.12 0-35.479-63.7-73.32-63.7-37.087 0-33.939 57.388-59.971 57.23-30.65-.184-24.946-11.88-54.187-11.88-29.24 0-64.684 49.002-64.684 67.636 0 31.246 82.742 56.576 184.808 56.576Z" stroke="#FFF" mask="url(#B)"/><g mask="url(#B)" stroke-width="2" stroke="#FFF"><use mask="url(#C)" xlink:href="#j"/></g><g mask="url(#B)" stroke-width="2" stroke="#FFF"><use mask="url(#D)" xlink:href="#k"/></g><g mask="url(#B)" stroke-width="2" stroke="#FFF"><use mask="url(#E)" xlink:href="#l"/></g><g mask="url(#B)" stroke-width="2" stroke="#FFF"><use mask="url(#F)" xlink:href="#m"/></g></g><use stroke="#FFF" mask="url(#G)" stroke-width="2" xlink:href="#n"/><circle stroke="#FFF" cx="74.39" cy="22.481" r="2.401"/></g><g transform="translate(16 12)"><use fill="#000" filter="url(#H)" xlink:href="#o"/><use fill="#333" xlink:href="#o"/><use stroke="#333" mask="url(#I)" stroke-width="6" xlink:href="#o"/><path d="M95.195 384.162c7.842 0 14.198-6.357 14.198-14.198 0-7.842-6.356-14.198-14.198-14.198-7.841 0-14.198 6.356-14.198 14.198 0 7.841 6.357 14.198 14.198 14.198Z" stroke="#484F53" stroke-width="1.5"/><g transform="translate(7.806 43.384)"><mask id="L" fill="#fff"><use xlink:href="#J"/></mask><use fill="url(#K)" xlink:href="#J"/><path fill="#FFF" mask="url(#L)" d="M10.01 13.361h96.86v4.702H10.01zm-.001 9.404h64.887v4.702H10.009zm0 18.808h39.497v4.702H10.009zm0-9.404h79.933v4.702H10.009z"/><rect fill="#FFCE4B" mask="url(#L)" x="120.976" y="10.54" width="45.139" height="20.689" rx="10.344"/><g mask="url(#L)"><use fill="#000" filter="url(#M)" xlink:href="#N"/><use fill="#FFF" xlink:href="#N"/></g><rect fill="#A8D8F2" mask="url(#L)" x="120.976" y="35.931" width="45.139" height="20.689" rx="10.344"/><g mask="url(#L)"><use fill="#000" filter="url(#O)" xlink:href="#P"/><use fill="#FFF" xlink:href="#P"/></g><path d="M110.182 370.85c102.066 0 184.808-25.33 184.808-56.576 0-14.12-28.837-79.515-56.515-79.515-27.679 0-31.631 30.23-60.94 30.23-42.12 0-34.516-63.235-72.357-63.235-37.087 0-34.901 56.922-60.934 56.765-30.65-.185-24.946-11.881-54.186-11.881s-64.684 49.002-64.684 67.636c0 31.246 82.741 56.576 184.808 56.576Z" fill="#A8D8F2" mask="url(#L)"/><path d="M15.202 358.625c102.067 0 184.808-25.33 184.808-56.576 0-14.121-27.29-79.473-54.97-79.473-27.678 0-33.176 30.187-62.484 30.187-42.12 0-35.479-63.7-73.32-63.7-37.087 0-33.939 57.388-59.971 57.23-30.65-.184-24.946-11.88-54.187-11.88-29.24 0-64.684 49.002-64.684 67.636 0 31.246 82.742 56.576 184.808 56.576Z" fill="#FFD155" opacity=".8" mask="url(#L)"/></g><rect fill="#484F53" x="81.906" y="20.08" width="36.491" height="4.801" rx="2.401"/><circle fill="#484F53" cx="74.39" cy="22.481" r="2.401"/></g></g></svg>