<svg width="219" height="419" viewBox="0 0 219 419" xmlns="http://www.w3.org/2000/svg" xmlns:xlink="http://www.w3.org/1999/xlink"><title>PhoneOne</title><desc>Created with Sketch.</desc><defs><rect id="a" x=".446" y=".488" width="189.494" height="390.206" rx="22"/><filter x="-50%" y="-50%" width="200%" height="200%" filterUnits="objectBoundingBox" id="b"><feMorphology radius="3" operator="dilate" in="SourceAlpha" result="shadowSpreadOuter1"/><feOffset dx="-2" dy="2" in="shadowSpreadOuter1" result="shadowOffsetOuter1"/><feGaussianBlur stdDeviation="6.5" in="shadowOffsetOuter1" result="shadowBlurOuter1"/><feComposite in="shadowBlurOuter1" in2="SourceAlpha" operator="out" result="shadowBlurOuter1"/><feColorMatrix values="0 0 0 0 0.396078431 0 0 0 0 0.396078431 0 0 0 0 0.396078431 0 0 0 0.5 0" in="shadowBlurOuter1"/></filter><mask id="c" x="-3" y="-3" width="195.494" height="396.206"><path fill="#fff" d="M-2.554-2.512h195.494v396.206h-195.494z"/><use xlink:href="#a"/></mask><linearGradient x1="50%" y1="0%" x2="50%" y2="59.915%" id="e"><stop stop-color="#BBE1F5" offset="0%"/><stop stop-color="#fff" offset="100%"/></linearGradient><path id="d" d="M.606.189h173.734v303.388h-173.734z"/><path d="M155.77 29.348c4.674 0 8.464-3.789 8.464-8.464 0-4.674-3.789-8.464-8.464-8.464-4.674 0-8.464 3.789-8.464 8.464 0 4.674 3.789 8.464 8.464 8.464z" id="h"/><filter x="-50%" y="-50%" width="200%" height="200%" filterUnits="objectBoundingBox" id="g"><feOffset dy="1" in="SourceAlpha" result="shadowOffsetOuter1"/><feGaussianBlur stdDeviation="2" in="shadowOffsetOuter1" result="shadowBlurOuter1"/><feColorMatrix values="0 0 0 0 0.348267432 0 0 0 0 0.348267432 0 0 0 0 0.348267432 0 0 0 0.5 0" in="shadowBlurOuter1"/></filter><path d="M155.77 54.738c4.674 0 8.464-3.789 8.464-8.464 0-4.674-3.789-8.464-8.464-8.464-4.674 0-8.464 3.789-8.464 8.464 0 4.674 3.789 8.464 8.464 8.464z" id="j"/><filter x="-50%" y="-50%" width="200%" height="200%" filterUnits="objectBoundingBox" id="i"><feOffset dy="1" in="SourceAlpha" result="shadowOffsetOuter1"/><feGaussianBlur stdDeviation="2" in="shadowOffsetOuter1" result="shadowBlurOuter1"/><feColorMatrix values="0 0 0 0 0.348267432 0 0 0 0 0.348267432 0 0 0 0 0.348267432 0 0 0 0.5 0" in="shadowBlurOuter1"/></filter></defs><g transform="translate(16 12)" fill="none"><g id="Rectangle-480"><use fill="#000" filter="url(#b)" xlink:href="#a"/><use fill="#333" xlink:href="#a"/><use stroke="#333" mask="url(#c)" stroke-width="6" xlink:href="#a"/></g><path d="M95.195 384.162c7.841 0 14.198-6.357 14.198-14.198s-6.357-14.198-14.198-14.198-14.198 6.357-14.198 14.198 6.357 14.198 14.198 14.198z" stroke="#484F53" stroke-width="1.5"/><g transform="translate(7.806 43.384)"><mask id="f"><use xlink:href="#d"/></mask><use fill="url(#e)" xlink:href="#d"/><path fill="#fff" mask="url(#f)" d="M10.009 13.361h96.861v4.702h-96.861z"/><path fill="#fff" mask="url(#f)" d="M10.009 22.765h64.887v4.702h-64.887z"/><path fill="#fff" mask="url(#f)" d="M10.009 41.573h39.497v4.702h-39.497z"/><path fill="#fff" mask="url(#f)" d="M10.009 32.169h79.933v4.702h-79.933z"/><rect fill="#FFCE4B" mask="url(#f)" x="120.976" y="10.54" width="45.139" height="20.689" rx="10.344"/><g mask="url(#f)"><use fill="#000" filter="url(#g)" xlink:href="#h"/><use fill="#fff" xlink:href="#h"/></g><rect fill="#A8D8F2" mask="url(#f)" x="120.976" y="35.931" width="45.139" height="20.689" rx="10.344"/><g mask="url(#f)"><use fill="#000" filter="url(#i)" xlink:href="#j"/><use fill="#fff" xlink:href="#j"/></g><path d="M110.182 370.85c102.067 0 184.808-25.33 184.808-56.576 0-14.121-28.837-79.515-56.515-79.515s-31.631 30.229-60.939 30.229c-42.12 0-34.517-63.234-72.357-63.234-37.087 0-34.901 56.921-60.934 56.765-30.651-.185-24.946-11.881-54.187-11.881-29.241 0-64.684 49.003-64.684 67.636 0 31.246 82.741 56.576 184.808 56.576z" fill="#A8D8F2" mask="url(#f)"/><path d="M15.202 358.625c102.067 0 184.808-25.33 184.808-56.576 0-14.121-27.291-79.473-54.969-79.473s-33.177 30.187-62.485 30.187c-42.12 0-35.479-63.7-73.319-63.7-37.087 0-33.939 57.388-59.972 57.231-30.651-.185-24.946-11.881-54.187-11.881-29.241 0-64.684 49.003-64.684 67.636 0 31.246 82.741 56.576 184.808 56.576z" fill="#FFD155" opacity=".8" mask="url(#f)"/></g><rect fill="#484F53" x="81.906" y="20.08" width="36.491" height="4.801" rx="2.401"/><ellipse fill="#484F53" cx="74.39" cy="22.481" rx="2.401" ry="2.401"/></g></svg>