<svg width="156" height="393" viewBox="0 0 156 393" xmlns="http://www.w3.org/2000/svg" xmlns:xlink="http://www.w3.org/1999/xlink"><title>PhoneThree</title><desc>Created with Sketch.</desc><defs><path d="M.446 22.48c0-12.145 9.855-21.991 21.992-21.991h145.51c12.146 0 21.992 9.841 21.992 21.991v346.223c0 12.145-9.855 21.991-21.992 21.991h-145.51c-12.146 0-21.992-9.841-21.992-21.991v-346.223z" id="a"/><mask id="h" x="-1" y="-1" width="191.494" height="392.206"><path fill="#fff" d="M-.554-.512h191.494v392.206h-191.494z"/><use xlink:href="#a"/></mask><path id="b" d="M.298.574h173.734v303.388h-173.734z"/><mask x="0" y="0" width="173.734" height="303.388"><use xlink:href="#b"/></mask><mask id="i" x="0" y="0" width="173.734" height="303.388"><use xlink:href="#b"/></mask><path id="c" d="M17.693 254.056h139v4.702h-139z"/><mask id="j" x="0" y="0" width="139" height="4.702"><use xlink:href="#c"/></mask><path id="d" d="M17.693 281.852h64.242v4.702h-64.242z"/><mask id="k" x="0" y="0" width="64.242" height="4.702"><use xlink:href="#d"/></mask><path id="e" d="M17.693 263.719h64.242v4.702h-64.242z"/><mask id="l" x="0" y="0" width="64.242" height="4.702"><use xlink:href="#e"/></mask><path id="f" d="M17.693 272.743h98.185v4.702h-98.185z"/><mask id="m" x="0" y="0" width="98.185" height="4.702"><use xlink:href="#f"/></mask><rect id="g" x="81.906" y="20.08" width="36.491" height="4.801" rx="2.401"/><mask id="o" x="0" y="0" width="36.491" height="4.801"><use xlink:href="#g"/></mask></defs><g transform="translate(1 1)" fill="none"><use id="Rectangle-480" stroke="#fff" mask="url(#h)" stroke-width="2" xlink:href="#a"/><path d="M95.195 384.162c7.841 0 14.198-6.357 14.198-14.198s-6.357-14.198-14.198-14.198-14.198 6.357-14.198 14.198 6.357 14.198 14.198 14.198z" stroke="#fff" stroke-width="1.5"/><g transform="translate(8.532 42.381)"><mask id="n"><use xlink:href="#b"/></mask><use mask="url(#i)" xlink:href="#b" stroke="#fff" stroke-width="2"/><use mask="url(#j)" xlink:href="#c" stroke-width="2" stroke="#fff"/><use mask="url(#k)" xlink:href="#d" stroke-width="2" stroke="#fff"/><use mask="url(#l)" xlink:href="#e" stroke-width="2" stroke="#fff"/><use mask="url(#m)" xlink:href="#f" stroke-width="2" stroke="#fff"/><circle stroke="#fff" mask="url(#n)" transform="rotate(-540 87.22 141.059)" cx="87.22" cy="141.059" r="69.211"/><path stroke="#fff" mask="url(#n)" d="M87.22 71.849l-.011 69.156 69.223.055"/><path d="M.858 35.811h173.667M14.352 19.085l6-6" stroke="#fff" stroke-linecap="square" mask="url(#n)"/><path d="M14.352 19.123l6 6" stroke="#fff" stroke-linecap="square" mask="url(#n)"/></g><use stroke="#fff" mask="url(#o)" stroke-width="2" xlink:href="#g"/><ellipse stroke="#fff" cx="74.39" cy="22.481" rx="2.401" ry="2.401"/></g></svg>