<svg width="192" height="393" viewBox="0 0 192 393" xmlns="http://www.w3.org/2000/svg" xmlns:xlink="http://www.w3.org/1999/xlink"><title>PhoneTwo</title><desc>Created with Sketch.</desc><defs><rect id="a" x=".446" y=".488" width="189.494" height="390.206" rx="22"/><mask id="h" x="-1" y="-1" width="191.494" height="392.206"><path fill="#fff" d="M-.554-.512h191.494v392.206h-191.494z"/><use xlink:href="#a"/></mask><path id="b" d="M.606.189h173.734v303.388h-173.734z"/><mask x="0" y="0" width="173.734" height="303.388"><use xlink:href="#b"/></mask><mask id="i" x="0" y="0" width="173.734" height="303.388"><use xlink:href="#b"/></mask><path id="c" d="M9.456 10.427h96.861v4.702h-96.861z"/><mask id="k" x="0" y="0" width="96.861" height="4.702"><use xlink:href="#c"/></mask><path id="d" d="M9.456 19.831h64.887v4.702h-64.887z"/><mask id="l" x="0" y="0" width="64.887" height="4.702"><use xlink:href="#d"/></mask><path id="e" d="M9.456 38.639h48.43v4.702h-48.43z"/><mask id="m" x="0" y="0" width="48.43" height="4.702"><use xlink:href="#e"/></mask><path id="f" d="M9.456 29.235h79.933v4.702h-79.933z"/><mask id="n" x="0" y="0" width="79.933" height="4.702"><use xlink:href="#f"/></mask><rect id="g" x="81.906" y="20.08" width="36.491" height="4.801" rx="2.401"/><mask id="o" x="0" y="0" width="36.491" height="4.801"><use xlink:href="#g"/></mask></defs><g transform="translate(1 1)" fill="none"><use id="Rectangle-480" stroke="#fff" mask="url(#h)" stroke-width="2" xlink:href="#a"/><path d="M95.195 384.162c7.841 0 14.198-6.357 14.198-14.198s-6.357-14.198-14.198-14.198-14.198 6.357-14.198 14.198 6.357 14.198 14.198 14.198z" stroke="#fff"/><g transform="translate(7.693 43.381)"><mask id="j"><use xlink:href="#b"/></mask><use mask="url(#i)" xlink:href="#b" stroke="#fff" stroke-width="2"/><path d="M15.202 358.625c102.067 0 184.808-25.33 184.808-56.576 0-14.121-27.291-79.473-54.969-79.473s-33.177 30.187-62.485 30.187c-42.12 0-35.479-63.7-73.319-63.7-37.087 0-33.939 57.388-59.972 57.231-30.651-.185-24.946-11.881-54.187-11.881-29.241 0-64.684 49.003-64.684 67.636 0 31.246 82.741 56.576 184.808 56.576z" stroke="#fff" mask="url(#j)"/><use mask="url(#k)" xlink:href="#c" stroke-width="2" stroke="#fff"/><use mask="url(#l)" xlink:href="#d" stroke-width="2" stroke="#fff"/><use mask="url(#m)" xlink:href="#e" stroke-width="2" stroke="#fff"/><use mask="url(#n)" xlink:href="#f" stroke-width="2" stroke="#fff"/></g><use stroke="#fff" mask="url(#o)" stroke-width="2" xlink:href="#g"/><ellipse stroke="#fff" cx="74.39" cy="22.481" rx="2.401" ry="2.401"/></g></svg>