<svg width="60" height="53" viewBox="0 0 60 53" xmlns="http://www.w3.org/2000/svg"><title></title><desc>Created with Sketch.</desc><path d="M60 27.545c0 4.159-.818 8.114-2.386 11.727-1.636 3.682-3.818 6.886-6.614 9.614.477-1.023.886-2.182 1.227-3.409.273-1.159.409-2.455.409-3.75 0-4.091-1.091-7.091-3.341-8.932-2.25-1.841-5.659-2.795-10.227-2.795h-14.795c-.75 0-1.432-.273-2.045-.818-.614-.545-.886-1.159-.886-1.909 0-.477.205-1.023.545-1.568.341-.545.818-1.023 1.364-1.432 1.091.341 2.182.614 3.205.682 1.023.068 2.25.136 3.545.136 2.659 0 5.045-.341 7.227-.955 2.182-.614 4.023-1.568 5.591-2.795 1.568-1.159 2.727-2.659 3.614-4.432.886-1.705 1.295-3.75 1.295-6-.068-2.523-.614-4.705-1.636-6.545-1.023-1.841-2.386-3.273-4.227-4.364 2.659 1.159 5.045 2.591 7.295 4.432 2.25 1.841 4.159 3.955 5.795 6.341 1.568 2.386 2.864 5.045 3.75 7.841.886 2.864 1.295 5.864 1.295 8.932zm-42.545-27.341c-1.705 1.227-3 2.727-3.955 4.568-.955 1.841-1.432 3.886-1.432 6.205 0 2.727.614 5.045 1.909 7.023 1.227 1.977 2.864 3.545 4.909 4.705l.205.136c-.614.409-1.295.955-2.045 1.568-.818.614-1.568 1.364-2.318 2.182-.75.886-1.432 1.773-1.909 2.727-.545 1.023-.818 2.045-.818 3.136 0 1.636.545 3.136 1.636 4.5 1.023 1.432 2.659 2.386 4.909 2.864-1.159.205-2.386.545-3.545.886-1.159.409-2.25.955-3.136 1.568-.955.682-1.705 1.5-2.318 2.386-.614.955-.886 2.114-.886 3.409v.409c-2.659-2.727-4.705-5.864-6.273-9.409-1.568-3.545-2.386-7.364-2.386-11.523 0-3.068.409-5.932 1.295-8.727.886-2.795 2.045-5.318 3.614-7.705 1.568-2.386 3.409-4.5 5.523-6.341 2.114-1.841 4.5-3.341 7.023-4.568zm17.932 10.773c0 2.045-.136 3.682-.409 4.841-.341 1.227-.682 2.114-1.159 2.727-.477.614-1.091 1.023-1.705 1.227-.682.205-1.364.273-2.114.273-.75 0-1.432-.068-2.045-.273-.682-.136-1.227-.545-1.705-1.159-.477-.614-.886-1.5-1.159-2.727-.341-1.159-.477-2.795-.477-4.909s.136-3.75.477-5.045c.273-1.227.682-2.182 1.159-2.864.477-.614 1.023-1.091 1.705-1.295.614-.205 1.295-.273 2.045-.273s1.5.136 2.182.341c.614.205 1.227.682 1.705 1.295.477.682.818 1.636 1.091 2.864.273 1.295.409 2.932.409 4.977zm.341 31.295c1.841 0 3.273.409 4.295 1.295 1.023.886 1.5 1.977 1.5 3.409 0 .818-.136 1.568-.477 2.25-.341.75-.955 1.364-1.841 1.841-.886.477-1.977.886-3.409 1.159-1.432.341-3.273.477-5.523.477-1.977 0-3.614-.136-4.909-.477-1.295-.341-2.386-.75-3.205-1.227-.818-.477-1.432-1.091-1.773-1.773-.341-.682-.545-1.364-.545-2.114 0-.545.068-1.091.205-1.705.136-.545.409-1.091.75-1.568.341-.477.886-.818 1.5-1.159.614-.273 1.364-.409 2.318-.409h11.114z" fill="#D3D3D3"/></svg>