<svg width="60" height="53" xmlns="http://www.w3.org/2000/svg"><path d="M60 27.545c0 4.16-.818 8.114-2.386 11.728-1.637 3.682-3.819 6.886-6.614 9.613.477-1.022.886-2.181 1.227-3.409.273-1.159.41-2.454.41-3.75 0-4.09-1.092-7.09-3.342-8.932C47.045 30.955 43.636 30 39.068 30H24.273c-.75 0-1.432-.273-2.046-.818-.613-.546-.886-1.16-.886-1.91 0-.477.204-1.022.545-1.567.341-.546.819-1.023 1.364-1.432 1.09.34 2.182.613 3.205.682A53.22 53.22 0 0 0 30 25.09c2.66 0 5.045-.341 7.227-.955 2.182-.613 4.023-1.568 5.591-2.795 1.568-1.16 2.727-2.66 3.614-4.432.886-1.704 1.295-3.75 1.295-6-.068-2.523-.613-4.704-1.636-6.545C45.068 2.523 43.705 1.09 41.864 0c2.659 1.16 5.045 2.59 7.295 4.432 2.25 1.84 4.16 3.954 5.796 6.34a31.958 31.958 0 0 1 3.75 7.842C59.59 21.477 60 24.477 60 27.545ZM17.455.205A12.744 12.744 0 0 0 13.5 4.773c-.955 1.84-1.432 3.886-1.432 6.204 0 2.728.614 5.046 1.91 7.023a13.538 13.538 0 0 0 4.908 4.705l.205.136c-.614.409-1.296.954-2.046 1.568-.818.614-1.568 1.364-2.318 2.182-.75.886-1.432 1.773-1.909 2.727-.545 1.023-.818 2.046-.818 3.137 0 1.636.545 3.136 1.636 4.5 1.023 1.431 2.66 2.386 4.91 2.863-1.16.205-2.387.546-3.546.887-1.16.409-2.25.954-3.136 1.568-.955.682-1.705 1.5-2.319 2.386-.613.955-.886 2.114-.886 3.41v.408C6 45.75 3.955 42.614 2.386 39.068.818 35.523 0 31.705 0 27.545c0-3.068.41-5.931 1.295-8.727.887-2.795 2.046-5.318 3.614-7.704a30.77 30.77 0 0 1 5.523-6.341c2.113-1.841 4.5-3.341 7.023-4.568Zm17.931 10.772c0 2.046-.136 3.682-.409 4.841-.34 1.227-.682 2.114-1.159 2.727a3.642 3.642 0 0 1-1.704 1.228c-.682.204-1.364.272-2.114.272-.75 0-1.432-.068-2.045-.272-.682-.137-1.228-.546-1.705-1.16-.477-.613-.886-1.5-1.16-2.727-.34-1.159-.476-2.795-.476-4.909 0-2.113.136-3.75.477-5.045.273-1.227.682-2.182 1.159-2.864.477-.613 1.023-1.09 1.705-1.295C28.568 1.568 29.25 1.5 30 1.5s1.5.136 2.182.34c.613.205 1.227.683 1.704 1.296.478.682.819 1.637 1.091 2.864.273 1.295.41 2.932.41 4.977Zm.341 31.296c1.841 0 3.273.409 4.296 1.295 1.022.887 1.5 1.977 1.5 3.41 0 .817-.137 1.567-.478 2.25-.34.75-.954 1.363-1.84 1.84-.887.477-1.978.887-3.41 1.16-1.431.34-3.272.477-5.522.477-1.978 0-3.614-.137-4.91-.478-1.295-.34-2.386-.75-3.204-1.227-.818-.477-1.432-1.09-1.773-1.773-.34-.682-.545-1.363-.545-2.113 0-.546.068-1.091.204-1.705.137-.545.41-1.09.75-1.568.341-.477.887-.818 1.5-1.16.614-.272 1.364-.408 2.319-.408h11.113Z" fill="#D3D3D3" fill-rule="evenodd"/></svg>