<svg width="254" height="23" viewBox="0 0 254 23" xmlns="http://www.w3.org/2000/svg"><title>theguardian openplatform</title><desc>Created with Sketch.</desc><g fill="none"><path d="M126.04 5.52c-3.4 0-5.74 2.08-5.74 5.88s2.34 5.9 5.74 5.9c3.4 0 5.74-2.1 5.74-5.9 0-3.8-2.34-5.88-5.74-5.88zm.02 10.22c-1.24 0-1.86-.64-1.86-4.34 0-3.7.62-4.34 1.86-4.34 1.24 0 1.82.64 1.82 4.34 0 3.7-.58 4.34-1.82 4.34zm12.3-.02c-.52 0-.92-.18-1.18-.36v-7.32c.32-.16.68-.3 1.3-.3 1.2 0 1.94 1.12 1.94 3.72 0 3.2-.9 4.26-2.06 4.26zm-1.22-8.74v-1.46h-.3l-4.64.74v.98l1.26.58v12.48l-1.2.56v1.04h6.32v-1.04l-1.4-.56v-3.36c.36.16.74.34 1.64.34 2.94 0 5.5-1.52 5.5-6.08 0-4.44-1.82-5.68-4.02-5.68-1.44 0-2.42.72-3.04 1.46h-.12zm13.24-.22c.92 0 1.42.48 1.42 3.46l-3.1.18c.04-2.98.66-3.64 1.68-3.64zm5.04 4.98c0-4.7-1.62-6.2-4.98-6.2-3.34 0-5.52 2.14-5.52 5.84 0 3.8 1.98 5.92 5.82 5.92 2.06 0 3.74-.92 4.26-1.64v-1.08c-.78.24-1.58.38-3 .38-2.04 0-3.08-1.04-3.26-3.22h6.68zm.42 5.26h6.12v-1.02l-1.18-.56v-7.36c.46-.18.96-.3 1.52-.3 1.02 0 1.5.42 1.5 1.58v6.08l-1.18.56v1.02h6.12v-1.02l-1.22-.56v-6.92c0-2.06-.94-2.98-2.8-2.98-1.52 0-2.88.54-3.88 1.46h-.12v-1.46h-.3l-4.64.74v.98l1.28.58v7.6l-1.22.56v1.02zm19.3-1.28c-.52 0-.92-.18-1.18-.36v-7.32c.32-.16.68-.3 1.3-.3 1.2 0 1.94 1.12 1.94 3.72 0 3.2-.9 4.26-2.06 4.26zm-1.22-8.74v-1.46h-.3l-4.64.74v.98l1.26.58v12.48l-1.2.56v1.04h6.32v-1.04l-1.4-.56v-3.36c.36.16.74.34 1.64.34 2.94 0 5.5-1.52 5.5-6.08 0-4.44-1.82-5.68-4.02-5.68-1.44 0-2.42.72-3.04 1.46h-.12zm7.68-5.3v1.02l1.26.58v12.12l-1.2.56v1.04h6.12v-1.04l-1.2-.56v-14.46h-.3l-4.68.74zm12.78 13.16c-.2.22-.62.42-1.02.42-.72 0-1.4-.4-1.4-1.64 0-1.06.7-1.64 1.56-1.72l.86-.08v3.02zm-2.82-7.82c.24-.02.78-.04.96-.04 1.44 0 1.86.72 1.86 2.14v1.5l-2.14.36c-2.48.42-3.96.88-3.96 3.18 0 1.86 1.24 3.14 3.22 3.14 1.4 0 2.72-.6 3.22-1.6h.1c.18 1.2 1.22 1.58 2.38 1.58.9 0 1.74-.26 2.1-.46v-.84l-1.18-.56v-6.5c0-2.52-1.8-3.4-4.8-3.4-1.96 0-3.22.52-4.28.86v2.92h1.74l.78-2.28zm9.46 6.92c0 2.38 1.04 3.36 3.26 3.36 1.16 0 2.42-.3 3.04-.66v-1.44c-.28.04-.8.08-1.2.08-1.08 0-1.38-.56-1.38-1.66v-5.9h2.44v-1.92h-2.44v-2.62l-3.72.52v2.1l-1.72.24v1.68h1.72v6.22zm11.44 1.48v-7.7h1.86v-1.92h-1.86v-1.3c0-1.3.36-1.92 1.3-1.92.14 0 .28.02.4.04l.44 1.58h1.92v-2.88c-1.26-.32-2.1-.38-3.18-.38-2.36 0-4.6 1.24-4.6 4v.9l-1.28.64v1.24h1.28v7.7l-1.22.56v1.02h6.46v-1.02l-1.52-.56zm7.9-9.9c-3.4 0-5.74 2.08-5.74 5.88s2.34 5.9 5.74 5.9c3.4 0 5.74-2.1 5.74-5.9 0-3.8-2.34-5.88-5.74-5.88zm.02 10.22c-1.24 0-1.86-.64-1.86-4.34 0-3.7.62-4.34 1.86-4.34 1.24 0 1.82.64 1.82 4.34 0 3.7-.58 4.34-1.82 4.34zm6.18-9.52v1.02l1.24.58v7.58l-1.18.56v1.04h6.44v-1.04l-1.54-.56v-6.22c.64-.3 1.48-.4 2.48-.4.32 0 .72.04.94.1v-3.26c-.12-.04-.36-.06-.56-.06-1.22 0-2.22.8-2.88 2.28h-.12v-2.36h-.32l-4.5.74zm8.6 10.78h5.92v-1.02l-.98-.56v-7.36c.44-.2.84-.3 1.24-.3 1.02 0 1.38.42 1.38 1.58v6.08l-.98.56v1.02h5.68v-1.02l-.98-.56v-7.38c.42-.18.86-.28 1.24-.28 1 0 1.38.42 1.38 1.58v6.08l-.98.56v1.02h5.9v-1.02l-1.22-.56v-6.9c0-2.06-.98-3-2.84-3-1.52 0-2.62.54-3.62 1.46h-.1c-.4-1-1.24-1.46-2.56-1.46-1.52 0-2.48.54-3.48 1.46h-.12v-1.46h-.3l-4.64.74v.98l1.28.58v7.6l-1.22.56v1.02z" fill="#A8D8F2"/><path d="M1.72 13.94c0 2.38 1.04 3.36 3.26 3.36 1.16 0 2.42-.3 3.04-.66v-1.44c-.28.04-.8.08-1.2.08-1.08 0-1.38-.56-1.38-1.66v-5.9h2.44v-1.92h-2.44v-2.62l-3.72.52v2.1l-1.72.24v1.68h1.72v6.22zm6.5 3.06h6.12v-1.02l-1.18-.56v-7.36c.46-.18.96-.3 1.52-.3 1.02 0 1.5.42 1.5 1.58v6.08l-1.18.56v1.02h6.12v-1.02l-1.22-.56v-6.92c0-2.06-.94-2.98-2.8-2.98-1.52 0-2.88.54-3.88 1.46h-.12v-6.24h-.3l-4.64.74v.98l1.28.58v12.38l-1.22.56v1.02zm18.78-10.24c.92 0 1.42.48 1.42 3.46l-3.1.18c.04-2.98.66-3.64 1.68-3.64zm5.04 4.98c0-4.7-1.62-6.2-4.98-6.2-3.34 0-5.52 2.14-5.52 5.84 0 3.8 1.98 5.92 5.82 5.92 2.06 0 3.74-.92 4.26-1.64v-1.08c-.78.24-1.58.38-3 .38-2.04 0-3.08-1.04-3.26-3.22h6.68zm5.64 8.96c-2.04 0-2.74-.72-2.74-1.5 0-.54.14-.92.44-1.26h3.92c.92 0 1.34.28 1.34.86 0 1.16-.64 1.9-2.96 1.9zm.02-13.92c.82 0 1.34.34 1.34 2.58s-.54 2.48-1.34 2.48-1.32-.2-1.32-2.48.52-2.58 1.32-2.58zm2.46 7.76h-4c-.44 0-.8-.32-.8-.72 0-.3.22-.62.5-.82.6.18 1.1.22 1.84.22 2.88 0 4.86-1.3 4.86-3.74 0-1.1-.46-1.72-1.16-2.36v-.08l1.86.66h.26v-2.22h-.22l-2.86.56h-.16c-.7-.26-1.68-.54-2.58-.54-2.88 0-4.88 1.44-4.88 3.86 0 1.48.74 2.58 1.86 3.2v.12c-.64.44-1.88 1.38-1.88 2.56 0 .88.58 1.74 1.78 2v.12c-1.26.26-2.68.68-2.68 2.14 0 1.5 2.16 2.6 5.68 2.6 4.38 0 6.28-1.68 6.28-4.34 0-2.2-1.22-3.22-3.7-3.22zm4.88-.8c0 1.94.96 3.56 3.22 3.56 1.5 0 2.68-.66 3.4-1.54h.14v1.48h.3l4.54-.5v-.96l-1.26-.66v-9.58h-.3l-4.66.74v1.02l1.24.58v6.8c-.38.16-.72.26-1.34.26-.94 0-1.56-.22-1.56-1.5v-7.9h-.32l-4.66.74v1.02l1.26.58v5.86zm18.1 1.1c-.2.22-.62.42-1.02.42-.72 0-1.4-.4-1.4-1.64 0-1.06.7-1.64 1.56-1.72l.86-.08v3.02zm-2.82-7.82c.24-.02.78-.04.96-.04 1.44 0 1.86.72 1.86 2.14v1.5l-2.14.36c-2.48.42-3.96.88-3.96 3.18 0 1.86 1.24 3.14 3.22 3.14 1.4 0 2.72-.6 3.22-1.6h.1c.18 1.2 1.22 1.58 2.38 1.58.9 0 1.74-.26 2.1-.46v-.84l-1.18-.56v-6.5c0-2.52-1.8-3.4-4.8-3.4-1.96 0-3.22.52-4.28.86v2.92h1.74l.78-2.28zm7.9-.8v1.02l1.24.58v7.58l-1.18.56v1.04h6.44v-1.04l-1.54-.56v-6.22c.64-.3 1.48-.4 2.48-.4.32 0 .72.04.94.1v-3.26c-.12-.04-.36-.06-.56-.06-1.22 0-2.22.8-2.88 2.28h-.12v-2.36h-.32l-4.5.74zm15.94-.2c-.46-.32-1.18-.46-1.8-.46-2.96 0-5.46 1.62-5.46 6.14 0 4.3 2.44 5.6 4.48 5.6 1.4 0 2.36-.62 2.82-1.22h.12v1.16h.32l4.42-.5v-.96l-1.18-.66v-14.16h-.3l-4.66.74v1.02l1.24.56v2.74zm0 9.06c-.26.1-.58.2-1.14.2-1.48 0-2.18-1.2-2.18-3.96 0-3.16.88-4.22 2.06-4.22.66 0 .98.18 1.26.4v7.58zm5.06-8.86v1.02l1.26.58v7.58l-1.2.56v1.04h6.12v-1.04l-1.2-.56v-9.92h-.3l-4.68.74zm3.06-5.34c-1.1 0-1.98.88-1.98 1.98 0 1.08.88 1.96 1.98 1.96 1.08 0 1.98-.88 1.98-1.96 0-1.1-.9-1.98-1.98-1.98zm9.64 13.96c-.2.22-.62.42-1.02.42-.72 0-1.4-.4-1.4-1.64 0-1.06.7-1.64 1.56-1.72l.86-.08v3.02zm-2.82-7.82c.24-.02.78-.04.96-.04 1.44 0 1.86.72 1.86 2.14v1.5l-2.14.36c-2.48.42-3.96.88-3.96 3.18 0 1.86 1.24 3.14 3.22 3.14 1.4 0 2.72-.6 3.22-1.6h.1c.18 1.2 1.22 1.58 2.38 1.58.9 0 1.74-.26 2.1-.46v-.84l-1.18-.56v-6.5c0-2.52-1.8-3.4-4.8-3.4-1.96 0-3.22.52-4.28.86v2.92h1.74l.78-2.28zm7.96 9.98h6.12v-1.02l-1.18-.56v-7.36c.46-.18.96-.3 1.52-.3 1.02 0 1.5.42 1.5 1.58v6.08l-1.18.56v1.02h6.12v-1.02l-1.22-.56v-6.92c0-2.06-.94-2.98-2.8-2.98-1.52 0-2.88.54-3.88 1.46h-.12v-1.46h-.3l-4.64.74v.98l1.28.58v7.6l-1.22.56v1.02z" fill="#fff"/></g></svg>