<svg xmlns="http://www.w3.org/2000/svg" width="808" height="118"><g fill="none" fill-rule="evenodd"><path fill="#AAD8F1" d="M384.978 76.085c0 18.034-11.928 26.767-24.921 26.767-14.2 0-24.637-9.017-24.637-26.199 0-18.176 12.07-26.696 24.992-26.696 14.129 0 24.566 8.875 24.566 26.128Zm-24.779-24.85c-5.964 0-8.52 5.467-8.52 24.992 0 20.235 2.272 25.347 8.52 25.347 5.964 0 8.378-5.254 8.378-24.85 0-20.59-2.414-25.489-8.378-25.489Zm67.799 30.175c0 15.265-8.378 21.513-18.105 21.513-2.911 0-5.396-.426-6.532-.852v12.922l4.615.994v1.207h-21.655v-1.207l4.047-.994V67.565l-4.26-1.704v-1.207l15.691-2.272 1.491.142v4.473h.426c1.988-2.343 5.68-4.828 10.934-4.828 7.455 0 13.348 5.112 13.348 19.241Zm-13.561 1.42c0-11.857-2.556-15.265-6.958-15.265-1.633 0-3.053.355-4.118.781v31.382c.923.71 2.13 1.349 3.905 1.349 4.473 0 7.171-4.615 7.171-18.247Zm51.682-1.633h-23.288c.497 9.585 3.55 15.478 13.49 15.478 3.266 0 6.035-.426 8.662-1.562v1.136c-2.201 3.337-7.597 6.816-15.336 6.816-13.135 0-19.88-7.952-19.88-20.661 0-12.425 7.384-20.164 19.312-20.164 11.999 0 17.04 6.39 17.04 17.963v.994Zm-17.324-17.608c-3.692 0-5.964 4.97-5.964 16.188l11.005-.497c0-12.212-1.633-15.691-5.041-15.691Zm19.235 37.204 4.047-1.136V67.565l-4.26-1.704v-1.207l15.478-2.272 1.562.142v4.97h.426c3.337-3.408 8.307-5.325 13.206-5.325 6.745 0 9.727 3.195 9.727 10.295v27.193l4.047 1.136V102h-20.59v-1.207l3.621-.923V73.174c0-3.834-1.704-5.538-5.041-5.538-2.059 0-3.692.497-5.183 1.278V99.87l3.55.923V102h-20.59v-1.207Zm70.412-49.984c14.484 0 20.59 5.183 20.59 15.691 0 11.289-7.81 16.33-19.241 16.33-2.343 0-3.976-.284-5.751-.639v17.608l5.68.994V102h-25.489v-1.207l4.828-1.065V53.081l-4.828-1.065v-1.207h24.211Zm-1.207 30.246c4.615 0 6.887-3.692 6.887-14.413 0-11.076-2.343-14.484-7.1-14.484h-2.982v28.613c1.065.213 2.059.284 3.195.284Zm21.663-32.873 15.762-2.272 1.562.213v53.534l4.047 1.136V102h-21.087v-1.207l4.047-1.136V51.022l-4.331-1.633v-1.207Zm34.5 32.589 8.52-1.633v-5.183c0-7.881-1.704-10.437-6.035-10.437-.497 0-.923.071-1.42.142l-9.585 12.993h-1.207l.284-12.07c3.692-1.136 8.307-2.414 14.413-2.414 10.508 0 16.614 2.911 16.614 11.715V99.16l3.763.994v.994c-1.491.923-4.473 1.775-7.739 1.775-5.183 0-7.668-1.704-8.804-4.544h-.355c-2.201 2.982-5.325 4.686-10.224 4.686-6.248 0-10.508-3.905-10.508-10.65 0-6.532 4.047-10.082 12.283-11.644Zm5.254 17.182c1.633 0 2.556-.497 3.266-1.349v-15.62l-2.627.213c-4.118.355-5.609 2.982-5.609 8.804 0 6.319 2.059 7.952 4.97 7.952Zm25.199-32.163h-5.538v-1.278l5.538-1.42v-6.958l12.922-2.059v9.017h8.591v2.698h-8.591v25.844c0 3.976 1.207 5.609 5.467 5.609 1.349 0 2.698-.142 3.55-.355v1.207c-2.272 2.414-6.177 4.686-10.792 4.686-7.384 0-11.147-3.408-11.147-11.786V65.79Zm39.754 33.867 5.041 1.136V102h-22.152v-1.207l4.118-1.136V65.79h-4.331v-1.278l4.331-1.42v-3.976c0-9.656 7.1-13.277 15.407-13.277 3.337 0 5.68.142 9.372.71l.213 11.573h-1.207l-6.887-10.934c-2.769 0-3.905 2.059-3.905 8.875v7.029h7.171v2.698h-7.171v33.867Zm27.897 3.408c-11.857 0-19.951-8.023-19.951-20.661 0-12.496 7.952-20.235 19.88-20.235 11.928 0 20.022 7.739 20.022 20.306 0 12.638-7.952 20.59-19.951 20.59Zm0-39.618c-3.905 0-5.964 3.763-5.964 19.028 0 15.336 2.059 19.312 6.035 19.312 3.905 0 5.893-4.047 5.893-19.383 0-15.265-1.917-18.957-5.964-18.957Zm20.939 1.207 15.691-2.272 1.278.142V73.6h.355c1.988-8.449 5.254-11.644 9.656-11.644.71 0 1.491.071 1.917.284v11.715c-.71-.213-1.988-.284-3.195-.284-3.55 0-6.177.355-8.449 1.278v24.779l5.254 1.065V102h-22.294v-1.207l4.047-1.065V67.565l-4.26-1.704v-1.207Zm30.382 36.139 4.047-1.065V67.565l-4.26-1.704v-1.207l15.407-2.272 1.562.142v5.112h.426c3.337-3.408 7.029-5.467 12.07-5.467 4.473 0 7.242 1.42 8.733 5.538h.284c3.479-3.55 7.384-5.538 12.425-5.538 6.39 0 9.869 3.266 9.869 10.366v27.193l4.118 1.065V102h-20.022v-1.207l3.195-1.065v-26.98c0-3.55-1.633-4.97-4.828-4.97-1.562 0-3.124.497-4.402 1.207v30.743l3.195 1.065V102h-18.886v-1.207l3.266-1.065v-26.98c0-3.55-1.42-4.97-4.757-4.97-1.775 0-3.195.568-4.473 1.278v30.672l3.124 1.065V102h-20.093v-1.207Z"/><path fill="#FFF" fill-rule="nonzero" d="m72.381 55.621 5.539-2.883V9.17h-4.188L63.493 22.755h-1.151l.646-15.138h44.387l.645 15.138h-1.222L96.772 9.17h-4.295v43.474l5.576 2.943v1.469H72.381zm40.941-1.928V5.418l-4.303-1.721v-.899L124.587 0h1.642v22.842l.43-.365c3.442-3.012 8.389-4.948 13.337-4.948 6.813 0 9.824 3.845 9.824 11.017v25.147l3.639 1.982.002 1.463h-20.348v-1.455l3.657-1.989v-25.23c0-3.944-1.722-5.521-4.948-5.521-2.151 0-4.006.674-5.378 1.776v29.043l3.585 1.98v1.396h-20.361V55.75l3.654-2.057zm52.191-14.824c.422 7.979 3.996 14.154 12.469 14.154 4.094 0 7.002-1.898 9.742-3.343v1.571c-2.117 2.894-7.484 6.963-14.968 6.963-13.131 0-19.838-7.3-19.838-19.938 0-12.354 7.343-20.048 19.203-20.048 11.155 0 16.944 5.576 16.944 20.261v.379h-23.552v.001zm-.213-1.838 11.551-.706c0-9.885-1.693-16.445-5.082-16.445-3.601-.001-6.469 7.62-6.469 17.151zM0 76.391c0-21.012 13.907-28.493 29.401-28.493 6.575 0 12.773 1.058 16.249 2.494l.303 14.663h-1.478l-9.096-14.188c-1.558-.669-3.035-.931-5.756-.931-8.239 0-12.447 9.515-12.315 25.118.157 18.669 3.401 27.142 10.959 27.142 1.965 0 3.477-.303 4.535-.756V81.454l-4.988-2.858V76.92h24.111v1.785l-4.915 2.749v19.728c-4.08 1.588-10.958 3.099-18.214 3.099C11.186 104.28 0 96.118 0 76.391m50.87-9.806v-1.212l16.219-2.859 1.777.148v31.951c0 3.852 1.852 5.035 4.962 5.035 1.999 0 3.81-.761 5.258-2.482V68.51l-4.444-1.925v-1.259l16.219-2.859 1.63.147v36.624l4.369 1.835v1.165l-15.997 1.967-1.629-.148v-4.812h-.445c-2.962 2.739-7.109 5.109-12.145 5.109-7.776 0-11.331-4.592-11.331-11.553V68.51l-4.443-1.925zm103.579-4.139 1.333.147-.004 11.828h.37c1.732-8.672 5.554-11.907 10.22-11.907.741 0 1.555.073 1.999.298v12.1c-.741-.222-2.073-.296-3.332-.296-3.703 0-6.425.669-8.813 1.761l.004 23.378 3.687 2.046.001 1.518h-21.027v-1.503l3.787-2.056V67.862l-4.444-1.325v-1.083l16.219-3.008zm41.714.997V50.967l-4.443-1.556v-.999l16.367-3.009 1.555.223v53.596l4.518 1.64v1.381l-16.145 2.178-1.258-.148v-4.435h-.371c-2.369 2.368-5.629 4.517-10.737 4.517-8.813 0-15.257-6.739-15.257-20.513 0-14.518 7.479-21.657 18.811-21.657 3.257-.001 5.701.592 6.96 1.258m-.023 34.315V65.72c-1.036-.666-1.786-1.489-4.473-1.396-4.377.155-7.08 6.764-7.08 18.539 0 10.589 1.943 16.509 7.776 16.314 1.629-.054 2.963-.637 3.777-1.419m36.706-35.349 1.407.149v37.197l3.697 2.046.002 1.517h-21.027v-1.504l3.775-2.055V68.436l-4.518-1.777v-1.241l16.664-3.009zm1.482-10.043c0 3.926-3.333 6.888-7.185 6.888-3.998 0-7.109-2.962-7.109-6.888 0-3.925 3.111-6.962 7.109-6.962 3.852 0 7.185 3.037 7.185 6.962zm49.204 47.393V68.092l-4.443-1.555v-1.536l16.145-3.008 1.629.147v4.74h.444c3.481-3.11 8.666-5.11 13.774-5.11 7.037 0 10.146 3.332 10.146 10.738v27.188l3.771 2.103v1.517h-21.026v-1.503l3.776-2.055V73.25c0-4.074-1.776-5.702-5.109-5.702-2.148 0-3.919.544-5.555 1.767v30.433l3.703 2.053v1.517h-21.035v-1.503l3.78-2.056zm-23.871-19.902v-5.311c0-8.003-1.745-10.622-6.693-10.622-.58 0-1.09.073-1.673.146l-8.803 11.931h-1.235V65.017c3.782-1.164 8.51-2.547 14.767-2.547 10.768 0 17.024 2.983 17.024 12.004v25.899l3.855 1.019v1.018c-1.528.946-4.584 1.819-7.93 1.819-5.311 0-7.857-1.746-9.021-4.656h-.363c-2.256 3.055-5.457 4.802-10.476 4.802-6.402 0-10.767-4.001-10.767-10.913 0-6.692 4.146-10.331 12.586-11.931l8.729-1.674zm0 17.896V81.75l-2.691.217c-4.221.364-5.748 3.057-5.748 9.021 0 6.475 2.111 8.147 5.094 8.147 1.673 0 2.619-.509 3.345-1.382zM119.175 79.857v-5.311c0-8.003-1.745-10.622-6.693-10.622-.581 0-1.09.073-1.673.146l-8.803 11.931h-1.236V65.017c3.783-1.164 8.511-2.547 14.767-2.547 10.768 0 17.024 2.983 17.024 12.004v25.899l3.856 1.019v1.018c-1.528.946-4.584 1.819-7.93 1.819-5.31 0-7.857-1.746-9.021-4.656h-.364c-2.255 3.055-5.456 4.802-10.475 4.802-6.402 0-10.767-4.001-10.767-10.913 0-6.692 4.146-10.331 12.586-11.931l8.729-1.674zm0 17.896V81.75l-2.691.217c-4.221.364-5.748 3.057-5.748 9.021 0 6.475 2.111 8.147 5.093 8.147 1.672 0 2.619-.509 3.346-1.382z"/></g></svg>