<svg width="598" height="499" xmlns="http://www.w3.org/2000/svg" xmlns:xlink="http://www.w3.org/1999/xlink"><defs><path d="M364.24 383.404H74.222V19.79C74.223 8.859 83.1 0 94.053 0h525.5c10.956 0 19.83 8.859 19.83 19.789v363.615H364.239Z" id="p"/><path d="M713.532 383.404c0 16.48-13.055 29.84-29.162 29.84H29.24c-16.106 0-29.165-13.36-29.165-29.84h713.458Z" id="r"/><path id="s" d="M0 344h535.5V0H0z"/><path id="a" d="M0 0h170v100H0z"/><path id="b" d="M0 0h170v100H0z"/><path id="f" d="M0 0h80v100H0z"/><path id="g" d="M0 0h120v100H0z"/><path id="h" d="M410 155h80v45h-80z"/><path id="i" d="M410 210h80v45h-80z"/><path id="j" d="M320 265h170v90H320z"/><path id="k" d="M-40 45h170v100H-40z"/><path id="l" d="M140 265h170v21H140z"/><path id="m" d="M-40 155h170v100H-40z"/><path id="n" d="M140 296h170v59H140z"/><path d="M102.003 105.286c0 8.495-6.888 15.38-15.385 15.38h-70.8c-8.496 0-15.384-6.885-15.384-15.38V15.38C.434 6.887 7.322 0 15.818 0h70.8c8.497 0 15.385 6.887 15.385 15.381v89.905Z" id="J"/><mask id="u" maskContentUnits="userSpaceOnUse" maskUnits="objectBoundingBox" x="0" y="0" width="170" height="100" fill="#fff"><use xlink:href="#a"/></mask><mask id="v" maskContentUnits="userSpaceOnUse" maskUnits="objectBoundingBox" x="0" y="0" width="170" height="100" fill="#fff"><use xlink:href="#b"/></mask><mask id="w" maskContentUnits="userSpaceOnUse" maskUnits="objectBoundingBox" x="0" y="0" width="6" height="6" fill="#fff"><use xlink:href="#c"/></mask><mask id="x" maskContentUnits="userSpaceOnUse" maskUnits="objectBoundingBox" x="0" y="0" width="6" height="6" fill="#fff"><use xlink:href="#d"/></mask><mask id="y" maskContentUnits="userSpaceOnUse" maskUnits="objectBoundingBox" x="0" y="0" width="6" height="6" fill="#fff"><use xlink:href="#e"/></mask><mask id="z" maskContentUnits="userSpaceOnUse" maskUnits="objectBoundingBox" x="0" y="0" width="80" height="100" fill="#fff"><use xlink:href="#f"/></mask><mask id="A" maskContentUnits="userSpaceOnUse" maskUnits="objectBoundingBox" x="0" y="0" width="120" height="100" fill="#fff"><use xlink:href="#g"/></mask><mask id="B" maskContentUnits="userSpaceOnUse" maskUnits="objectBoundingBox" x="0" y="0" width="80" height="45" fill="#fff"><use xlink:href="#h"/></mask><mask id="C" maskContentUnits="userSpaceOnUse" maskUnits="objectBoundingBox" x="0" y="0" width="80" height="45" fill="#fff"><use xlink:href="#i"/></mask><mask id="D" maskContentUnits="userSpaceOnUse" maskUnits="objectBoundingBox" x="0" y="0" width="170" height="90" fill="#fff"><use xlink:href="#j"/></mask><mask id="E" maskContentUnits="userSpaceOnUse" maskUnits="objectBoundingBox" x="0" y="0" width="170" height="100" fill="#fff"><use xlink:href="#k"/></mask><mask id="F" maskContentUnits="userSpaceOnUse" maskUnits="objectBoundingBox" x="0" y="0" width="170" height="21" fill="#fff"><use xlink:href="#l"/></mask><mask id="G" maskContentUnits="userSpaceOnUse" maskUnits="objectBoundingBox" x="0" y="0" width="170" height="100" fill="#fff"><use xlink:href="#m"/></mask><mask id="H" maskContentUnits="userSpaceOnUse" maskUnits="objectBoundingBox" x="0" y="0" width="170" height="59" fill="#fff"><use xlink:href="#n"/></mask><filter x="-50%" y="-50%" width="200%" height="200%" filterUnits="objectBoundingBox" id="o"><feOffset dy="4" in="SourceAlpha" result="shadowOffsetOuter1"/><feGaussianBlur stdDeviation="7.5" in="shadowOffsetOuter1" result="shadowBlurOuter1"/><feColorMatrix values="0 0 0 0 0.580392157 0 0 0 0 0.580392157 0 0 0 0 0.580392157 0 0 0 0.5 0" in="shadowBlurOuter1"/></filter><filter x="-50%" y="-50%" width="200%" height="200%" filterUnits="objectBoundingBox" id="q"><feOffset dx="2" in="SourceAlpha" result="shadowOffsetOuter1"/><feGaussianBlur stdDeviation="7.5" in="shadowOffsetOuter1" result="shadowBlurOuter1"/><feColorMatrix values="0 0 0 0 0.579161352 0 0 0 0 0.579161352 0 0 0 0 0.579161352 0 0 0 0.5 0" in="shadowBlurOuter1"/></filter><filter x="-50%" y="-50%" width="200%" height="200%" filterUnits="objectBoundingBox" id="I"><feOffset dy="5" in="SourceAlpha" result="shadowOffsetOuter1"/><feGaussianBlur stdDeviation="7.5" in="shadowOffsetOuter1" result="shadowBlurOuter1"/><feColorMatrix values="0 0 0 0 0.598107993 0 0 0 0 0.598107993 0 0 0 0 0.598107993 0 0 0 0.5 0" in="shadowBlurOuter1" result="shadowMatrixOuter1"/><feMerge><feMergeNode in="shadowMatrixOuter1"/><feMergeNode in="SourceGraphic"/></feMerge></filter><circle id="c" cx="9" cy="9" r="3"/><circle id="d" cx="18" cy="9" r="3"/><circle id="e" cx="27" cy="9" r="3"/></defs><g fill="none" fill-rule="evenodd"><g transform="translate(-135 10.977)"><use fill="#000" filter="url(#o)" xlink:href="#p"/><use fill="#3D3D3D" xlink:href="#p"/></g><g transform="translate(-135 10.977)"><use fill="#000" filter="url(#q)" xlink:href="#r"/><use fill="#E7E5E7" xlink:href="#r"/></g><path d="M271.99 394.381c0 5.494-4.552 9.947-10.167 9.947h-79.135c-5.613 0-10.167-4.453-10.167-9.947h99.468Z" fill="#B3B2B2"/><g transform="translate(-45.4 30.477)"><mask id="t" fill="#fff"><use xlink:href="#s"/></mask><use fill="#0D7CAD" xlink:href="#s"/><g mask="url(#t)" stroke="#FFF"><g transform="translate(320 45)"><use mask="url(#u)" stroke-width="2" xlink:href="#a"/><path d="m.497.467 169.006 99.066m0-99.066L.497 99.533" stroke-linecap="round"/></g></g><g mask="url(#t)" stroke="#FFF"><g transform="translate(140 45)"><use mask="url(#v)" stroke-width="2" xlink:href="#b"/><path d="M1.5 17.5h167" stroke-linecap="square"/><use mask="url(#w)" stroke-width="2" xlink:href="#c"/><use mask="url(#x)" stroke-width="2" xlink:href="#d"/><use mask="url(#y)" stroke-width="2" xlink:href="#e"/></g></g><g mask="url(#t)" stroke="#FFF"><g transform="translate(320 155)"><use mask="url(#z)" stroke-width="2" xlink:href="#f"/><path d="m.47.5 79.06 99m0-99L.47 99.5" stroke-linecap="round"/></g></g><g mask="url(#t)" stroke="#FFF"><g transform="translate(10 265)"><use mask="url(#A)" stroke-width="2" xlink:href="#g"/><path d="m.706.5 118.588 99m0-99L.706 99.5" stroke-linecap="round"/></g></g><g mask="url(#t)" stroke-width="2" stroke="#FFF"><use mask="url(#B)" xlink:href="#h"/></g><g mask="url(#t)" stroke-width="2" stroke="#FFF"><use mask="url(#C)" xlink:href="#i"/></g><g mask="url(#t)" stroke-width="2" stroke="#FFF"><use mask="url(#D)" xlink:href="#j"/></g><g mask="url(#t)" stroke-width="2" stroke="#FFF"><use mask="url(#E)" xlink:href="#k"/></g><g mask="url(#t)" stroke="#FFF" stroke-linecap="square"><path d="M140.5 155.5h169m-169 8h169m-169 8h169m-169 8h169m-169 8h169m-169 8h169m-169 8h169"/></g><g mask="url(#t)" stroke-width="2" stroke="#FFF"><use mask="url(#F)" xlink:href="#l"/></g><g mask="url(#t)" stroke-width="2" stroke="#FFF"><use mask="url(#G)" xlink:href="#m"/></g><g mask="url(#t)" stroke-width="2" stroke="#FFF"><use mask="url(#H)" xlink:href="#n"/></g><g mask="url(#t)" stroke-linecap="square" stroke="#FFF" stroke-width=".5"><path d="M30.898 21.25h458.637"/></g></g><path d="M230.392 16.403a4.52 4.52 0 1 1 0 9.042 4.52 4.52 0 0 1-4.52-4.524 4.518 4.518 0 0 1 4.52-4.518" fill="#5D5D5D"/><g filter="url(#I)" transform="translate(467.612 267.023)"><path d="m55.559 51.218 43.405-9.314c-5.527-3.433-7.721-10.021-8.327-15.264-.605-5.242-1.21-13.234-1.642-17.273-.432-4.04-2.42-5.672-5.359-6.617C80.697 1.805 67.818 0 55.933 0l-.374.002L55.184 0C43.3 0 30.42 1.805 27.482 2.75c-2.94.945-4.927 2.578-5.36 6.617-.431 4.04-1.036 12.031-1.642 17.273-.605 5.243-2.8 11.831-8.327 15.264l43.406 9.314Zm0 109.382-43.406 9.314c5.527 3.433 7.722 10.021 8.327 15.264.606 5.242 1.21 13.234 1.643 17.273.432 4.04 2.42 5.672 5.359 6.617 2.938.945 15.817 2.75 27.702 2.75l.375-.002.374.002c11.885 0 24.764-1.805 27.703-2.75 2.939-.945 4.927-2.578 5.36-6.617.431-4.04 1.036-12.031 1.641-17.273.606-5.243 2.8-11.831 8.327-15.264L55.56 160.6Z" fill="#3D3D3D"/><path d="M110.25 151.35c0 11.342-9.14 20.535-20.414 20.535H20.413C9.14 171.885 0 162.692 0 151.351V61.336C0 49.995 9.14 40.8 20.413 40.8h69.423c11.274 0 20.414 9.194 20.414 20.535v90.015Z" fill="#E9E9E9"/><path d="M115.458 90.684c0 1.217-.844 2.203-1.885 2.203h-2.602c-1.041 0-2.458-3.26-2.458-8.098v-6.953c0-3.067 1.417-6.651 2.458-6.651h2.602c1.041 0 1.885.986 1.885 2.203v17.296Z" fill="#E9E9E9"/><g transform="translate(4.775 46.01)"><mask id="K" fill="#fff"><use xlink:href="#J"/></mask><use fill="#333" xlink:href="#J"/><circle fill="#FFF" mask="url(#K)" cx="78.642" cy="60.281" r="11.23"/><circle fill="#0D7CAD" mask="url(#K)" cx="64.619" cy="36.794" r="11.23"/><circle fill="#FFBD2E" mask="url(#K)" cx="51.135" cy="13.488" r="9.92"/><circle fill="#0D7CAD" mask="url(#K)" cx="25.791" cy="16.703" r="8.428"/><circle fill="#B5DBEF" mask="url(#K)" cx="14.091" cy="38.56" r="8.428"/><circle fill="#FFF" mask="url(#K)" cx="14.091" cy="82.104" r="8.428"/><circle fill="#FFBD2E" mask="url(#K)" cx="25.791" cy="104.021" r="8.428"/><circle fill="#FFF" mask="url(#K)" cx="76.646" cy="104.021" r="8.428"/><circle fill="#B5DBEF" mask="url(#K)" cx="87.95" cy="82.104" r="8.428"/><circle fill="#0D7CAD" mask="url(#K)" cx="95.585" cy="60.332" r="2.935"/><circle fill="#B5DBEF" mask="url(#K)" cx="6.639" cy="60.332" r="2.935"/><circle fill="#FFBD2E" mask="url(#K)" cx="88.276" cy="38.333" r="8.428"/><circle fill="#FFF" mask="url(#K)" cx="76.646" cy="16.703" r="8.428"/><circle fill="#B5DBEF" mask="url(#K)" cx="51.135" cy="107.236" r="9.92"/><circle fill="#FFF" mask="url(#K)" cx="37.748" cy="36.794" r="11.23"/><circle fill="#FFBD2E" mask="url(#K)" cx="23.628" cy="60.332" r="11.23"/><circle fill="#0D7CAD" mask="url(#K)" cx="37.748" cy="83.93" r="11.23"/><circle fill="#FFBD2E" mask="url(#K)" cx="64.619" cy="83.93" r="11.23"/><path d="M51.135 73.053c7.026 0 12.721-5.695 12.721-12.721S58.161 47.61 51.135 47.61s-12.721 5.695-12.721 12.72c0 7.027 5.695 12.722 12.721 12.722Z" fill="#B5DBEF" mask="url(#K)"/></g></g></g></svg>