<svg width="508" height="441" xmlns="http://www.w3.org/2000/svg" xmlns:xlink="http://www.w3.org/1999/xlink"><defs><filter x="-50%" y="-50%" width="200%" height="200%" filterUnits="objectBoundingBox" id="a"><feOffset dy="5" in="SourceAlpha" result="shadowOffsetOuter1"/><feGaussianBlur stdDeviation="7.5" in="shadowOffsetOuter1" result="shadowBlurOuter1"/><feColorMatrix values="0 0 0 0 0.395089286 0 0 0 0 0.395089286 0 0 0 0 0.395089286 0 0 0 0.5 0" in="shadowBlurOuter1"/></filter><path id="b" d="M0 420.458h644.354V36.752H0z"/></defs><g transform="translate(15)" fill="none" fill-rule="evenodd"><rect fill="#E7E5E7" y=".39" width="529.953" height="41.355" rx="5"/><use fill="#000" filter="url(#a)" xlink:href="#b"/><use fill="#5D5D5D" xlink:href="#b"/><path fill="#B5DBEF" d="M54.735 59.757h122.176v10.231H54.735zm0 269.765h175.933v10.231H54.735zm0-167.137h125.108v10.231H54.735z"/><path fill="#FFCE4B" d="M54.735 100.809h125.108v10.231H54.735zm0 208.187h125.108v10.231H54.735zm0-105.56H158.34v10.231H54.735zm135.859 20.526h128.04v10.231h-128.04z"/><path fill="#FFF" d="M54.735 121.334h264.179v10.231H54.735zm0 146.611h264.179v10.231H54.735zm0 82.102h122.176v10.231H54.735zm0-126.085h130.973v10.231H54.735zm0-143.679h175.933v10.231H54.735zm0 208.188h175.933v10.231H54.735zm0-105.56h173.979v10.231H54.735zM181.798 59.757h72.328v10.231h-72.328zm2.932 102.628h93.831v10.231H184.73z"/><path fill="#B5DBEF" d="M184.73 100.809h93.831v10.231H184.73zm0 208.187h93.831v10.231H184.73zm-21.503-105.56h114.357v10.231H163.227zM54.735 141.86h93.831v10.231H54.735z"/><path fill="#FFCE4B" d="M259.013 59.757h100.673v10.231H259.013zm-23.458 269.765h125.108v10.231H235.555z"/><path fill="#FFF" d="M283.448 100.809h122.176v10.231H283.448zm0 208.187h122.176v10.231H283.448z"/><path fill="#FFCE4B" d="M153.453 141.86h125.108v10.231H153.453z"/><path fill="#B5DBEF" d="M235.555 80.283h85.034v10.231h-85.034zm0 208.188h85.034v10.231h-85.034zm-1.955-105.56h126.086v10.231H233.6z"/><ellipse fill="#2AD043" cx="57.279" cy="18.417" rx="6.106" ry="6.139"/><ellipse fill="#FFBD2E" cx="37.824" cy="18.417" rx="6.106" ry="6.139"/><ellipse fill="#FF625A" cx="18.369" cy="18.417" rx="6.106" ry="6.139"/><path fill="#333" d="M0 36.752h36.862v383.707H0z"/></g></svg>