<svg width="569" height="441" viewBox="0 0 569 441" xmlns="http://www.w3.org/2000/svg" xmlns:xlink="http://www.w3.org/1999/xlink"><title>windows</title><desc>Created with Sketch.</desc><defs><path id="a" d="M0 .39h688.857v36.361h-688.857z"/><mask id="e" x="0" y="0" width="688.857" height="36.361"><use xlink:href="#a"/></mask><path id="b" d="M0 35.752h688.857v284.647h-688.857z"/><mask id="f" x="0" y="0" width="688.857" height="284.647"><use xlink:href="#b"/></mask><path id="c" d="M0 0h475v260h-475z"/><mask x="0" y="0" width="475" height="260"><use xlink:href="#c"/></mask><mask id="g" x="0" y="0" width="475" height="260"><use xlink:href="#c"/></mask><path id="d" d="M0 36v-36h532v36"/><mask id="i" x="0" y="0" width="532" height="36"><use xlink:href="#d"/></mask><path id="k" d="M0 420.458h644.354v-383.707h-644.354z"/><filter x="-50%" y="-50%" width="200%" height="200%" filterUnits="objectBoundingBox" id="j"><feOffset dy="5" in="SourceAlpha" result="shadowOffsetOuter1"/><feGaussianBlur stdDeviation="7.5" in="shadowOffsetOuter1" result="shadowBlurOuter1"/><feColorMatrix values="0 0 0 0 0.395089286 0 0 0 0 0.395089286 0 0 0 0 0.395089286 0 0 0 0.5 0" in="shadowBlurOuter1"/></filter></defs><g fill="none"><g transform="translate(0 47)" stroke="#fff"><use id="Rectangle-632" mask="url(#e)" fill="#0D7CAD" xlink:href="#a"/><use mask="url(#f)" xlink:href="#b"/><ellipse id="Oval-2" cx="57.279" cy="18.417" rx="6.106" ry="6.139"/><ellipse id="Oval-2-Copy" cx="37.824" cy="18.417" rx="6.106" ry="6.139"/><ellipse id="Oval-2-Copy-2" cx="18.369" cy="18.417" rx="6.106" ry="6.139"/></g><g transform="translate(38 103)"><g transform="translate(0 36)"><mask id="h"><use xlink:href="#c"/></mask><use mask="url(#g)" xlink:href="#c" stroke="#fff" stroke-width="2" fill="#0D7CAD"/><g mask="url(#h)" stroke="#fff" stroke-linecap="square"><path d="M-163.976 142.952l325.576-325.576"/><path d="M55.175 362.103l325.576-325.576"/><path d="M-120.043 186.886l325.576-325.576"/><path d="M99.108 406.036l325.576-325.576"/><path d="M-76.109 230.819l325.576-325.576"/><path d="M143.042 449.97l325.576-325.576"/><path d="M-32.176 274.753l325.576-325.576"/><path d="M186.975 493.903l325.576-325.576"/><path d="M11.758 318.686l325.576-325.576"/><path d="M230.909 537.837l325.576-325.576"/><path d="M-155.188 151.739l325.576-325.576"/><path d="M63.962 370.89l325.576-325.576"/><path d="M-111.255 195.672l325.576-325.576"/><path d="M107.896 414.823l325.576-325.576"/><path d="M-67.321 239.606l325.576-325.576"/><path d="M151.829 458.757l325.576-325.576"/><path d="M-23.388 283.539l325.576-325.576"/><path d="M195.763 502.69l325.576-325.576"/><path d="M20.546 327.473l325.576-325.576"/><path d="M239.696 546.624l325.576-325.576"/><path d="M-146.402 160.526l325.576-325.576"/><path d="M72.748 379.676l325.576-325.576"/><path d="M-102.468 204.459l325.576-325.576"/><path d="M116.681 423.61l325.576-325.576"/><path d="M-58.535 248.393l325.576-325.576"/><path d="M160.616 467.543l325.576-325.576"/><path d="M-14.601 292.326l325.576-325.576"/><path d="M204.55 511.477l325.576-325.576"/><path d="M29.332 336.26l325.576-325.576"/><path d="M248.483 555.41l325.576-325.576"/><path d="M-137.615 169.312l325.576-325.576"/><path d="M81.536 388.463l325.576-325.576"/><path d="M-93.682 213.246l325.576-325.576"/><path d="M125.469 432.397l325.576-325.576"/><path d="M-49.748 257.179l325.576-325.576"/><path d="M169.403 476.33l325.576-325.576"/><path d="M-5.814 301.113l325.576-325.576"/><path d="M213.336 520.264l325.576-325.576"/><path d="M38.119 345.046l325.576-325.576"/><path d="M257.27 564.197l325.576-325.576"/><path d="M-128.828 178.099l325.576-325.576"/><path d="M90.322 397.25l325.576-325.576"/><path d="M-84.895 222.033l325.576-325.576"/><path d="M134.256 441.183l325.576-325.576"/><path d="M-40.961 265.966l325.576-325.576"/><path d="M178.189 485.117l325.576-325.576"/><path d="M2.972 309.9l325.576-325.576"/><path d="M222.123 529.05l325.576-325.576"/><path d="M46.906 353.833l325.576-325.576"/><path d="M266.056 572.984l325.576-325.576"/></g></g><use stroke="#fff" mask="url(#i)" stroke-width="2" fill="#0D7CAD" xlink:href="#d"/><ellipse id="Oval-2" stroke="#fff" cx="18.106" cy="18.139" rx="6.106" ry="6.139"/><ellipse stroke="#fff" cx="38.106" cy="18.139" rx="6.106" ry="6.139"/><ellipse stroke="#fff" cx="58.106" cy="18.139" rx="6.106" ry="6.139"/></g><g transform="translate(76 0)"><rect fill="#E7E5E7" y=".39" width="529.953" height="41.355" rx="5"/><g><use fill="#000" filter="url(#j)" xlink:href="#k"/><use fill="#5D5D5D" xlink:href="#k"/></g><path fill="#B5DBEF" d="M54.735 59.757h122.176v10.231h-122.176z"/><path fill="#B5DBEF" d="M54.735 329.522h175.933v10.231h-175.933z"/><path fill="#B5DBEF" d="M54.735 162.385h125.108v10.231h-125.108z"/><path fill="#FFCE4B" d="M54.735 100.809h125.108v10.231h-125.108z"/><path fill="#FFCE4B" d="M54.735 308.996h125.108v10.231h-125.108z"/><path fill="#FFCE4B" d="M54.735 203.436h103.605v10.231h-103.605z"/><path fill="#FFCE4B" d="M190.594 223.962h128.04v10.231h-128.04z"/><path fill="#fff" d="M54.735 121.334h264.179v10.231h-264.179z"/><path fill="#fff" d="M54.735 267.945h264.179v10.231h-264.179z"/><path fill="#fff" d="M54.735 350.047h122.176v10.231h-122.176z"/><path fill="#fff" d="M54.735 223.962h130.973v10.231h-130.973z"/><path fill="#fff" d="M54.735 80.283h175.933v10.231h-175.933z"/><path fill="#fff" d="M54.735 288.471h175.933v10.231h-175.933z"/><path fill="#fff" d="M54.735 182.911h173.979v10.231h-173.979z"/><path fill="#fff" d="M181.798 59.757h72.328v10.231h-72.328z"/><path fill="#fff" d="M184.73 162.385h93.831v10.231h-93.831z"/><path fill="#B5DBEF" d="M184.73 100.809h93.831v10.231h-93.831z"/><path fill="#B5DBEF" d="M184.73 308.996h93.831v10.231h-93.831z"/><path fill="#B5DBEF" d="M163.227 203.436h114.357v10.231h-114.357z"/><path fill="#B5DBEF" d="M54.735 141.86h93.831v10.231h-93.831z"/><path fill="#FFCE4B" d="M259.013 59.757h100.673v10.231h-100.673z"/><path fill="#FFCE4B" d="M235.555 329.522h125.108v10.231h-125.108z"/><path fill="#fff" d="M283.448 100.809h122.176v10.231h-122.176z"/><path fill="#fff" d="M283.448 308.996h122.176v10.231h-122.176z"/><path fill="#FFCE4B" d="M153.453 141.86h125.108v10.231h-125.108z"/><path fill="#B5DBEF" d="M235.555 80.283h85.034v10.231h-85.034z"/><path fill="#B5DBEF" d="M235.555 288.471h85.034v10.231h-85.034z"/><path fill="#B5DBEF" d="M233.6 182.911h126.086v10.231h-126.086z"/><ellipse fill="#2AD043" cx="57.279" cy="18.417" rx="6.106" ry="6.139"/><ellipse fill="#FFBD2E" cx="37.824" cy="18.417" rx="6.106" ry="6.139"/><ellipse fill="#FF625A" cx="18.369" cy="18.417" rx="6.106" ry="6.139"/><path fill="#333" d="M0 36.752h36.862v383.707h-36.862z"/></g></g></svg>