<svg width="569" height="441" xmlns="http://www.w3.org/2000/svg" xmlns:xlink="http://www.w3.org/1999/xlink"><defs><path id="a" d="M0 .39h688.857v36.361H0z"/><path id="b" d="M0 35.752h688.857v284.647H0z"/><path id="c" d="M0 0h475v260H0z"/><path id="d" d="M0 36V0h532v36"/><path id="l" d="M0 420.458h644.354V36.752H0z"/><mask id="e" maskContentUnits="userSpaceOnUse" maskUnits="objectBoundingBox" x="0" y="0" width="688.857" height="36.361" fill="#fff"><use xlink:href="#a"/></mask><mask id="f" maskContentUnits="userSpaceOnUse" maskUnits="objectBoundingBox" x="0" y="0" width="688.857" height="284.647" fill="#fff"><use xlink:href="#b"/></mask><mask id="g" maskContentUnits="userSpaceOnUse" maskUnits="objectBoundingBox" x="0" y="0" width="475" height="260" fill="#fff"><use xlink:href="#c"/></mask><mask id="h" maskContentUnits="userSpaceOnUse" maskUnits="objectBoundingBox" x="0" y="0" width="475" height="260" fill="#fff"><use xlink:href="#c"/></mask><mask id="j" maskContentUnits="userSpaceOnUse" maskUnits="objectBoundingBox" x="0" y="0" width="532" height="36" fill="#fff"><use xlink:href="#d"/></mask><filter x="-50%" y="-50%" width="200%" height="200%" filterUnits="objectBoundingBox" id="k"><feOffset dy="5" in="SourceAlpha" result="shadowOffsetOuter1"/><feGaussianBlur stdDeviation="7.5" in="shadowOffsetOuter1" result="shadowBlurOuter1"/><feColorMatrix values="0 0 0 0 0.395089286 0 0 0 0 0.395089286 0 0 0 0 0.395089286 0 0 0 0.5 0" in="shadowBlurOuter1"/></filter></defs><g fill="none" fill-rule="evenodd"><g transform="translate(0 47)" stroke="#FFF"><use mask="url(#e)" stroke-width="2" fill="#0D7CAD" xlink:href="#a"/><use mask="url(#f)" stroke-width="2" fill="#0D7CAD" xlink:href="#b"/><ellipse cx="57.279" cy="18.417" rx="6.106" ry="6.139"/><ellipse cx="37.824" cy="18.417" rx="6.106" ry="6.139"/><ellipse cx="18.369" cy="18.417" rx="6.106" ry="6.139"/></g><g transform="translate(38 103)"><g transform="translate(0 36)"><mask id="i" fill="#fff"><use xlink:href="#c"/></mask><g stroke="#FFF" mask="url(#g)" stroke-width="2" fill="#0D7CAD"><use mask="url(#h)" xlink:href="#c"/></g><g mask="url(#i)" stroke="#FFF" stroke-linecap="square"><path d="m-164 142.976 325.625-325.625M55.15 362.127 380.777 36.502M-120.066 186.91l325.624-325.625M99.084 406.06 424.71 80.436M-76.133 230.843 249.492-94.782M143.018 449.994l325.625-325.625M-32.2 274.777 293.426-50.848M186.951 493.927l325.625-325.624M11.734 318.71 337.36-6.915M230.885 537.861 556.51 212.236m-711.723-60.473 325.625-325.625M63.937 370.914 389.562 45.289M-111.28 195.696l325.625-325.624M107.87 414.847 433.497 89.222M-67.346 239.63 258.279-85.995M151.804 458.78 477.43 133.157M-23.413 283.563 302.212-42.06M195.738 502.714 521.363 177.09M20.52 327.497 346.147 1.872M239.671 546.648l325.625-325.625m-711.723-60.473 325.625-325.625M72.724 379.7 398.35 54.075m-500.843 150.408 325.625-325.625M116.658 423.634 442.283 98.009M-58.56 248.417 267.065-77.208M160.591 467.567l325.625-325.625M-14.626 292.35 310.999-33.275M204.525 511.5 530.15 185.877M29.307 336.284 354.932 10.659M248.458 555.434 574.083 229.81m-711.723-60.474 325.625-325.625M81.51 388.487 407.137 62.862M-93.706 213.27l325.624-325.625M125.444 432.42 451.07 106.797M-49.773 257.203 275.852-68.422M169.378 476.354 495.003 150.73M-5.84 301.137 319.787-24.488M213.311 520.288l325.625-325.625M38.094 345.07 363.72 19.446M257.245 564.221 582.87 238.596m-711.723-60.473 325.625-325.625M90.298 397.274 415.922 71.649M-84.92 222.057l325.625-325.625M134.231 441.207l325.625-325.625M-40.986 265.99 284.639-59.635M178.165 485.14l325.624-325.624M2.947 309.924 328.572-15.701M222.098 529.074 547.723 203.45M46.88 353.857 372.507 28.232M266.032 573.008l325.624-325.625"/></g></g><use stroke="#FFF" mask="url(#j)" stroke-width="2" fill="#0D7CAD" xlink:href="#d"/><ellipse stroke="#FFF" cx="18.106" cy="18.139" rx="6.106" ry="6.139"/><ellipse stroke="#FFF" cx="38.106" cy="18.139" rx="6.106" ry="6.139"/><ellipse stroke="#FFF" cx="58.106" cy="18.139" rx="6.106" ry="6.139"/></g><g transform="translate(76)"><rect fill="#E7E5E7" y=".39" width="529.953" height="41.355" rx="5"/><use fill="#000" filter="url(#k)" xlink:href="#l"/><use fill="#5D5D5D" xlink:href="#l"/><path fill="#B5DBEF" d="M54.735 59.757h122.176v10.231H54.735zm0 269.765h175.933v10.231H54.735zm0-167.137h125.108v10.231H54.735z"/><path fill="#FFCE4B" d="M54.735 100.809h125.108v10.231H54.735zm0 208.187h125.108v10.231H54.735zm0-105.56H158.34v10.231H54.735zm135.859 20.526h128.04v10.231h-128.04z"/><path fill="#FFF" d="M54.735 121.334h264.179v10.231H54.735zm0 146.611h264.179v10.231H54.735zm0 82.102h122.176v10.231H54.735zm0-126.085h130.973v10.231H54.735zm0-143.679h175.933v10.231H54.735zm0 208.188h175.933v10.231H54.735zm0-105.56h173.979v10.231H54.735zM181.798 59.757h72.328v10.231h-72.328zm2.932 102.628h93.831v10.231H184.73z"/><path fill="#B5DBEF" d="M184.73 100.809h93.831v10.231H184.73zm0 208.187h93.831v10.231H184.73zm-21.503-105.56h114.357v10.231H163.227zM54.735 141.86h93.831v10.231H54.735z"/><path fill="#FFCE4B" d="M259.013 59.757h100.673v10.231H259.013zm-23.458 269.765h125.108v10.231H235.555z"/><path fill="#FFF" d="M283.448 100.809h122.176v10.231H283.448zm0 208.187h122.176v10.231H283.448z"/><path fill="#FFCE4B" d="M153.453 141.86h125.108v10.231H153.453z"/><path fill="#B5DBEF" d="M235.555 80.283h85.034v10.231h-85.034zm0 208.188h85.034v10.231h-85.034zm-1.955-105.56h126.086v10.231H233.6z"/><ellipse fill="#2AD043" cx="57.279" cy="18.417" rx="6.106" ry="6.139"/><ellipse fill="#FFBD2E" cx="37.824" cy="18.417" rx="6.106" ry="6.139"/><ellipse fill="#FF625A" cx="18.369" cy="18.417" rx="6.106" ry="6.139"/><path fill="#333" d="M0 36.752h36.862v383.707H0z"/></g></g></svg>