<svg width="531" height="296" xmlns="http://www.w3.org/2000/svg" xmlns:xlink="http://www.w3.org/1999/xlink"><defs><mask id="c" maskContentUnits="userSpaceOnUse" maskUnits="objectBoundingBox" x="0" y="0" width="475" height="260" fill="#fff"><use xlink:href="#a"/></mask><mask id="d" maskContentUnits="userSpaceOnUse" maskUnits="objectBoundingBox" x="0" y="0" width="475" height="260" fill="#fff"><use xlink:href="#a"/></mask><mask id="f" maskContentUnits="userSpaceOnUse" maskUnits="objectBoundingBox" x="0" y="0" width="532" height="36" fill="#fff"><use xlink:href="#b"/></mask><path id="a" d="M0 0h475v260H0z"/><path id="b" d="M0 36V0h532v36"/></defs><g fill="none" fill-rule="evenodd"><g transform="translate(0 36)"><mask id="e" fill="#fff"><use xlink:href="#a"/></mask><g stroke="#FFF" mask="url(#c)" stroke-width="2" fill="#0D7CAD"><use mask="url(#d)" xlink:href="#a"/></g><g mask="url(#e)" stroke="#FFF" stroke-linecap="square"><path d="m-164 142.976 325.625-325.625M55.15 362.127 380.777 36.502M-120.066 186.91l325.624-325.625M99.084 406.06 424.71 80.436M-76.133 230.843 249.492-94.782M143.018 449.994l325.625-325.625M-32.2 274.777 293.426-50.848M186.951 493.927l325.625-325.624M11.734 318.71 337.36-6.915M230.885 537.861 556.51 212.236m-711.723-60.473 325.625-325.625M63.937 370.914 389.562 45.289M-111.28 195.696l325.625-325.624M107.87 414.847 433.497 89.222M-67.346 239.63 258.279-85.995M151.804 458.78 477.43 133.157M-23.413 283.563 302.212-42.06M195.738 502.714 521.363 177.09M20.52 327.497 346.147 1.872M239.671 546.648l325.625-325.625m-711.723-60.473 325.625-325.625M72.724 379.7 398.35 54.075m-500.843 150.408 325.625-325.625M116.658 423.634 442.283 98.009M-58.56 248.417 267.065-77.208M160.591 467.567l325.625-325.625M-14.626 292.35 310.999-33.275M204.525 511.5 530.15 185.877M29.307 336.284 354.932 10.659M248.458 555.434 574.083 229.81m-711.723-60.474 325.625-325.625M81.51 388.487 407.137 62.862M-93.706 213.27l325.624-325.625M125.444 432.42 451.07 106.797M-49.773 257.203 275.852-68.422M169.378 476.354 495.003 150.73M-5.84 301.137 319.787-24.488M213.311 520.288l325.625-325.625M38.094 345.07 363.72 19.446M257.245 564.221 582.87 238.596m-711.723-60.473 325.625-325.625M90.298 397.274 415.922 71.649M-84.92 222.057l325.625-325.625M134.231 441.207l325.625-325.625M-40.986 265.99 284.639-59.635M178.165 485.14l325.624-325.624M2.947 309.924 328.572-15.701M222.098 529.074 547.723 203.45M46.88 353.857 372.507 28.232M266.032 573.008l325.624-325.625"/></g></g><use stroke="#FFF" mask="url(#f)" stroke-width="2" fill="#0D7CAD" xlink:href="#b"/><ellipse stroke="#FFF" cx="18.106" cy="18.139" rx="6.106" ry="6.139"/><ellipse stroke="#FFF" cx="38.106" cy="18.139" rx="6.106" ry="6.139"/><ellipse stroke="#FFF" cx="58.106" cy="18.139" rx="6.106" ry="6.139"/></g></svg>