<svg width="531" height="296" viewBox="0 0 531 296" xmlns="http://www.w3.org/2000/svg" xmlns:xlink="http://www.w3.org/1999/xlink"><title>windowTwo</title><desc>Created with Sketch.</desc><defs><path id="a" d="M0 0h475v260h-475z"/><mask x="0" y="0" width="475" height="260"><use xlink:href="#a"/></mask><mask id="c" x="0" y="0" width="475" height="260"><use xlink:href="#a"/></mask><path id="b" d="M0 36v-36h532v36"/><mask id="e" x="0" y="0" width="532" height="36"><use xlink:href="#b"/></mask></defs><g transform="translate(0 0)" fill="none"><g transform="translate(0 36)"><mask id="d"><use xlink:href="#a"/></mask><use mask="url(#c)" xlink:href="#a" stroke="#fff" stroke-width="2" fill="#0D7CAD"/><g mask="url(#d)" stroke="#fff" stroke-linecap="square"><path d="M-163.976 142.952l325.576-325.576"/><path d="M55.175 362.103l325.576-325.576"/><path d="M-120.043 186.886l325.576-325.576"/><path d="M99.108 406.036l325.576-325.576"/><path d="M-76.109 230.819l325.576-325.576"/><path d="M143.042 449.97l325.576-325.576"/><path d="M-32.176 274.753l325.576-325.576"/><path d="M186.975 493.903l325.576-325.576"/><path d="M11.758 318.686l325.576-325.576"/><path d="M230.909 537.837l325.576-325.576"/><path d="M-155.188 151.739l325.576-325.576"/><path d="M63.962 370.89l325.576-325.576"/><path d="M-111.255 195.672l325.576-325.576"/><path d="M107.896 414.823l325.576-325.576"/><path d="M-67.321 239.606l325.576-325.576"/><path d="M151.829 458.757l325.576-325.576"/><path d="M-23.388 283.539l325.576-325.576"/><path d="M195.763 502.69l325.576-325.576"/><path d="M20.546 327.473l325.576-325.576"/><path d="M239.696 546.624l325.576-325.576"/><path d="M-146.402 160.526l325.576-325.576"/><path d="M72.748 379.676l325.576-325.576"/><path d="M-102.468 204.459l325.576-325.576"/><path d="M116.681 423.61l325.576-325.576"/><path d="M-58.535 248.393l325.576-325.576"/><path d="M160.616 467.543l325.576-325.576"/><path d="M-14.601 292.326l325.576-325.576"/><path d="M204.55 511.477l325.576-325.576"/><path d="M29.332 336.26l325.576-325.576"/><path d="M248.483 555.41l325.576-325.576"/><path d="M-137.615 169.312l325.576-325.576"/><path d="M81.536 388.463l325.576-325.576"/><path d="M-93.682 213.246l325.576-325.576"/><path d="M125.469 432.397l325.576-325.576"/><path d="M-49.748 257.179l325.576-325.576"/><path d="M169.403 476.33l325.576-325.576"/><path d="M-5.814 301.113l325.576-325.576"/><path d="M213.336 520.264l325.576-325.576"/><path d="M38.119 345.046l325.576-325.576"/><path d="M257.27 564.197l325.576-325.576"/><path d="M-128.828 178.099l325.576-325.576"/><path d="M90.322 397.25l325.576-325.576"/><path d="M-84.895 222.033l325.576-325.576"/><path d="M134.256 441.183l325.576-325.576"/><path d="M-40.961 265.966l325.576-325.576"/><path d="M178.189 485.117l325.576-325.576"/><path d="M2.972 309.9l325.576-325.576"/><path d="M222.123 529.05l325.576-325.576"/><path d="M46.906 353.833l325.576-325.576"/><path d="M266.056 572.984l325.576-325.576"/></g></g><use stroke="#fff" mask="url(#e)" stroke-width="2" fill="#0D7CAD" xlink:href="#b"/><ellipse stroke="#fff" cx="18.106" cy="18.139" rx="6.106" ry="6.139"/><ellipse stroke="#fff" cx="38.106" cy="18.139" rx="6.106" ry="6.139"/><ellipse stroke="#fff" cx="58.106" cy="18.139" rx="6.106" ry="6.139"/></g></svg>